<svg width="600" height="294" viewBox="0 0 600 294" fill="none" xmlns="http://www.w3.org/2000/svg">
<rect width="600" height="294" fill="white"/>
<path d="M17 10V260H267" stroke="#232A3D" stroke-width="3"/>
<path d="M247 31L25 253" stroke="#232A3D" stroke-width="3"/>
<path d="M130 86.0224C130 82.7087 127.314 80.0224 124 80.0224C120.686 80.0224 118 82.7087 118 86.0224C118 89.3361 120.686 92.0224 124 92.0224C127.314 92.0224 130 89.3361 130 86.0224Z" fill="#F7E08E"/>
<path d="M193 73C193 69.6863 190.314 67 187 67C183.686 67 181 69.6863 181 73C181 76.3137 183.686 79 187 79C190.314 79 193 76.3137 193 73Z" fill="#F7E08E"/>
<path d="M172 56C172 52.6863 169.314 50 166 50C162.686 50 160 52.6863 160 56C160 59.3137 162.686 62 166 62C169.314 62 172 59.3137 172 56Z" fill="#F7E08E"/>
<path d="M124 41C124 37.6863 121.314 35 118 35C114.686 35 112 37.6863 112 41C112 44.3137 114.686 47 118 47C121.314 47 124 44.3137 124 41Z" fill="#F7E08E"/>
<path d="M202.184 46.771C201.277 43.5838 197.958 41.7351 194.771 42.6419C191.584 43.5487 189.735 46.8675 190.642 50.0547C191.549 53.242 194.868 55.0906 198.055 54.1838C201.242 53.2771 203.091 49.9582 202.184 46.771Z" fill="#F7E08E"/>
<path d="M65.1838 140.793C64.2771 137.606 60.9582 135.757 57.771 136.664C54.5838 137.571 52.7351 140.89 53.6419 144.077C54.5487 147.264 57.8675 149.113 61.0547 148.206C64.242 147.299 66.0906 143.981 65.1838 140.793Z" fill="#F7E08E"/>
<path d="M166.184 81.7934C165.277 78.6061 161.958 76.7575 158.771 77.6643C155.584 78.571 153.735 81.8899 154.642 85.0771C155.549 88.2643 158.868 90.113 162.055 89.2062C165.242 88.2995 167.091 84.9806 166.184 81.7934Z" fill="#F7E08E"/>
<path d="M113.184 106.793C112.277 103.606 108.958 101.757 105.771 102.664C102.584 103.571 100.735 106.89 101.642 110.077C102.549 113.264 105.868 115.113 109.055 114.206C112.242 113.299 114.091 109.981 113.184 106.793Z" fill="#F7E08E"/>
<path d="M102.184 138.793C101.277 135.606 97.9582 133.757 94.771 134.664C91.5838 135.571 89.7351 138.89 90.6419 142.077C91.5487 145.264 94.8675 147.113 98.0547 146.206C101.242 145.299 103.091 141.981 102.184 138.793Z" fill="#F7E08E"/>
<path d="M49.1838 50.7934C48.2771 47.6061 44.9582 45.7575 41.771 46.6642C38.5838 47.571 36.7351 50.8899 37.6419 54.0771C38.5487 57.2643 41.8675 59.113 45.0547 58.2062C48.242 57.2994 50.0906 53.9806 49.1838 50.7934Z" fill="#F7E08E"/>
<path d="M119.184 130.793C118.277 127.606 114.958 125.757 111.771 126.664C108.584 127.571 106.735 130.89 107.642 134.077C108.549 137.264 111.868 139.113 115.055 138.206C118.242 137.299 120.091 133.981 119.184 130.793Z" fill="#F7E08E"/>
<path d="M81.1838 121.771C80.2771 118.584 76.9582 116.735 73.771 117.642C70.5838 118.549 68.7351 121.868 69.6419 125.055C70.5487 128.242 73.8675 130.091 77.0547 129.184C80.242 128.277 82.0906 124.958 81.1838 121.771Z" fill="#F7E08E"/>
<path d="M140.184 105.224C139.277 102.036 135.958 100.188 132.771 101.095C129.584 102.001 127.735 105.32 128.642 108.507C129.549 111.695 132.868 113.543 136.055 112.637C139.242 111.73 141.091 108.411 140.184 105.224Z" fill="#F7E08E"/>
<path d="M98.1838 158.771C97.2771 155.584 93.9582 153.735 90.771 154.642C87.5838 155.549 85.7351 158.868 86.6419 162.055C87.5487 165.242 90.8675 167.091 94.0547 166.184C97.242 165.277 99.0906 161.958 98.1838 158.771Z" fill="#F7E08E"/>
<path d="M75.1838 168.771C74.2771 165.584 70.9582 163.735 67.771 164.642C64.5838 165.549 62.7351 168.868 63.6419 172.055C64.5487 175.242 67.8675 177.091 71.0547 176.184C74.242 175.277 76.0906 171.958 75.1838 168.771Z" fill="#F7E08E"/>
<path d="M38.1838 220.771C37.2771 217.584 33.9582 215.735 30.771 216.642C27.5838 217.549 25.7351 220.868 26.6419 224.055C27.5487 227.242 30.8675 229.091 34.0547 228.184C37.242 227.277 39.0906 223.958 38.1838 220.771Z" fill="#F7E08E"/>
<path d="M48.7594 190.712C47.2555 187.759 43.6426 186.585 40.6898 188.089C37.737 189.593 36.5625 193.205 38.0663 196.158C39.5702 199.111 43.183 200.286 46.1358 198.782C49.0886 197.278 50.2632 193.665 48.7594 190.712Z" fill="#F7E08E"/>
<path d="M48.1838 115.793C47.2771 112.606 43.9582 110.757 40.771 111.664C37.5838 112.571 35.7351 115.89 36.6419 119.077C37.5487 122.264 40.8675 124.113 44.0547 123.206C47.242 122.299 49.0906 118.981 48.1838 115.793Z" fill="#F7E08E"/>
<path d="M79.1838 38.771C78.2771 35.5838 74.9582 33.7351 71.771 34.6419C68.5838 35.5487 66.7351 38.8675 67.6419 42.0547C68.5487 45.242 71.8675 47.0906 75.0547 46.1838C78.242 45.2771 80.0906 41.9582 79.1838 38.771Z" fill="#F7E08E"/>
<path d="M119.184 70.771C118.277 67.5838 114.958 65.7351 111.771 66.6419C108.584 67.5487 106.735 70.8675 107.642 74.0547C108.549 77.242 111.868 79.0906 115.055 78.1838C118.242 77.2771 120.091 73.9582 119.184 70.771Z" fill="#F7E08E"/>
<path d="M38.1838 168.771C37.2771 165.584 33.9582 163.735 30.771 164.642C27.5838 165.549 25.7351 168.868 26.6419 172.055C27.5487 175.242 30.8675 177.091 34.0547 176.184C37.242 175.277 39.0906 171.958 38.1838 168.771Z" fill="#F7E08E"/>
<path d="M187.184 35.771C186.277 32.5838 182.958 30.7351 179.771 31.6419C176.584 32.5487 174.735 35.8675 175.642 39.0547C176.549 42.242 179.868 44.0906 183.055 43.1838C186.242 42.2771 188.091 38.9582 187.184 35.771Z" fill="#F7E08E"/>
<path d="M41.1838 76.771C40.2771 73.5838 36.9582 71.7351 33.771 72.6419C30.5838 73.5487 28.7351 76.8675 29.6419 80.0547C30.5487 83.242 33.8675 85.0906 37.0547 84.1838C40.242 83.2771 42.0906 79.9582 41.1838 76.771Z" fill="#F7E08E"/>
<path d="M94.1838 55.771C93.2771 52.5838 89.9582 50.7351 86.771 51.6419C83.5838 52.5487 81.7351 55.8675 82.6419 59.0547C83.5487 62.242 86.8675 64.0906 90.0547 63.1838C93.242 62.2771 95.0906 58.9582 94.1838 55.771Z" fill="#F7E08E"/>
<path d="M80.1838 94.7934C79.2771 91.6061 75.9582 89.7575 72.771 90.6643C69.5838 91.571 67.7351 94.8899 68.6419 98.0771C69.5487 101.264 72.8675 103.113 76.0547 102.206C79.242 101.299 81.0906 97.9806 80.1838 94.7934Z" fill="#F7E08E"/>
<path d="M136.184 56.7934C135.277 53.6061 131.958 51.7575 128.771 52.6643C125.584 53.571 123.735 56.8899 124.642 60.0771C125.549 63.2643 128.868 65.113 132.055 64.2062C135.242 63.2994 137.091 59.9806 136.184 56.7934Z" fill="#F7E08E"/>
<path d="M76.1838 70.2237C75.2771 67.0365 71.9582 65.1878 68.771 66.0946C65.5838 67.0014 63.7351 70.3202 64.6419 73.5074C65.5487 76.6947 68.8675 78.5433 72.0547 77.6365C75.242 76.7298 77.0906 73.4109 76.1838 70.2237Z" fill="#F7E08E"/>
<path d="M158.184 156.793C157.277 153.606 153.958 151.757 150.771 152.664C147.584 153.571 145.735 156.89 146.642 160.077C147.549 163.264 150.868 165.113 154.055 164.206C157.242 163.299 159.091 159.981 158.184 156.793Z" fill="#9B51E0"/>
<path d="M230 230.978C230 227.664 227.314 224.978 224 224.978C220.686 224.978 218 227.664 218 230.978C218 234.291 220.686 236.978 224 236.978C227.314 236.978 230 234.291 230 230.978Z" fill="#9B51E0"/>
<path d="M158 187.022C158 183.709 155.314 181.022 152 181.022C148.686 181.022 146 183.709 146 187.022C146 190.336 148.686 193.022 152 193.022C155.314 193.022 158 190.336 158 187.022Z" fill="#9B51E0"/>
<path d="M202 124C202 120.686 199.314 118 196 118C192.686 118 190 120.686 190 124C190 127.314 192.686 130 196 130C199.314 130 202 127.314 202 124Z" fill="#9B51E0"/>
<path d="M190 182.022C190 178.709 187.314 176.022 184 176.022C180.686 176.022 178 178.709 178 182.022C178 185.336 180.686 188.022 184 188.022C187.314 188.022 190 185.336 190 182.022Z" fill="#9B51E0"/>
<path d="M208 199.022C208 195.709 205.314 193.022 202 193.022C198.686 193.022 196 195.709 196 199.022C196 202.336 198.686 205.022 202 205.022C205.314 205.022 208 202.336 208 199.022Z" fill="#9B51E0"/>
<path d="M150 208.022C150 204.709 147.314 202.022 144 202.022C140.686 202.022 138 204.709 138 208.022C138 211.336 140.686 214.022 144 214.022C147.314 214.022 150 211.336 150 208.022Z" fill="#9B51E0"/>
<path d="M126 181C126 177.686 123.314 175 120 175C116.686 175 114 177.686 114 181C114 184.314 116.686 187 120 187C123.314 187 126 184.314 126 181Z" fill="#9B51E0"/>
<path d="M229 199.022C229 195.709 226.314 193.022 223 193.022C219.686 193.022 217 195.709 217 199.022C217 202.336 219.686 205.022 223 205.022C226.314 205.022 229 202.336 229 199.022Z" fill="#9B51E0"/>
<path d="M217 178.022C217 174.709 214.314 172.022 211 172.022C207.686 172.022 205 174.709 205 178.022C205 181.336 207.686 184.022 211 184.022C214.314 184.022 217 181.336 217 178.022Z" fill="#9B51E0"/>
<path d="M253 149C253 145.686 250.314 143 247 143C243.686 143 241 145.686 241 149C241 152.314 243.686 155 247 155C250.314 155 253 152.314 253 149Z" fill="#9B51E0"/>
<path d="M228 156.022C228 152.709 225.314 150.022 222 150.022C218.686 150.022 216 152.709 216 156.022C216 159.336 218.686 162.022 222 162.022C225.314 162.022 228 159.336 228 156.022Z" fill="#9B51E0"/>
<path d="M180 143C180 139.686 177.314 137 174 137C170.686 137 168 139.686 168 143C168 146.314 170.686 149 174 149C177.314 149 180 146.314 180 143Z" fill="#9B51E0"/>
<path d="M234 134C234 130.686 231.314 128 228 128C224.686 128 222 130.686 222 134C222 137.314 224.686 140 228 140C231.314 140 234 137.314 234 134Z" fill="#9B51E0"/>
<path d="M237 103C237 99.6863 234.314 97 231 97C227.686 97 225 99.6863 225 103C225 106.314 227.686 109 231 109C234.314 109 237 106.314 237 103Z" fill="#9B51E0"/>
<path d="M223 84C223 80.6863 220.314 78 217 78C213.686 78 211 80.6863 211 84C211 87.3137 213.686 90 217 90C220.314 90 223 87.3137 223 84Z" fill="#9B51E0"/>
<path d="M254 63C254 59.6863 251.314 57 248 57C244.686 57 242 59.6863 242 63C242 66.3137 244.686 69 248 69C251.314 69 254 66.3137 254 63Z" fill="#9B51E0"/>
<path d="M260 108.022C260 104.709 257.314 102.022 254 102.022C250.686 102.022 248 104.709 248 108.022C248 111.336 250.686 114.022 254 114.022C257.314 114.022 260 111.336 260 108.022Z" fill="#9B51E0"/>
<path d="M207 159.022C207 155.709 204.314 153.022 201 153.022C197.686 153.022 195 155.709 195 159.022C195 162.336 197.686 165.022 201 165.022C204.314 165.022 207 162.336 207 159.022Z" fill="#9B51E0"/>
<path d="M190 212.022C190 208.709 187.314 206.022 184 206.022C180.686 206.022 178 208.709 178 212.022C178 215.336 180.686 218.022 184 218.022C187.314 218.022 190 215.336 190 212.022Z" fill="#9B51E0"/>
<path d="M177 243.022C177 239.709 174.314 237.022 171 237.022C167.686 237.022 165 239.709 165 243.022C165 246.336 167.686 249.022 171 249.022C174.314 249.022 177 246.336 177 243.022Z" fill="#9B51E0"/>
<path d="M121 247.022C121 243.709 118.314 241.022 115 241.022C111.686 241.022 109 243.709 109 247.022C109 250.336 111.686 253.022 115 253.022C118.314 253.022 121 250.336 121 247.022Z" fill="#9B51E0"/>
<path d="M165 224.022C165 220.709 162.314 218.022 159 218.022C155.686 218.022 153 220.709 153 224.022C153 227.336 155.686 230.022 159 230.022C162.314 230.022 165 227.336 165 224.022Z" fill="#9B51E0"/>
<path d="M151 243.022C151 239.709 148.314 237.022 145 237.022C141.686 237.022 139 239.709 139 243.022C139 246.336 141.686 249.022 145 249.022C148.314 249.022 151 246.336 151 243.022Z" fill="#9B51E0"/>
<path d="M247 229C247 225.686 244.314 223 241 223C237.686 223 235 225.686 235 229C235 232.314 237.686 235 241 235C244.314 235 247 232.314 247 229Z" fill="#9B51E0"/>
<path d="M87 222C87 218.686 84.3137 216 81 216C77.6863 216 75 218.686 75 222C75 225.314 77.6863 228 81 228C84.3137 228 87 225.314 87 222Z" fill="#9B51E0"/>
<path d="M327 10V260H577" stroke="#232A3D" stroke-width="3"/>
<path d="M436 85C436 81.6863 433.314 79 430 79C426.686 79 424 81.6863 424 85C424 88.3137 426.686 91 430 91C433.314 91 436 88.3137 436 85Z" fill="#F7E08E"/>
<path d="M499 71.9776C499 68.6639 496.314 65.9776 493 65.9776C489.686 65.9776 487 68.6639 487 71.9776C487 75.2913 489.686 77.9776 493 77.9776C496.314 77.9776 499 75.2913 499 71.9776Z" fill="#F7E08E"/>
<path d="M492 53.9776C492 50.6639 489.314 47.9776 486 47.9776C482.686 47.9776 480 50.6639 480 53.9776C480 57.2913 482.686 59.9776 486 59.9776C489.314 59.9776 492 57.2913 492 53.9776Z" fill="#F7E08E"/>
<path d="M453 38.9776C453 35.6639 450.314 32.9776 447 32.9776C443.686 32.9776 441 35.6639 441 38.9776C441 42.2913 443.686 44.9776 447 44.9776C450.314 44.9776 453 42.2913 453 38.9776Z" fill="#F7E08E"/>
<path d="M452.184 122.771C451.277 119.584 447.958 117.735 444.771 118.642C441.584 119.549 439.735 122.868 440.642 126.055C441.549 129.242 444.868 131.091 448.055 130.184C451.242 129.277 453.091 125.958 452.184 122.771Z" fill="#F7E08E"/>
<path d="M371.184 139.771C370.277 136.584 366.958 134.735 363.771 135.642C360.584 136.549 358.735 139.868 359.642 143.055C360.549 146.242 363.868 148.091 367.055 147.184C370.242 146.277 372.091 142.958 371.184 139.771Z" fill="#F7E08E"/>
<path d="M472.184 80.771C471.277 77.5838 467.958 75.7351 464.771 76.6419C461.584 77.5487 459.735 80.8675 460.642 84.0547C461.549 87.242 464.868 89.0906 468.055 88.1838C471.242 87.2771 473.091 83.9582 472.184 80.771Z" fill="#F7E08E"/>
<path d="M419.184 105.771C418.277 102.584 414.958 100.735 411.771 101.642C408.584 102.549 406.735 105.868 407.642 109.055C408.549 112.242 411.868 114.091 415.055 113.184C418.242 112.277 420.091 108.958 419.184 105.771Z" fill="#F7E08E"/>
<path d="M408.184 137.771C407.277 134.584 403.958 132.735 400.771 133.642C397.584 134.549 395.735 137.868 396.642 141.055C397.549 144.242 400.868 146.091 404.055 145.184C407.242 144.277 409.091 140.958 408.184 137.771Z" fill="#F7E08E"/>
<path d="M378.184 54.771C377.277 51.5838 373.958 49.7351 370.771 50.6419C367.584 51.5487 365.735 54.8675 366.642 58.0547C367.549 61.242 370.868 63.0906 374.055 62.1838C377.242 61.2771 379.091 57.9582 378.184 54.771Z" fill="#F7E08E"/>
<path d="M425.184 129.771C424.277 126.584 420.958 124.735 417.771 125.642C414.584 126.549 412.735 129.868 413.642 133.055C414.549 136.242 417.868 138.091 421.055 137.184C424.242 136.277 426.091 132.958 425.184 129.771Z" fill="#F7E08E"/>
<path d="M449.184 146.771C448.277 143.584 444.958 141.735 441.771 142.642C438.584 143.549 436.735 146.868 437.642 150.055C438.549 153.242 441.868 155.091 445.055 154.184C448.242 153.277 450.091 149.958 449.184 146.771Z" fill="#F7E08E"/>
<path d="M446.184 104.201C445.277 101.014 441.958 99.1654 438.771 100.072C435.584 100.979 433.735 104.298 434.642 107.485C435.549 110.672 438.868 112.521 442.055 111.614C445.242 110.707 447.091 107.389 446.184 104.201Z" fill="#F7E08E"/>
<path d="M406.184 168.771C405.277 165.584 401.958 163.735 398.771 164.642C395.584 165.549 393.735 168.868 394.642 172.055C395.549 175.242 398.868 177.091 402.055 176.184C405.242 175.277 407.091 171.958 406.184 168.771Z" fill="#F7E08E"/>
<path d="M393.184 188.771C392.277 185.584 388.958 183.735 385.771 184.642C382.584 185.549 380.735 188.868 381.642 192.055C382.549 195.242 385.868 197.091 389.055 196.184C392.242 195.277 394.091 191.958 393.184 188.771Z" fill="#F7E08E"/>
<path d="M374.184 225.771C373.277 222.584 369.958 220.735 366.771 221.642C363.584 222.549 361.735 225.868 362.642 229.055C363.549 232.242 366.868 234.091 370.055 233.184C373.242 232.277 375.091 228.958 374.184 225.771Z" fill="#F7E08E"/>
<path d="M354.759 189.69C353.255 186.737 349.643 185.562 346.69 187.066C343.737 188.57 342.562 192.183 344.066 195.136C345.57 198.089 349.183 199.263 352.136 197.759C355.089 196.256 356.263 192.643 354.759 189.69Z" fill="#F7E08E"/>
<path d="M354.184 114.771C353.277 111.584 349.958 109.735 346.771 110.642C343.584 111.549 341.735 114.868 342.642 118.055C343.549 121.242 346.868 123.091 350.055 122.184C353.242 121.277 355.091 117.958 354.184 114.771Z" fill="#F7E08E"/>
<path d="M495.184 127.771C494.277 124.584 490.958 122.735 487.771 123.642C484.584 124.549 482.735 127.868 483.642 131.055C484.549 134.242 487.868 136.091 491.055 135.184C494.242 134.277 496.091 130.958 495.184 127.771Z" fill="#F7E08E"/>
<path d="M554.184 232.771C553.277 229.584 549.958 227.735 546.771 228.642C543.584 229.549 541.735 232.868 542.642 236.055C543.549 239.242 546.868 241.091 550.055 240.184C553.242 239.277 555.091 235.958 554.184 232.771Z" fill="#F7E08E"/>
<path d="M446.184 224.771C445.277 221.584 441.958 219.735 438.771 220.642C435.584 221.549 433.735 224.868 434.642 228.055C435.549 231.242 438.868 233.091 442.055 232.184C445.242 231.277 447.091 227.958 446.184 224.771Z" fill="#F7E08E"/>
<path d="M563.184 149.771C562.277 146.584 558.958 144.735 555.771 145.642C552.584 146.549 550.735 149.868 551.642 153.055C552.549 156.242 555.868 158.091 559.055 157.184C562.242 156.277 564.091 152.958 563.184 149.771Z" fill="#F7E08E"/>
<path d="M536.184 135.771C535.277 132.584 531.958 130.735 528.771 131.642C525.584 132.549 523.735 135.868 524.642 139.055C525.549 142.242 528.868 144.091 532.055 143.184C535.242 142.277 537.091 138.958 536.184 135.771Z" fill="#F7E08E"/>
<path d="M567.184 78.771C566.277 75.5838 562.958 73.7351 559.771 74.6419C556.584 75.5487 554.735 78.8675 555.642 82.0547C556.549 85.242 559.868 87.0906 563.055 86.1838C566.242 85.2771 568.091 81.9582 567.184 78.771Z" fill="#F7E08E"/>
<path d="M386.184 93.771C385.277 90.5838 381.958 88.7351 378.771 89.6419C375.584 90.5487 373.735 93.8675 374.642 97.0547C375.549 100.242 378.868 102.091 382.055 101.184C385.242 100.277 387.091 96.9582 386.184 93.771Z" fill="#F7E08E"/>
<path d="M465.184 54.771C464.277 51.5838 460.958 49.7351 457.771 50.6419C454.584 51.5487 452.735 54.8675 453.642 58.0547C454.549 61.242 457.868 63.0906 461.055 62.1838C464.242 61.2771 466.091 57.9582 465.184 54.771Z" fill="#F7E08E"/>
<path d="M405.184 74.2013C404.277 71.0141 400.958 69.1654 397.771 70.0722C394.584 70.979 392.735 74.2978 393.642 77.485C394.549 80.6723 397.868 82.5209 401.055 81.6142C404.242 80.7074 406.091 77.3885 405.184 74.2013Z" fill="#F7E08E"/>
<path d="M472.184 155.771C471.277 152.584 467.958 150.735 464.771 151.642C461.584 152.549 459.735 155.868 460.642 159.055C461.549 162.242 464.868 164.091 468.055 163.184C471.242 162.277 473.091 158.958 472.184 155.771Z" fill="#9B51E0"/>
<path d="M439 58C439 54.6863 436.314 52 433 52C429.686 52 427 54.6863 427 58C427 61.3137 429.686 64 433 64C436.314 64 439 61.3137 439 58Z" fill="#9B51E0"/>
<path d="M472 186C472 182.686 469.314 180 466 180C462.686 180 460 182.686 460 186C460 189.314 462.686 192 466 192C469.314 192 472 189.314 472 186Z" fill="#9B51E0"/>
<path d="M477 111C477 107.686 474.314 105 471 105C467.686 105 465 107.686 465 111C465 114.314 467.686 117 471 117C474.314 117 477 114.314 477 111Z" fill="#9B51E0"/>
<path d="M504 181C504 177.686 501.314 175 498 175C494.686 175 492 177.686 492 181C492 184.314 494.686 187 498 187C501.314 187 504 184.314 504 181Z" fill="#9B51E0"/>
<path d="M522 198C522 194.686 519.314 192 516 192C512.686 192 510 194.686 510 198C510 201.314 512.686 204 516 204C519.314 204 522 201.314 522 198Z" fill="#9B51E0"/>
<path d="M464 207C464 203.686 461.314 201 458 201C454.686 201 452 203.686 452 207C452 210.314 454.686 213 458 213C461.314 213 464 210.314 464 207Z" fill="#9B51E0"/>
<path d="M397 112.978C397 109.664 394.314 106.978 391 106.978C387.686 106.978 385 109.664 385 112.978C385 116.291 387.686 118.978 391 118.978C394.314 118.978 397 116.291 397 112.978Z" fill="#9B51E0"/>
<path d="M543 198C543 194.686 540.314 192 537 192C533.686 192 531 194.686 531 198C531 201.314 533.686 204 537 204C540.314 204 543 201.314 543 198Z" fill="#9B51E0"/>
<path d="M531 177C531 173.686 528.314 171 525 171C521.686 171 519 173.686 519 177C519 180.314 521.686 183 525 183C528.314 183 531 180.314 531 177Z" fill="#9B51E0"/>
<path d="M552 176C552 172.686 549.314 170 546 170C542.686 170 540 172.686 540 176C540 179.314 542.686 182 546 182C549.314 182 552 179.314 552 176Z" fill="#9B51E0"/>
<path d="M542 155C542 151.686 539.314 149 536 149C532.686 149 530 151.686 530 155C530 158.314 532.686 161 536 161C539.314 161 542 158.314 542 155Z" fill="#9B51E0"/>
<path d="M563 123C563 119.686 560.314 117 557 117C553.686 117 551 119.686 551 123C551 126.314 553.686 129 557 129C560.314 129 563 126.314 563 123Z" fill="#9B51E0"/>
<path d="M543 111C543 107.686 540.314 105 537 105C533.686 105 531 107.686 531 111C531 114.314 533.686 117 537 117C540.314 117 543 114.314 543 111Z" fill="#9B51E0"/>
<path d="M548 87C548 83.6863 545.314 81 542 81C538.686 81 536 83.6863 536 87C536 90.3137 538.686 93 542 93C545.314 93 548 90.3137 548 87Z" fill="#9B51E0"/>
<path d="M543 62C543 58.6863 540.314 56 537 56C533.686 56 531 58.6863 531 62C531 65.3137 533.686 68 537 68C540.314 68 543 65.3137 543 62Z" fill="#9B51E0"/>
<path d="M566 49C566 45.6863 563.314 43 560 43C556.686 43 554 45.6863 554 49C554 52.3137 556.686 55 560 55C563.314 55 566 52.3137 566 49Z" fill="#9B51E0"/>
<path d="M566 107C566 103.686 563.314 101 560 101C556.686 101 554 103.686 554 107C554 110.314 556.686 113 560 113C563.314 113 566 110.314 566 107Z" fill="#9B51E0"/>
<path d="M521 158C521 154.686 518.314 152 515 152C511.686 152 509 154.686 509 158C509 161.314 511.686 164 515 164C518.314 164 521 161.314 521 158Z" fill="#9B51E0"/>
<path d="M504 211C504 207.686 501.314 205 498 205C494.686 205 492 207.686 492 211C492 214.314 494.686 217 498 217C501.314 217 504 214.314 504 211Z" fill="#9B51E0"/>
<path d="M491 242C491 238.686 488.314 236 485 236C481.686 236 479 238.686 479 242C479 245.314 481.686 248 485 248C488.314 248 491 245.314 491 242Z" fill="#9B51E0"/>
<path d="M435 246C435 242.686 432.314 240 429 240C425.686 240 423 242.686 423 246C423 249.314 425.686 252 429 252C432.314 252 435 249.314 435 246Z" fill="#9B51E0"/>
<path d="M479 223C479 219.686 476.314 217 473 217C469.686 217 467 219.686 467 223C467 226.314 469.686 229 473 229C476.314 229 479 226.314 479 223Z" fill="#9B51E0"/>
<path d="M465 242C465 238.686 462.314 236 459 236C455.686 236 453 238.686 453 242C453 245.314 455.686 248 459 248C462.314 248 465 245.314 465 242Z" fill="#9B51E0"/>
<path d="M536 223C536 219.686 533.314 217 530 217C526.686 217 524 219.686 524 223C524 226.314 526.686 229 530 229C533.314 229 536 226.314 536 223Z" fill="#9B51E0"/>
<path d="M356 167C356 163.686 353.314 161 350 161C346.686 161 344 163.686 344 167C344 170.314 346.686 173 350 173C353.314 173 356 170.314 356 167Z" fill="#9B51E0"/>
<path d="M552.118 26.1183C529 35 513.638 71 503 133C492.362 195 393 151 384.089 256.089" stroke="#232A3D" stroke-width="3"/>
</svg>
