<svg width="327" height="328" viewBox="0 0 327 328" fill="none" xmlns="http://www.w3.org/2000/svg">
<rect width="327" height="328" fill="white"/>
<path d="M35 37V287H285" stroke="#232A3D" stroke-width="3"/>
<path d="M144 112C144 108.686 141.314 106 138 106C134.686 106 132 108.686 132 112C132 115.314 134.686 118 138 118C141.314 118 144 115.314 144 112Z" fill="#F7E08E"/>
<path d="M207 98.9777C207 95.664 204.314 92.9777 201 92.9777C197.686 92.9777 195 95.664 195 98.9777C195 102.291 197.686 104.978 201 104.978C204.314 104.978 207 102.291 207 98.9777Z" fill="#F7E08E"/>
<path d="M200 80.9777C200 77.664 197.314 74.9777 194 74.9777C190.686 74.9777 188 77.664 188 80.9777C188 84.2914 190.686 86.9777 194 86.9777C197.314 86.9777 200 84.2914 200 80.9777Z" fill="#F7E08E"/>
<path d="M161 65.9777C161 62.664 158.314 59.9777 155 59.9777C151.686 59.9777 149 62.664 149 65.9777C149 69.2914 151.686 71.9777 155 71.9777C158.314 71.9777 161 69.2914 161 65.9777Z" fill="#F7E08E"/>
<path d="M160.184 149.771C159.277 146.584 155.958 144.735 152.771 145.642C149.584 146.549 147.735 149.867 148.642 153.055C149.549 156.242 152.868 158.091 156.055 157.184C159.242 156.277 161.091 152.958 160.184 149.771Z" fill="#F7E08E"/>
<path d="M79.1838 166.771C78.2771 163.584 74.9582 161.735 71.771 162.642C68.5838 163.549 66.7351 166.867 67.6419 170.055C68.5487 173.242 71.8675 175.091 75.0547 174.184C78.242 173.277 80.0906 169.958 79.1838 166.771Z" fill="#F7E08E"/>
<path d="M180.184 107.771C179.277 104.584 175.958 102.735 172.771 103.642C169.584 104.549 167.735 107.867 168.642 111.055C169.549 114.242 172.868 116.091 176.055 115.184C179.242 114.277 181.091 110.958 180.184 107.771Z" fill="#F7E08E"/>
<path d="M127.184 132.771C126.277 129.584 122.958 127.735 119.771 128.642C116.584 129.549 114.735 132.867 115.642 136.055C116.549 139.242 119.868 141.091 123.055 140.184C126.242 139.277 128.091 135.958 127.184 132.771Z" fill="#F7E08E"/>
<path d="M116.184 164.771C115.277 161.584 111.958 159.735 108.771 160.642C105.584 161.549 103.735 164.867 104.642 168.055C105.549 171.242 108.868 173.091 112.055 172.184C115.242 171.277 117.091 167.958 116.184 164.771Z" fill="#F7E08E"/>
<path d="M86.1838 81.7709C85.2771 78.5837 81.9582 76.735 78.771 77.6418C75.5838 78.5486 73.7351 81.8674 74.6419 85.0547C75.5487 88.2419 78.8675 90.0906 82.0547 89.1838C85.242 88.277 87.0906 84.9582 86.1838 81.7709Z" fill="#F7E08E"/>
<path d="M133.184 156.771C132.277 153.584 128.958 151.735 125.771 152.642C122.584 153.549 120.735 156.867 121.642 160.055C122.549 163.242 125.868 165.091 129.055 164.184C132.242 163.277 134.091 159.958 133.184 156.771Z" fill="#F7E08E"/>
<path d="M157.184 173.771C156.277 170.584 152.958 168.735 149.771 169.642C146.584 170.549 144.735 173.867 145.642 177.055C146.549 180.242 149.868 182.091 153.055 181.184C156.242 180.277 158.091 176.958 157.184 173.771Z" fill="#F7E08E"/>
<path d="M154.184 131.201C153.277 128.014 149.958 126.165 146.771 127.072C143.584 127.979 141.735 131.298 142.642 134.485C143.549 137.672 146.868 139.521 150.055 138.614C153.242 137.707 155.091 134.389 154.184 131.201Z" fill="#F7E08E"/>
<path d="M114.184 195.771C113.277 192.584 109.958 190.735 106.771 191.642C103.584 192.549 101.735 195.867 102.642 199.055C103.549 202.242 106.868 204.091 110.055 203.184C113.242 202.277 115.091 198.958 114.184 195.771Z" fill="#F7E08E"/>
<path d="M101.184 215.771C100.277 212.584 96.9582 210.735 93.771 211.642C90.5838 212.549 88.7351 215.867 89.6419 219.055C90.5487 222.242 93.8675 224.091 97.0547 223.184C100.242 222.277 102.091 218.958 101.184 215.771Z" fill="#F7E08E"/>
<path d="M82.1838 252.771C81.2771 249.584 77.9582 247.735 74.771 248.642C71.5838 249.549 69.7351 252.867 70.6419 256.055C71.5487 259.242 74.8675 261.091 78.0547 260.184C81.242 259.277 83.0906 255.958 82.1838 252.771Z" fill="#F7E08E"/>
<path d="M62.7594 216.69C61.2555 213.737 57.6426 212.562 54.6898 214.066C51.737 215.57 50.5625 219.183 52.0663 222.136C53.5702 225.089 57.183 226.263 60.1358 224.759C63.0886 223.255 64.2632 219.643 62.7594 216.69Z" fill="#F7E08E"/>
<path d="M62.1838 141.771C61.2771 138.584 57.9582 136.735 54.771 137.642C51.5838 138.549 49.7351 141.867 50.6419 145.055C51.5487 148.242 54.8675 150.091 58.0547 149.184C61.242 148.277 63.0906 144.958 62.1838 141.771Z" fill="#F7E08E"/>
<path d="M203.184 154.771C202.277 151.584 198.958 149.735 195.771 150.642C192.584 151.549 190.735 154.867 191.642 158.055C192.549 161.242 195.868 163.091 199.055 162.184C202.242 161.277 204.091 157.958 203.184 154.771Z" fill="#F7E08E"/>
<path d="M262.184 259.771C261.277 256.584 257.958 254.735 254.771 255.642C251.584 256.549 249.735 259.867 250.642 263.055C251.549 266.242 254.868 268.091 258.055 267.184C261.242 266.277 263.091 262.958 262.184 259.771Z" fill="#F7E08E"/>
<path d="M154.184 251.771C153.277 248.584 149.958 246.735 146.771 247.642C143.584 248.549 141.735 251.867 142.642 255.055C143.549 258.242 146.868 260.091 150.055 259.184C153.242 258.277 155.091 254.958 154.184 251.771Z" fill="#F7E08E"/>
<path d="M271.184 176.771C270.277 173.584 266.958 171.735 263.771 172.642C260.584 173.549 258.735 176.867 259.642 180.055C260.549 183.242 263.868 185.091 267.055 184.184C270.242 183.277 272.091 179.958 271.184 176.771Z" fill="#F7E08E"/>
<path d="M244.184 162.771C243.277 159.584 239.958 157.735 236.771 158.642C233.584 159.549 231.735 162.867 232.642 166.055C233.549 169.242 236.868 171.091 240.055 170.184C243.242 169.277 245.091 165.958 244.184 162.771Z" fill="#F7E08E"/>
<path d="M275.184 105.771C274.277 102.584 270.958 100.735 267.771 101.642C264.584 102.549 262.735 105.867 263.642 109.055C264.549 112.242 267.868 114.091 271.055 113.184C274.242 112.277 276.091 108.958 275.184 105.771Z" fill="#F7E08E"/>
<path d="M94.1838 120.771C93.2771 117.584 89.9582 115.735 86.771 116.642C83.5838 117.549 81.7351 120.867 82.6419 124.055C83.5487 127.242 86.8675 129.091 90.0547 128.184C93.242 127.277 95.0906 123.958 94.1838 120.771Z" fill="#F7E08E"/>
<path d="M173.184 81.7709C172.277 78.5837 168.958 76.735 165.771 77.6418C162.584 78.5486 160.735 81.8674 161.642 85.0547C162.549 88.2419 165.868 90.0906 169.055 89.1838C172.242 88.277 174.091 84.9582 173.184 81.7709Z" fill="#F7E08E"/>
<path d="M113.184 101.201C112.277 98.0141 108.958 96.1655 105.771 97.0722C102.584 97.979 100.735 101.298 101.642 104.485C102.549 107.672 105.868 109.521 109.055 108.614C112.242 107.707 114.091 104.389 113.184 101.201Z" fill="#F7E08E"/>
<path d="M180.184 182.771C179.277 179.584 175.958 177.735 172.771 178.642C169.584 179.549 167.735 182.867 168.642 186.055C169.549 189.242 172.868 191.091 176.055 190.184C179.242 189.277 181.091 185.958 180.184 182.771Z" fill="#9B51E0"/>
<path d="M147 85C147 81.6863 144.314 79 141 79C137.686 79 135 81.6863 135 85C135 88.3137 137.686 91 141 91C144.314 91 147 88.3137 147 85Z" fill="#9B51E0"/>
<path d="M180 213C180 209.686 177.314 207 174 207C170.686 207 168 209.686 168 213C168 216.314 170.686 219 174 219C177.314 219 180 216.314 180 213Z" fill="#9B51E0"/>
<path d="M185 138C185 134.686 182.314 132 179 132C175.686 132 173 134.686 173 138C173 141.314 175.686 144 179 144C182.314 144 185 141.314 185 138Z" fill="#9B51E0"/>
<path d="M212 208C212 204.686 209.314 202 206 202C202.686 202 200 204.686 200 208C200 211.314 202.686 214 206 214C209.314 214 212 211.314 212 208Z" fill="#9B51E0"/>
<path d="M230 225C230 221.686 227.314 219 224 219C220.686 219 218 221.686 218 225C218 228.314 220.686 231 224 231C227.314 231 230 228.314 230 225Z" fill="#9B51E0"/>
<path d="M172 234C172 230.686 169.314 228 166 228C162.686 228 160 230.686 160 234C160 237.314 162.686 240 166 240C169.314 240 172 237.314 172 234Z" fill="#9B51E0"/>
<path d="M105 139.978C105 136.664 102.314 133.978 99 133.978C95.6863 133.978 93 136.664 93 139.978C93 143.291 95.6863 145.978 99 145.978C102.314 145.978 105 143.291 105 139.978Z" fill="#9B51E0"/>
<path d="M251 225C251 221.686 248.314 219 245 219C241.686 219 239 221.686 239 225C239 228.314 241.686 231 245 231C248.314 231 251 228.314 251 225Z" fill="#9B51E0"/>
<path d="M239 204C239 200.686 236.314 198 233 198C229.686 198 227 200.686 227 204C227 207.314 229.686 210 233 210C236.314 210 239 207.314 239 204Z" fill="#9B51E0"/>
<path d="M260 203C260 199.686 257.314 197 254 197C250.686 197 248 199.686 248 203C248 206.314 250.686 209 254 209C257.314 209 260 206.314 260 203Z" fill="#9B51E0"/>
<path d="M250 182C250 178.686 247.314 176 244 176C240.686 176 238 178.686 238 182C238 185.314 240.686 188 244 188C247.314 188 250 185.314 250 182Z" fill="#9B51E0"/>
<path d="M271 150C271 146.686 268.314 144 265 144C261.686 144 259 146.686 259 150C259 153.314 261.686 156 265 156C268.314 156 271 153.314 271 150Z" fill="#9B51E0"/>
<path d="M251 138C251 134.686 248.314 132 245 132C241.686 132 239 134.686 239 138C239 141.314 241.686 144 245 144C248.314 144 251 141.314 251 138Z" fill="#9B51E0"/>
<path d="M256 114C256 110.686 253.314 108 250 108C246.686 108 244 110.686 244 114C244 117.314 246.686 120 250 120C253.314 120 256 117.314 256 114Z" fill="#9B51E0"/>
<path d="M251 89C251 85.6863 248.314 83 245 83C241.686 83 239 85.6863 239 89C239 92.3137 241.686 95 245 95C248.314 95 251 92.3137 251 89Z" fill="#9B51E0"/>
<path d="M274 76C274 72.6863 271.314 70 268 70C264.686 70 262 72.6863 262 76C262 79.3137 264.686 82 268 82C271.314 82 274 79.3137 274 76Z" fill="#9B51E0"/>
<path d="M274 134C274 130.686 271.314 128 268 128C264.686 128 262 130.686 262 134C262 137.314 264.686 140 268 140C271.314 140 274 137.314 274 134Z" fill="#9B51E0"/>
<path d="M229 185C229 181.686 226.314 179 223 179C219.686 179 217 181.686 217 185C217 188.314 219.686 191 223 191C226.314 191 229 188.314 229 185Z" fill="#9B51E0"/>
<path d="M212 238C212 234.686 209.314 232 206 232C202.686 232 200 234.686 200 238C200 241.314 202.686 244 206 244C209.314 244 212 241.314 212 238Z" fill="#9B51E0"/>
<path d="M199 269C199 265.686 196.314 263 193 263C189.686 263 187 265.686 187 269C187 272.314 189.686 275 193 275C196.314 275 199 272.314 199 269Z" fill="#9B51E0"/>
<path d="M143 273C143 269.686 140.314 267 137 267C133.686 267 131 269.686 131 273C131 276.314 133.686 279 137 279C140.314 279 143 276.314 143 273Z" fill="#9B51E0"/>
<path d="M187 250C187 246.686 184.314 244 181 244C177.686 244 175 246.686 175 250C175 253.314 177.686 256 181 256C184.314 256 187 253.314 187 250Z" fill="#9B51E0"/>
<path d="M173 269C173 265.686 170.314 263 167 263C163.686 263 161 265.686 161 269C161 272.314 163.686 275 167 275C170.314 275 173 272.314 173 269Z" fill="#9B51E0"/>
<path d="M244 250C244 246.686 241.314 244 238 244C234.686 244 232 246.686 232 250C232 253.314 234.686 256 238 256C241.314 256 244 253.314 244 250Z" fill="#9B51E0"/>
<path d="M64 194C64 190.686 61.3137 188 58 188C54.6863 188 52 190.686 52 194C52 197.314 54.6863 200 58 200C61.3137 200 64 197.314 64 194Z" fill="#9B51E0"/>
<path d="M260.118 53.1183C237 62 221.638 98 211 160C200.362 222 101 178 92.0893 283.089" stroke="#232A3D" stroke-width="3"/>
</svg>
