<svg width="600" height="294" viewBox="0 0 600 294" fill="none" xmlns="http://www.w3.org/2000/svg">
<rect width="600" height="294" fill="white"/>
<path d="M16.0001 12V262H416" stroke="#232A3D" stroke-width="3"/>
<path d="M175.5 16.5C181.5 82.5 185 128 185 128C185 128 127 217.5 21.5 197" stroke="#232A3D" stroke-width="3"/>
<path d="M129 88.0224C129 84.7087 126.314 82.0224 123 82.0224C119.686 82.0224 117 84.7087 117 88.0224C117 91.3361 119.686 94.0224 123 94.0224C126.314 94.0224 129 91.3361 129 88.0224Z" fill="#F7E08E"/>
<path d="M282 110.022C282 106.709 279.314 104.022 276 104.022C272.686 104.022 270 106.709 270 110.022C270 113.336 272.686 116.022 276 116.022C279.314 116.022 282 113.336 282 110.022Z" fill="#9B51E0"/>
<path d="M368 74C368 70.6863 365.314 68 362 68C358.686 68 356 70.6863 356 74C356 77.3137 358.686 80 362 80C365.314 80 368 77.3137 368 74Z" fill="#9B51E0"/>
<path d="M176 104C176 100.686 173.314 98 170 98C166.686 98 164 100.686 164 104C164 107.314 166.686 110 170 110C173.314 110 176 107.314 176 104Z" fill="#F7E08E"/>
<path d="M329 126C329 122.686 326.314 120 323 120C319.686 120 317 122.686 317 126C317 129.314 319.686 132 323 132C326.314 132 329 129.314 329 126Z" fill="#9B51E0"/>
<path d="M378 241.978C378 238.664 375.314 235.978 372 235.978C368.686 235.978 366 238.664 366 241.978C366 245.291 368.686 247.978 372 247.978C375.314 247.978 378 245.291 378 241.978Z" fill="#9B51E0"/>
<path d="M384 171C384 167.686 381.314 165 378 165C374.686 165 372 167.686 372 171C372 174.314 374.686 177 378 177C381.314 177 384 174.314 384 171Z" fill="#9B51E0"/>
<path d="M364 103C364 99.6863 361.314 97 358 97C354.686 97 352 99.6863 352 103C352 106.314 354.686 109 358 109C361.314 109 364 106.314 364 103Z" fill="#9B51E0"/>
<path d="M149 109C149 105.686 146.314 103 143 103C139.686 103 137 105.686 137 109C137 112.314 139.686 115 143 115C146.314 115 149 112.314 149 109Z" fill="#F7E08E"/>
<path d="M302 131C302 127.686 299.314 125 296 125C292.686 125 290 127.686 290 131C290 134.314 292.686 137 296 137C299.314 137 302 134.314 302 131Z" fill="#9B51E0"/>
<path d="M334 174.978C334 171.664 331.314 168.978 328 168.978C324.686 168.978 322 171.664 322 174.978C322 178.291 324.686 180.978 328 180.978C331.314 180.978 334 178.291 334 174.978Z" fill="#9B51E0"/>
<path d="M123 43C123 39.6863 120.314 37 117 37C113.686 37 111 39.6863 111 43C111 46.3137 113.686 49 117 49C120.314 49 123 46.3137 123 43Z" fill="#F7E08E"/>
<path d="M288 29C288 25.6863 285.314 23 282 23C278.686 23 276 25.6863 276 29C276 32.3137 278.686 35 282 35C285.314 35 288 32.3137 288 29Z" fill="#9B51E0"/>
<path d="M161.184 130.771C160.277 127.584 156.958 125.735 153.771 126.642C150.584 127.549 148.735 130.868 149.642 134.055C150.549 137.242 153.868 139.091 157.055 138.184C160.242 137.277 162.091 133.958 161.184 130.771Z" fill="#F7E08E"/>
<path d="M314.184 152.771C313.277 149.584 309.958 147.735 306.771 148.642C303.584 149.549 301.735 152.868 302.642 156.055C303.549 159.242 306.868 161.091 310.055 160.184C313.242 159.277 315.091 155.958 314.184 152.771Z" fill="#9B51E0"/>
<path d="M346.184 196.749C345.277 193.561 341.958 191.713 338.771 192.619C335.584 193.526 333.735 196.845 334.642 200.032C335.549 203.22 338.868 205.068 342.055 204.161C345.242 203.255 347.091 199.936 346.184 196.749Z" fill="#9B51E0"/>
<path d="M64.1839 142.793C63.2771 139.606 59.9582 137.757 56.771 138.664C53.5838 139.571 51.7351 142.89 52.6419 146.077C53.5487 149.264 56.8675 151.113 60.0548 150.206C63.242 149.299 65.0907 145.981 64.1839 142.793Z" fill="#F7E08E"/>
<path d="M165.184 83.7934C164.277 80.6062 160.958 78.7575 157.771 79.6643C154.584 80.5711 152.735 83.8899 153.642 87.0771C154.549 90.2644 157.868 92.113 161.055 91.2062C164.242 90.2995 166.091 86.9806 165.184 83.7934Z" fill="#F7E08E"/>
<path d="M292.184 72.771C291.277 69.5838 287.958 67.7351 284.771 68.6419C281.584 69.5487 279.735 72.8675 280.642 76.0547C281.549 79.242 284.868 81.0906 288.055 80.1838C291.242 79.2771 293.091 75.9582 292.184 72.771Z" fill="#9B51E0"/>
<path d="M350.184 149.771C349.277 146.584 345.958 144.735 342.771 145.642C339.584 146.549 337.735 149.868 338.642 153.055C339.549 156.242 342.868 158.091 346.055 157.184C349.242 156.277 351.091 152.958 350.184 149.771Z" fill="#9B51E0"/>
<path d="M112.184 108.793C111.277 105.606 107.958 103.757 104.771 104.664C101.584 105.571 99.7351 108.89 100.642 112.077C101.549 115.264 104.868 117.113 108.055 116.206C111.242 115.299 113.091 111.981 112.184 108.793Z" fill="#F7E08E"/>
<path d="M265.184 130.793C264.277 127.606 260.958 125.757 257.771 126.664C254.584 127.571 252.735 130.89 253.642 134.077C254.549 137.264 257.868 139.113 261.055 138.206C264.242 137.299 266.091 133.981 265.184 130.793Z" fill="#9B51E0"/>
<path d="M334.184 83.7934C333.277 80.6062 329.958 78.7575 326.771 79.6643C323.584 80.5711 321.735 83.8899 322.642 87.0771C323.549 90.2644 326.868 92.113 330.055 91.2062C333.242 90.2995 335.091 86.9806 334.184 83.7934Z" fill="#9B51E0"/>
<path d="M373.184 28.771C372.277 25.5838 368.958 23.7351 365.771 24.6419C362.584 25.5487 360.735 28.8675 361.642 32.0547C362.549 35.242 365.868 37.0906 369.055 36.1838C372.242 35.2771 374.091 31.9582 373.184 28.771Z" fill="#9B51E0"/>
<path d="M101.184 140.793C100.277 137.606 96.9582 135.757 93.771 136.664C90.5838 137.571 88.7351 140.89 89.6419 144.077C90.5487 147.264 93.8675 149.113 97.0548 148.206C100.242 147.299 102.091 143.981 101.184 140.793Z" fill="#F7E08E"/>
<path d="M48.1839 52.7934C47.2771 49.6061 43.9582 47.7575 40.771 48.6642C37.5838 49.571 35.7351 52.8899 36.6419 56.0771C37.5487 59.2643 40.8675 61.113 44.0548 60.2062C47.242 59.2994 49.0907 55.9806 48.1839 52.7934Z" fill="#F7E08E"/>
<path d="M213.184 38.7934C212.277 35.6061 208.958 33.7575 205.771 34.6642C202.584 35.571 200.735 38.8899 201.642 42.0771C202.549 45.2643 205.868 47.113 209.055 46.2062C212.242 45.2994 214.091 41.9806 213.184 38.7934Z" fill="#9B51E0"/>
<path d="M118.184 132.793C117.277 129.606 113.958 127.757 110.771 128.664C107.584 129.571 105.735 132.89 106.642 136.077C107.549 139.264 110.868 141.113 114.055 140.206C117.242 139.299 119.091 135.981 118.184 132.793Z" fill="#F7E08E"/>
<path d="M271.184 154.793C270.277 151.606 266.958 149.757 263.771 150.664C260.584 151.571 258.735 154.89 259.642 158.077C260.549 161.264 263.867 163.113 267.055 162.206C270.242 161.299 272.091 157.981 271.184 154.793Z" fill="#9B51E0"/>
<path d="M340.184 107.793C339.277 104.606 335.958 102.757 332.771 103.664C329.584 104.571 327.735 107.89 328.642 111.077C329.549 114.264 332.867 116.113 336.055 115.206C339.242 114.299 341.091 110.981 340.184 107.793Z" fill="#9B51E0"/>
<path d="M379.184 200.771C378.277 197.584 374.958 195.735 371.771 196.642C368.584 197.549 366.735 200.868 367.642 204.055C368.549 207.242 371.868 209.091 375.055 208.184C378.242 207.277 380.091 203.958 379.184 200.771Z" fill="#9B51E0"/>
<path d="M359.184 132.771C358.277 129.584 354.958 127.735 351.771 128.642C348.584 129.549 346.735 132.868 347.642 136.055C348.549 139.242 351.868 141.091 355.055 140.184C358.242 139.277 360.091 135.958 359.184 132.771Z" fill="#9B51E0"/>
<path d="M80.1839 123.771C79.2771 120.584 75.9583 118.735 72.771 119.642C69.5838 120.549 67.7352 123.868 68.6419 127.055C69.5487 130.242 72.8676 132.091 76.0548 131.184C79.242 130.277 81.0907 126.958 80.1839 123.771Z" fill="#F7E08E"/>
<path d="M245.184 109.771C244.277 106.584 240.958 104.735 237.771 105.642C234.584 106.549 232.735 109.868 233.642 113.055C234.549 116.242 237.868 118.091 241.055 117.184C244.242 116.277 246.091 112.958 245.184 109.771Z" fill="#9B51E0"/>
<path d="M132.184 155.771C131.277 152.584 127.958 150.735 124.771 151.642C121.584 152.549 119.735 155.868 120.642 159.055C121.549 162.242 124.867 164.091 128.055 163.184C131.242 162.277 133.091 158.958 132.184 155.771Z" fill="#F7E08E"/>
<path d="M97.1839 160.771C96.2771 157.584 92.9582 155.735 89.771 156.642C86.5838 157.549 84.7351 160.868 85.6419 164.055C86.5487 167.242 89.8675 169.091 93.0548 168.184C96.242 167.277 98.0907 163.958 97.1839 160.771Z" fill="#F7E08E"/>
<path d="M74.1839 170.771C73.2771 167.584 69.9583 165.735 66.771 166.642C63.5838 167.549 61.7352 170.868 62.6419 174.055C63.5487 177.242 66.8676 179.091 70.0548 178.184C73.242 177.277 75.0907 173.958 74.1839 170.771Z" fill="#F7E08E"/>
<path d="M41.1838 143.771C40.2771 140.584 36.9582 138.735 33.771 139.642C30.5838 140.549 28.7351 143.868 29.6419 147.055C30.5487 150.242 33.8675 152.091 37.0547 151.184C40.242 150.277 42.0906 146.958 41.1838 143.771Z" fill="#F7E08E"/>
<path d="M53.4161 180.346C51.9122 177.394 48.2993 176.219 45.3465 177.723C42.3937 179.227 41.2192 182.84 42.723 185.793C44.2269 188.745 47.8398 189.92 50.7926 188.416C53.7454 186.912 54.9199 183.299 53.4161 180.346Z" fill="#F7E08E"/>
<path d="M47.1839 117.793C46.2771 114.606 42.9582 112.757 39.771 113.664C36.5838 114.571 34.7351 117.89 35.6419 121.077C36.5487 124.264 39.8675 126.113 43.0548 125.206C46.242 124.299 48.0907 120.981 47.1839 117.793Z" fill="#F7E08E"/>
<path d="M212.184 103.793C211.277 100.606 207.958 98.7575 204.771 99.6643C201.584 100.571 199.735 103.89 200.642 107.077C201.549 110.264 204.868 112.113 208.055 111.206C211.242 110.299 213.091 106.981 212.184 103.793Z" fill="#9B51E0"/>
<path d="M78.1839 40.771C77.2771 37.5838 73.9583 35.7351 70.771 36.6419C67.5838 37.5487 65.7352 40.8675 66.6419 44.0547C67.5487 47.242 70.8676 49.0906 74.0548 48.1838C77.242 47.2771 79.0907 43.9582 78.1839 40.771Z" fill="#F7E08E"/>
<path d="M243.184 26.771C242.277 23.5838 238.958 21.7351 235.771 22.6419C232.584 23.5487 230.735 26.8675 231.642 30.0547C232.549 33.242 235.868 35.0906 239.055 34.1838C242.242 33.2771 244.091 29.9582 243.184 26.771Z" fill="#9B51E0"/>
<path d="M118.184 72.771C117.277 69.5838 113.958 67.7351 110.771 68.6419C107.584 69.5487 105.735 72.8675 106.642 76.0547C107.549 79.242 110.868 81.0906 114.055 80.1838C117.242 79.2771 119.091 75.9582 118.184 72.771Z" fill="#F7E08E"/>
<path d="M271.184 94.771C270.277 91.5838 266.958 89.7351 263.771 90.6419C260.584 91.5487 258.735 94.8675 259.642 98.0547C260.549 101.242 263.867 103.091 267.055 102.184C270.242 101.277 272.091 97.9582 271.184 94.771Z" fill="#9B51E0"/>
<path d="M350.184 40.771C349.277 37.5838 345.958 35.7351 342.771 36.6419C339.584 37.5487 337.735 40.8675 338.642 44.0547C339.549 47.242 342.868 49.0906 346.055 48.1838C349.242 47.2771 351.091 43.9582 350.184 40.771Z" fill="#9B51E0"/>
<path d="M37.1839 170.771C36.2771 167.584 32.9582 165.735 29.771 166.642C26.5838 167.549 24.7351 170.868 25.6419 174.055C26.5487 177.242 29.8675 179.091 33.0548 178.184C36.242 177.277 38.0907 173.958 37.1839 170.771Z" fill="#F7E08E"/>
<path d="M162.184 44.771C161.277 41.5838 157.958 39.7351 154.771 40.6419C151.584 41.5487 149.735 44.8675 150.642 48.0547C151.549 51.242 154.867 53.0906 158.055 52.1838C161.242 51.2771 163.091 47.9582 162.184 44.771Z" fill="#F7E08E"/>
<path d="M329.184 49.771C328.277 46.5838 324.958 44.7351 321.771 45.6419C318.584 46.5487 316.735 49.8675 317.642 53.0547C318.549 56.242 321.868 58.0906 325.055 57.1838C328.242 56.2771 330.091 52.9582 329.184 49.771Z" fill="#9B51E0"/>
<path d="M40.1839 78.771C39.2771 75.5838 35.9582 73.7351 32.771 74.6419C29.5838 75.5487 27.7351 78.8675 28.6419 82.0547C29.5487 85.242 32.8675 87.0906 36.0548 86.1838C39.242 85.2771 41.0907 81.9582 40.1839 78.771Z" fill="#F7E08E"/>
<path d="M210.184 66.771C209.277 63.5838 205.958 61.7351 202.771 62.6419C199.584 63.5487 197.735 66.8675 198.642 70.0547C199.549 73.242 202.868 75.0906 206.055 74.1838C209.242 73.2771 211.091 69.9582 210.184 66.771Z" fill="#9B51E0"/>
<path d="M93.1839 57.771C92.2771 54.5838 88.9582 52.7351 85.771 53.6419C82.5838 54.5487 80.7351 57.8675 81.6419 61.0547C82.5487 64.242 85.8675 66.0906 89.0548 65.1838C92.242 64.2771 94.0907 60.9582 93.1839 57.771Z" fill="#F7E08E"/>
<path d="M258.184 43.771C257.277 40.5838 253.958 38.7351 250.771 39.6419C247.584 40.5487 245.735 43.8675 246.642 47.0547C247.549 50.242 250.868 52.0906 254.055 51.1838C257.242 50.2771 259.091 46.9582 258.184 43.771Z" fill="#9B51E0"/>
<path d="M79.1839 96.7934C78.2771 93.6062 74.9583 91.7575 71.771 92.6643C68.5838 93.5711 66.7352 96.8899 67.6419 100.077C68.5487 103.264 71.8676 105.113 75.0548 104.206C78.242 103.299 80.0907 99.9806 79.1839 96.7934Z" fill="#F7E08E"/>
<path d="M230.184 82.771C229.277 79.5838 225.958 77.7351 222.771 78.6419C219.584 79.5487 217.735 82.8675 218.642 86.0547C219.549 89.242 222.868 91.0906 226.055 90.1838C229.242 89.2771 231.091 85.9582 230.184 82.771Z" fill="#9B51E0"/>
<path d="M135.184 58.7934C134.277 55.6061 130.958 53.7575 127.771 54.6642C124.584 55.571 122.735 58.8899 123.642 62.0771C124.549 65.2643 127.868 67.113 131.055 66.2062C134.242 65.2994 136.091 61.9806 135.184 58.7934Z" fill="#F7E08E"/>
<path d="M300.184 44.7934C299.277 41.6061 295.958 39.7575 292.771 40.6642C289.584 41.571 287.735 44.8899 288.642 48.0771C289.549 51.2643 292.868 53.113 296.055 52.2062C299.242 51.2994 301.091 47.9806 300.184 44.7934Z" fill="#9B51E0"/>
<path d="M75.1839 72.2237C74.2771 69.0365 70.9583 67.1878 67.771 68.0946C64.5838 69.0014 62.7352 72.3202 63.6419 75.5074C64.5487 78.6947 67.8676 80.5433 71.0548 79.6365C74.242 78.7298 76.0907 75.4109 75.1839 72.2237Z" fill="#F7E08E"/>
<path d="M240.184 58.2237C239.277 55.0365 235.958 53.1878 232.771 54.0946C229.584 55.0014 227.735 58.3202 228.642 61.5074C229.549 64.6947 232.868 66.5433 236.055 65.6365C239.242 64.7298 241.091 61.4109 240.184 58.2237Z" fill="#9B51E0"/>
<path d="M118.184 219.771C117.277 216.584 113.958 214.735 110.771 215.642C107.584 216.549 105.735 219.868 106.642 223.055C107.549 226.242 110.868 228.091 114.055 227.184C117.242 226.277 119.091 222.958 118.184 219.771Z" fill="#C74E4E"/>
<path d="M229 232.978C229 229.664 226.314 226.978 223 226.978C219.686 226.978 217 229.664 217 232.978C217 236.291 219.686 238.978 223 238.978C226.314 238.978 229 236.291 229 232.978Z" fill="#C74E4E"/>
<path d="M157 189.022C157 185.709 154.314 183.022 151 183.022C147.686 183.022 145 185.709 145 189.022C145 192.336 147.686 195.022 151 195.022C154.314 195.022 157 192.336 157 189.022Z" fill="#C74E4E"/>
<path d="M189 159C189 155.686 186.314 153 183 153C179.686 153 177 155.686 177 159C177 162.314 179.686 165 183 165C186.314 165 189 162.314 189 159Z" fill="#C74E4E"/>
<path d="M189 184.022C189 180.709 186.314 178.022 183 178.022C179.686 178.022 177 180.709 177 184.022C177 187.336 179.686 190.022 183 190.022C186.314 190.022 189 187.336 189 184.022Z" fill="#C74E4E"/>
<path d="M207 201.022C207 197.709 204.314 195.022 201 195.022C197.686 195.022 195 197.709 195 201.022C195 204.336 197.686 207.022 201 207.022C204.314 207.022 207 204.336 207 201.022Z" fill="#C74E4E"/>
<path d="M149 210.022C149 206.709 146.314 204.022 143 204.022C139.686 204.022 137 206.709 137 210.022C137 213.336 139.686 216.022 143 216.022C146.314 216.022 149 213.336 149 210.022Z" fill="#C74E4E"/>
<path d="M56 235C56 231.686 53.3137 229 50 229C46.6863 229 44 231.686 44 235C44 238.314 46.6863 241 50 241C53.3137 241 56 238.314 56 235Z" fill="#C74E4E"/>
<path d="M228 201.022C228 197.709 225.314 195.022 222 195.022C218.686 195.022 216 197.709 216 201.022C216 204.336 218.686 207.022 222 207.022C225.314 207.022 228 204.336 228 201.022Z" fill="#C74E4E"/>
<path d="M216 180.022C216 176.709 213.314 174.022 210 174.022C206.686 174.022 204 176.709 204 180.022C204 183.336 206.686 186.022 210 186.022C213.314 186.022 216 183.336 216 180.022Z" fill="#C74E4E"/>
<path d="M279 219C279 215.686 276.314 213 273 213C269.686 213 267 215.686 267 219C267 222.314 269.686 225 273 225C276.314 225 279 222.314 279 219Z" fill="#C74E4E"/>
<path d="M240 178C240 174.686 237.314 172 234 172C230.686 172 228 174.686 228 178C228 181.314 230.686 184 234 184C237.314 184 240 181.314 240 178Z" fill="#C74E4E"/>
<path d="M114 204C114 200.686 111.314 198 108 198C104.686 198 102 200.686 102 204C102 207.314 104.686 210 108 210C111.314 210 114 207.314 114 204Z" fill="#C74E4E"/>
<path d="M285 243C285 239.686 282.314 237 279 237C275.686 237 273 239.686 273 243C273 246.314 275.686 249 279 249C282.314 249 285 246.314 285 243Z" fill="#C74E4E"/>
<path d="M93 245C93 241.686 90.3137 239 87 239C83.6863 239 81 241.686 81 245C81 248.314 83.6863 251 87 251C90.3137 251 93 248.314 93 245Z" fill="#C74E4E"/>
<path d="M258 207C258 203.686 255.314 201 252 201C248.686 201 246 203.686 246 207C246 210.314 248.686 213 252 213C255.314 213 258 210.314 258 207Z" fill="#C74E4E"/>
<path d="M262 248C262 244.686 259.314 242 256 242C252.686 242 250 244.686 250 248C250 251.314 252.686 254 256 254C259.314 254 262 251.314 262 248Z" fill="#C74E4E"/>
<path d="M201 243C201 239.686 198.314 237 195 237C191.686 237 189 239.686 189 243C189 246.314 191.686 249 195 249C198.314 249 201 246.314 201 243Z" fill="#C74E4E"/>
<path d="M206 161.022C206 157.709 203.314 155.022 200 155.022C196.686 155.022 194 157.709 194 161.022C194 164.336 196.686 167.022 200 167.022C203.314 167.022 206 164.336 206 161.022Z" fill="#C74E4E"/>
<path d="M189 214.022C189 210.709 186.314 208.022 183 208.022C179.686 208.022 177 210.709 177 214.022C177 217.336 179.686 220.022 183 220.022C186.314 220.022 189 217.336 189 214.022Z" fill="#C74E4E"/>
<path d="M176 245.022C176 241.709 173.314 239.022 170 239.022C166.686 239.022 164 241.709 164 245.022C164 248.336 166.686 251.022 170 251.022C173.314 251.022 176 248.336 176 245.022Z" fill="#C74E4E"/>
<path d="M120 249.022C120 245.709 117.314 243.022 114 243.022C110.686 243.022 108 245.709 108 249.022C108 252.336 110.686 255.022 114 255.022C117.314 255.022 120 252.336 120 249.022Z" fill="#C74E4E"/>
<path d="M164 226.022C164 222.709 161.314 220.022 158 220.022C154.686 220.022 152 222.709 152 226.022C152 229.336 154.686 232.022 158 232.022C161.314 232.022 164 229.336 164 226.022Z" fill="#C74E4E"/>
<path d="M150 245.022C150 241.709 147.314 239.022 144 239.022C140.686 239.022 138 241.709 138 245.022C138 248.336 140.686 251.022 144 251.022C147.314 251.022 150 248.336 150 245.022Z" fill="#C74E4E"/>
<path d="M246 231C246 227.686 243.314 225 240 225C236.686 225 234 227.686 234 231C234 234.314 236.686 237 240 237C243.314 237 246 234.314 246 231Z" fill="#C74E4E"/>
<path d="M86 224C86 220.686 83.3137 218 80 218C76.6863 218 74 220.686 74 224C74 227.314 76.6863 230 80 230C83.3137 230 86 227.314 86 224Z" fill="#C74E4E"/>
<path d="M184 128L364 255" stroke="#232A3D" stroke-width="3"/>
</svg>
