<svg width="492" height="336" viewBox="0 0 492 336" fill="none" xmlns="http://www.w3.org/2000/svg">
<rect width="492" height="336" fill="white"/>
<path d="M59 52V289H309" stroke="#232A3D" stroke-width="2"/>
<path d="M159 129.982C159 126.678 156.314 124 153 124C149.686 124 147 126.678 147 129.982C147 133.285 149.686 135.963 153 135.963C156.314 135.963 159 133.285 159 129.982Z" fill="#1F69FF"/>
<path d="M164.184 182.165C163.277 178.987 159.958 177.144 156.771 178.048C153.584 178.952 151.735 182.261 152.642 185.439C153.549 188.616 156.868 190.459 160.055 189.555C163.242 188.651 165.091 185.342 164.184 182.165Z" fill="#1F69FF"/>
<path d="M239.184 198.128C238.277 194.951 234.958 193.108 231.771 194.012C228.584 194.916 226.735 198.225 227.642 201.402C228.549 204.58 231.868 206.423 235.055 205.519C238.242 204.615 240.091 201.306 239.184 198.128Z" fill="#1F69FF"/>
<path d="M228.184 110.753C227.277 107.576 223.958 105.733 220.771 106.637C217.584 107.541 215.735 110.85 216.642 114.027C217.549 117.205 220.868 119.048 224.055 118.144C227.242 117.24 229.091 113.931 228.184 110.753Z" fill="#1F69FF"/>
<path d="M271.184 228.753C270.277 225.576 266.958 223.733 263.771 224.637C260.584 225.541 258.735 228.85 259.642 232.027C260.549 235.205 263.868 237.048 267.055 236.144C270.242 235.24 272.091 231.931 271.184 228.753Z" fill="#1F69FF"/>
<path d="M96.416 212.33C94.9122 209.386 91.2993 208.215 88.3465 209.715C85.3937 211.214 84.2191 214.816 85.723 217.76C87.2269 220.703 90.8397 221.874 93.7925 220.375C96.7453 218.876 97.9199 215.274 96.416 212.33Z" fill="#1F69FF"/>
<path d="M285.184 121.753C284.277 118.576 280.958 116.733 277.771 117.637C274.584 118.541 272.735 121.85 273.642 125.027C274.549 128.205 277.868 130.048 281.055 129.144C284.242 128.24 286.091 124.931 285.184 121.753Z" fill="#1F69FF"/>
<path d="M94.1838 138.753C93.2771 135.576 89.9582 133.733 86.771 134.637C83.5838 135.541 81.7351 138.85 82.6419 142.027C83.5487 145.205 86.8675 147.048 90.0547 146.144C93.242 145.24 95.0906 141.931 94.1838 138.753Z" fill="#1F69FF"/>
<path d="M192.184 219.753C191.277 216.576 187.958 214.733 184.771 215.637C181.584 216.541 179.735 219.85 180.642 223.027C181.549 226.205 184.868 228.048 188.055 227.144C191.242 226.24 193.091 222.931 192.184 219.753Z" fill="#9B51E0"/>
<path d="M131 70.9817C131 67.6781 128.314 65 125 65C121.686 65 119 67.6781 119 70.9817C119 74.2853 121.686 76.9634 125 76.9634C128.314 76.9634 131 74.2853 131 70.9817Z" fill="#9B51E0"/>
<path d="M148 220.982C148 217.678 145.314 215 142 215C138.686 215 136 217.678 136 220.982C136 224.285 138.686 226.963 142 226.963C145.314 226.963 148 224.285 148 220.982Z" fill="#9B51E0"/>
<path d="M229 70.9817C229 67.6781 226.314 65 223 65C219.686 65 217 67.6781 217 70.9817C217 74.2853 219.686 76.9634 223 76.9634C226.314 76.9634 229 74.2853 229 70.9817Z" fill="#9B51E0"/>
<path d="M112 166.982C112 163.678 109.314 161 106 161C102.686 161 100 163.678 100 166.982C100 170.285 102.686 172.963 106 172.963C109.314 172.963 112 170.285 112 166.982Z" fill="#9B51E0"/>
<path d="M253 243.982C253 240.678 250.314 238 247 238C243.686 238 241 240.678 241 243.982C241 247.285 243.686 249.963 247 249.963C250.314 249.963 253 247.285 253 243.982Z" fill="#9B51E0"/>
<path d="M114 111.982C114 108.678 111.314 106 108 106C104.686 106 102 108.678 102 111.982C102 115.285 104.686 117.963 108 117.963C111.314 117.963 114 115.285 114 111.982Z" fill="#9B51E0"/>
<path d="M255 99.9817C255 96.6781 252.314 94 249 94C245.686 94 243 96.6781 243 99.9817C243 103.285 245.686 105.963 249 105.963C252.314 105.963 255 103.285 255 99.9817Z" fill="#9B51E0"/>
<path d="M278 149.982C278 146.678 275.314 144 272 144C268.686 144 266 146.678 266 149.982C266 153.285 268.686 155.963 272 155.963C275.314 155.963 278 153.285 278 149.982Z" fill="#9B51E0"/>
<path d="M288 200.982C288 197.678 285.314 195 282 195C278.686 195 276 197.678 276 200.982C276 204.285 278.686 206.963 282 206.963C285.314 206.963 288 204.285 288 200.982Z" fill="#9B51E0"/>
<path d="M228 153.982C228 150.678 225.314 148 222 148C218.686 148 216 150.678 216 153.982C216 157.285 218.686 159.963 222 159.963C225.314 159.963 228 157.285 228 153.982Z" fill="#9B51E0"/>
<path d="M192 159.982C192 156.678 189.314 154 186 154C182.686 154 180 156.678 180 159.982C180 163.285 182.686 165.963 186 165.963C189.314 165.963 192 163.285 192 159.982Z" fill="#C74E4E"/>
<path d="M185 86.9817C185 83.6781 182.314 81 179 81C175.686 81 173 83.6781 173 86.9817C173 90.2853 175.686 92.9634 179 92.9634C182.314 92.9634 185 90.2853 185 86.9817Z" fill="#9B51E0"/>
<path d="M91 249.982C91 246.678 88.3137 244 85 244C81.6863 244 79 246.678 79 249.982C79 253.285 81.6863 255.963 85 255.963C88.3137 255.963 91 253.285 91 249.982Z" fill="#9B51E0"/>
<path d="M160 265.982C160 262.678 157.314 260 154 260C150.686 260 148 262.678 148 265.982C148 269.285 150.686 271.963 154 271.963C157.314 271.963 160 269.285 160 265.982Z" fill="#9B51E0"/>
<path d="M206 271.982C206 268.678 203.314 266 200 266C196.686 266 194 268.678 194 271.982C194 275.285 196.686 277.963 200 277.963C203.314 277.963 206 275.285 206 271.982Z" fill="#9B51E0"/>
<rect x="341.5" y="41.5" width="19" height="19" fill="#1F69FF" stroke="#232A3D"/>
<rect x="341.5" y="68.5" width="19" height="19" fill="#C74E4E" stroke="#232A3D"/>
<rect x="341.5" y="14.5" width="19" height="19" fill="#9B51E0" stroke="#232A3D"/>
<path d="M372.647 28.144C372.095 28.144 371.567 28.044 371.063 27.844C370.559 27.644 370.111 27.36 369.719 26.992L370.535 26.044C370.831 26.308 371.167 26.524 371.543 26.692C371.919 26.852 372.315 26.932 372.731 26.932C373.187 26.932 373.535 26.844 373.775 26.668C374.015 26.484 374.135 26.256 374.135 25.984C374.135 25.752 374.079 25.568 373.967 25.432C373.855 25.288 373.699 25.168 373.499 25.072C373.307 24.976 373.079 24.876 372.815 24.772L371.747 24.304C371.475 24.192 371.207 24.048 370.943 23.872C370.687 23.696 370.475 23.472 370.307 23.2C370.147 22.928 370.067 22.6 370.067 22.216C370.067 21.8 370.183 21.428 370.415 21.1C370.647 20.764 370.967 20.5 371.375 20.308C371.791 20.108 372.263 20.008 372.791 20.008C373.271 20.008 373.727 20.1 374.159 20.284C374.599 20.46 374.983 20.7 375.311 21.004L374.591 21.892C374.327 21.676 374.047 21.512 373.751 21.4C373.463 21.28 373.119 21.22 372.719 21.22C372.351 21.22 372.051 21.3 371.819 21.46C371.587 21.62 371.471 21.848 371.471 22.144C371.471 22.344 371.535 22.508 371.663 22.636C371.791 22.764 371.955 22.876 372.155 22.972C372.363 23.068 372.583 23.16 372.815 23.248L373.847 23.692C374.183 23.82 374.479 23.976 374.735 24.16C374.991 24.344 375.191 24.572 375.335 24.844C375.479 25.108 375.551 25.432 375.551 25.816C375.551 26.24 375.435 26.628 375.203 26.98C374.971 27.332 374.639 27.616 374.207 27.832C373.775 28.04 373.255 28.144 372.647 28.144ZM379.027 28.144C378.339 28.144 377.839 27.936 377.527 27.52C377.215 27.104 377.059 26.516 377.059 25.756V22.108H378.439V25.576C378.439 26.048 378.519 26.396 378.679 26.62C378.847 26.844 379.135 26.956 379.543 26.956C379.815 26.956 380.063 26.892 380.287 26.764C380.519 26.628 380.763 26.4 381.019 26.08V22.108H382.399V28H381.271L381.163 27.064H381.115C380.835 27.384 380.527 27.644 380.191 27.844C379.855 28.044 379.467 28.144 379.027 28.144ZM387.362 28.144C387.082 28.144 386.79 28.076 386.486 27.94C386.19 27.804 385.91 27.608 385.646 27.352H385.61L385.49 28H384.398V19.528H385.79V21.712L385.73 22.744H385.766C386.014 22.504 386.294 22.316 386.606 22.18C386.926 22.036 387.246 21.964 387.566 21.964C388.078 21.964 388.51 22.088 388.862 22.336C389.222 22.584 389.498 22.932 389.69 23.38C389.882 23.82 389.978 24.344 389.978 24.952C389.978 25.624 389.854 26.2 389.606 26.68C389.358 27.152 389.034 27.516 388.634 27.772C388.242 28.02 387.818 28.144 387.362 28.144ZM387.086 27.004C387.358 27.004 387.606 26.928 387.83 26.776C388.054 26.624 388.23 26.4 388.358 26.104C388.486 25.8 388.55 25.424 388.55 24.976C388.55 24.584 388.502 24.248 388.406 23.968C388.31 23.688 388.162 23.476 387.962 23.332C387.77 23.18 387.51 23.104 387.182 23.104C386.958 23.104 386.73 23.16 386.498 23.272C386.266 23.384 386.03 23.564 385.79 23.812V26.464C386.006 26.656 386.23 26.796 386.462 26.884C386.694 26.964 386.902 27.004 387.086 27.004ZM394.245 28.144C393.693 28.144 393.165 28.056 392.661 27.88C392.157 27.696 391.721 27.48 391.353 27.232L391.953 26.356C392.305 26.588 392.685 26.772 393.093 26.908C393.501 27.036 393.945 27.1 394.425 27.1C394.833 27.1 395.133 27.032 395.325 26.896C395.525 26.752 395.625 26.584 395.625 26.392C395.625 26.296 395.601 26.208 395.553 26.128C395.513 26.048 395.437 25.976 395.325 25.912C395.213 25.84 395.049 25.772 394.833 25.708C394.617 25.644 394.337 25.576 393.993 25.504C393.209 25.336 392.633 25.108 392.265 24.82C391.897 24.532 391.713 24.168 391.713 23.728C391.713 23.208 391.937 22.784 392.385 22.456C392.841 22.128 393.481 21.964 394.305 21.964C394.793 21.964 395.249 22.044 395.673 22.204C396.105 22.364 396.469 22.544 396.765 22.744L396.129 23.596C395.849 23.404 395.541 23.26 395.205 23.164C394.869 23.06 394.529 23.008 394.185 23.008C393.921 23.008 393.709 23.036 393.549 23.092C393.397 23.148 393.281 23.228 393.201 23.332C393.129 23.428 393.093 23.536 393.093 23.656C393.093 23.864 393.213 24.02 393.453 24.124C393.693 24.228 394.085 24.34 394.629 24.46C395.261 24.596 395.749 24.752 396.093 24.928C396.437 25.096 396.673 25.292 396.801 25.516C396.937 25.732 397.005 26 397.005 26.32C397.005 26.656 396.897 26.964 396.681 27.244C396.473 27.516 396.165 27.736 395.757 27.904C395.349 28.064 394.845 28.144 394.245 28.144ZM401.933 28.144C401.317 28.144 400.761 28.024 400.265 27.784C399.777 27.536 399.389 27.184 399.101 26.728C398.821 26.264 398.681 25.708 398.681 25.06C398.681 24.404 398.833 23.848 399.137 23.392C399.449 22.928 399.861 22.576 400.373 22.336C400.885 22.088 401.437 21.964 402.029 21.964C402.509 21.964 402.933 22.044 403.301 22.204C403.669 22.356 403.973 22.552 404.213 22.792L403.553 23.656C403.321 23.472 403.085 23.332 402.845 23.236C402.613 23.14 402.365 23.092 402.101 23.092C401.709 23.092 401.361 23.176 401.057 23.344C400.761 23.504 400.529 23.732 400.361 24.028C400.193 24.324 400.109 24.668 400.109 25.06C400.109 25.452 400.189 25.796 400.349 26.092C400.517 26.388 400.745 26.616 401.033 26.776C401.329 26.936 401.673 27.016 402.065 27.016C402.401 27.016 402.709 26.952 402.989 26.824C403.269 26.696 403.521 26.544 403.745 26.368L404.321 27.256C403.985 27.544 403.609 27.764 403.193 27.916C402.777 28.068 402.357 28.144 401.933 28.144ZM406.56 28V22.108H407.7L407.82 23.44H407.856C408.152 22.96 408.516 22.596 408.948 22.348C409.388 22.092 409.86 21.964 410.364 21.964C410.604 21.964 410.812 21.984 410.988 22.024C411.164 22.064 411.336 22.124 411.504 22.204L411.216 23.368C411.024 23.304 410.852 23.26 410.7 23.236C410.556 23.204 410.372 23.188 410.148 23.188C409.748 23.188 409.356 23.304 408.972 23.536C408.596 23.768 408.256 24.172 407.952 24.748V28H406.56ZM415.759 28V23.2H413.203V22.108H417.139V28H415.759ZM416.347 21.028C416.067 21.028 415.831 20.944 415.639 20.776C415.455 20.608 415.363 20.384 415.363 20.104C415.363 19.824 415.455 19.6 415.639 19.432C415.831 19.256 416.067 19.168 416.347 19.168C416.635 19.168 416.871 19.256 417.055 19.432C417.239 19.6 417.331 19.824 417.331 20.104C417.331 20.384 417.239 20.608 417.055 20.776C416.871 20.944 416.635 21.028 416.347 21.028ZM423.339 28.144C423.059 28.144 422.767 28.076 422.463 27.94C422.167 27.804 421.887 27.608 421.623 27.352H421.587L421.467 28H420.375V19.528H421.767V21.712L421.707 22.744H421.743C421.991 22.504 422.271 22.316 422.583 22.18C422.903 22.036 423.223 21.964 423.543 21.964C424.055 21.964 424.487 22.088 424.839 22.336C425.199 22.584 425.475 22.932 425.667 23.38C425.859 23.82 425.955 24.344 425.955 24.952C425.955 25.624 425.831 26.2 425.583 26.68C425.335 27.152 425.011 27.516 424.611 27.772C424.219 28.02 423.795 28.144 423.339 28.144ZM423.063 27.004C423.335 27.004 423.583 26.928 423.807 26.776C424.031 26.624 424.207 26.4 424.335 26.104C424.463 25.8 424.527 25.424 424.527 24.976C424.527 24.584 424.479 24.248 424.383 23.968C424.287 23.688 424.139 23.476 423.939 23.332C423.747 23.18 423.487 23.104 423.159 23.104C422.935 23.104 422.707 23.16 422.475 23.272C422.243 23.384 422.007 23.564 421.767 23.812V26.464C421.983 26.656 422.207 26.796 422.439 26.884C422.671 26.964 422.879 27.004 423.063 27.004ZM430.546 28.144C429.946 28.144 429.402 28.024 428.914 27.784C428.426 27.536 428.038 27.184 427.75 26.728C427.462 26.264 427.318 25.704 427.318 25.048C427.318 24.408 427.462 23.86 427.75 23.404C428.038 22.94 428.414 22.584 428.878 22.336C429.342 22.088 429.838 21.964 430.366 21.964C430.95 21.964 431.442 22.084 431.842 22.324C432.25 22.564 432.558 22.896 432.766 23.32C432.982 23.736 433.09 24.216 433.09 24.76C433.09 24.896 433.082 25.028 433.066 25.156C433.058 25.276 433.046 25.376 433.03 25.456H428.314V24.472H432.142L431.878 24.784C431.878 24.2 431.746 23.764 431.482 23.476C431.226 23.18 430.866 23.032 430.402 23.032C430.074 23.032 429.778 23.108 429.514 23.26C429.258 23.412 429.054 23.64 428.902 23.944C428.75 24.24 428.674 24.608 428.674 25.048C428.674 25.504 428.758 25.88 428.926 26.176C429.102 26.472 429.342 26.696 429.646 26.848C429.958 27 430.318 27.076 430.726 27.076C431.038 27.076 431.326 27.032 431.59 26.944C431.854 26.856 432.118 26.736 432.382 26.584L432.85 27.448C432.538 27.648 432.186 27.816 431.794 27.952C431.402 28.08 430.986 28.144 430.546 28.144ZM436.937 28.144C436.185 28.144 435.577 27.872 435.113 27.328C434.649 26.784 434.417 26.028 434.417 25.06C434.417 24.42 434.541 23.868 434.789 23.404C435.037 22.94 435.361 22.584 435.761 22.336C436.161 22.088 436.581 21.964 437.021 21.964C437.357 21.964 437.653 22.024 437.909 22.144C438.173 22.264 438.417 22.436 438.641 22.66H438.677L438.605 21.664V19.528H439.997V28H438.857L438.749 27.316H438.713C438.489 27.54 438.221 27.736 437.909 27.904C437.597 28.064 437.273 28.144 436.937 28.144ZM437.273 27.004C437.513 27.004 437.745 26.948 437.969 26.836C438.193 26.716 438.405 26.536 438.605 26.296V23.644C438.397 23.444 438.189 23.304 437.981 23.224C437.773 23.144 437.561 23.104 437.345 23.104C437.073 23.104 436.821 23.18 436.589 23.332C436.365 23.484 436.185 23.704 436.049 23.992C435.913 24.28 435.845 24.632 435.845 25.048C435.845 25.68 435.969 26.164 436.217 26.5C436.473 26.836 436.825 27.004 437.273 27.004Z" fill="#9B51E0"/>
<path d="M321.429 293L324.821 282.536H326.997L330.389 293H328.421L326.837 287.432C326.688 286.877 326.528 286.307 326.357 285.72C326.197 285.133 326.048 284.552 325.909 283.976H325.845C325.696 284.552 325.541 285.133 325.381 285.72C325.232 286.307 325.077 286.877 324.917 287.432L323.317 293H321.429ZM323.429 290.168V288.712H328.341V290.168H323.429ZM335.279 296.472C334.554 296.472 333.924 296.392 333.391 296.232C332.858 296.083 332.442 295.853 332.143 295.544C331.844 295.235 331.695 294.845 331.695 294.376C331.695 294.067 331.802 293.768 332.015 293.48C332.228 293.192 332.538 292.941 332.943 292.728V292.664C332.74 292.536 332.554 292.371 332.383 292.168C332.223 291.955 332.143 291.683 332.143 291.352C332.143 291.096 332.228 290.835 332.399 290.568C332.57 290.301 332.799 290.072 333.087 289.88V289.816C332.81 289.613 332.57 289.341 332.367 289C332.175 288.648 332.079 288.243 332.079 287.784C332.079 287.176 332.228 286.664 332.527 286.248C332.826 285.821 333.22 285.501 333.711 285.288C334.202 285.064 334.735 284.952 335.311 284.952C335.78 284.952 336.191 285.016 336.543 285.144H339.759V286.552H337.951C338.09 286.701 338.207 286.893 338.303 287.128C338.41 287.352 338.463 287.592 338.463 287.848C338.463 288.424 338.319 288.915 338.031 289.32C337.754 289.715 337.38 290.013 336.911 290.216C336.442 290.419 335.908 290.52 335.311 290.52C335.13 290.52 334.932 290.504 334.719 290.472C334.516 290.429 334.314 290.371 334.111 290.296C333.951 290.392 333.828 290.499 333.743 290.616C333.668 290.733 333.631 290.872 333.631 291.032C333.631 291.277 333.754 291.464 333.999 291.592C334.255 291.709 334.628 291.768 335.119 291.768H336.719C337.743 291.768 338.511 291.917 339.023 292.216C339.546 292.504 339.807 292.995 339.807 293.688C339.807 294.2 339.62 294.669 339.247 295.096C338.884 295.523 338.362 295.859 337.679 296.104C337.007 296.349 336.207 296.472 335.279 296.472ZM335.311 289.352C335.588 289.352 335.839 289.293 336.063 289.176C336.287 289.048 336.463 288.867 336.591 288.632C336.73 288.397 336.799 288.115 336.799 287.784C336.799 287.464 336.73 287.192 336.591 286.968C336.463 286.733 336.287 286.552 336.063 286.424C335.839 286.296 335.588 286.232 335.311 286.232C335.044 286.232 334.799 286.296 334.575 286.424C334.351 286.552 334.17 286.733 334.031 286.968C333.892 287.192 333.823 287.464 333.823 287.784C333.823 288.115 333.892 288.397 334.031 288.632C334.17 288.867 334.351 289.048 334.575 289.176C334.799 289.293 335.044 289.352 335.311 289.352ZM335.503 295.256C336.015 295.256 336.458 295.197 336.831 295.08C337.215 294.963 337.508 294.808 337.711 294.616C337.924 294.424 338.031 294.216 338.031 293.992C338.031 293.683 337.898 293.475 337.631 293.368C337.375 293.272 336.98 293.224 336.447 293.224H335.199C334.943 293.224 334.719 293.213 334.527 293.192C334.335 293.171 334.159 293.144 333.999 293.112C333.722 293.272 333.524 293.437 333.407 293.608C333.29 293.779 333.231 293.955 333.231 294.136C333.231 294.488 333.428 294.76 333.823 294.952C334.218 295.155 334.778 295.256 335.503 295.256ZM345.577 293.192C344.777 293.192 344.052 293.032 343.401 292.712C342.75 292.381 342.233 291.912 341.849 291.304C341.465 290.685 341.273 289.939 341.273 289.064C341.273 288.211 341.465 287.48 341.849 286.872C342.233 286.253 342.734 285.779 343.353 285.448C343.972 285.117 344.633 284.952 345.337 284.952C346.116 284.952 346.772 285.112 347.305 285.432C347.849 285.752 348.26 286.195 348.537 286.76C348.825 287.315 348.969 287.955 348.969 288.68C348.969 288.861 348.958 289.037 348.937 289.208C348.926 289.368 348.91 289.501 348.889 289.608H342.601V288.296H347.705L347.353 288.712C347.353 287.933 347.177 287.352 346.825 286.968C346.484 286.573 346.004 286.376 345.385 286.376C344.948 286.376 344.553 286.477 344.201 286.68C343.86 286.883 343.588 287.187 343.385 287.592C343.182 287.987 343.081 288.477 343.081 289.064C343.081 289.672 343.193 290.173 343.417 290.568C343.652 290.963 343.972 291.261 344.377 291.464C344.793 291.667 345.273 291.768 345.817 291.768C346.233 291.768 346.617 291.709 346.969 291.592C347.321 291.475 347.673 291.315 348.025 291.112L348.649 292.264C348.233 292.531 347.764 292.755 347.241 292.936C346.718 293.107 346.164 293.192 345.577 293.192Z" fill="#232A3D"/>
<path d="M26.789 40.192C26.1383 40.192 25.525 40.0747 24.949 39.84C24.3837 39.6053 23.8823 39.2587 23.445 38.8C23.0183 38.3413 22.6823 37.776 22.437 37.104C22.2023 36.432 22.085 35.664 22.085 34.8C22.085 33.6587 22.293 32.6827 22.709 31.872C23.1357 31.0507 23.7117 30.4267 24.437 30C25.173 29.5627 25.9997 29.344 26.917 29.344C27.5677 29.344 28.149 29.4773 28.661 29.744C29.173 30.0107 29.589 30.3147 29.909 30.656L28.885 31.808C28.629 31.5413 28.341 31.3333 28.021 31.184C27.701 31.0347 27.333 30.96 26.917 30.96C26.341 30.96 25.829 31.1147 25.381 31.424C24.9437 31.7227 24.6023 32.1547 24.357 32.72C24.1117 33.2853 23.989 33.9627 23.989 34.752C23.989 35.5413 24.1117 36.224 24.357 36.8C24.6023 37.376 24.949 37.8187 25.397 38.128C25.845 38.4267 26.3677 38.576 26.965 38.576C27.4023 38.576 27.7917 38.4853 28.133 38.304C28.4743 38.112 28.7943 37.856 29.093 37.536L30.117 38.672C29.701 39.1627 29.2157 39.5413 28.661 39.808C28.1063 40.064 27.4823 40.192 26.789 40.192ZM34.4788 40.192C33.9668 40.192 33.5134 40.096 33.1188 39.904C32.7241 39.7013 32.4148 39.4293 32.1908 39.088C31.9668 38.7467 31.8548 38.3467 31.8548 37.888C31.8548 37.0133 32.2708 36.3467 33.1028 35.888C33.9454 35.4187 35.3374 35.1147 37.2788 34.976C37.2574 34.688 37.1774 34.4267 37.0388 34.192C36.9108 33.9573 36.7134 33.776 36.4468 33.648C36.1801 33.5093 35.8334 33.44 35.4068 33.44C35.1081 33.44 34.8148 33.4773 34.5268 33.552C34.2388 33.6267 33.9508 33.728 33.6628 33.856C33.3854 33.984 33.1081 34.1227 32.8307 34.272L32.1588 33.04C32.4788 32.848 32.8308 32.672 33.2148 32.512C33.5988 32.3413 34.0041 32.208 34.4308 32.112C34.8574 32.0053 35.2948 31.952 35.7428 31.952C36.4788 31.952 37.0921 32.0853 37.5828 32.352C38.0841 32.608 38.4628 32.992 38.7188 33.504C38.9854 34.0053 39.1188 34.6187 39.1188 35.344V40H37.6148L37.4708 39.024H37.4228C37.0068 39.344 36.5428 39.6213 36.0308 39.856C35.5294 40.08 35.0121 40.192 34.4788 40.192ZM35.0388 38.752C35.4334 38.752 35.8121 38.6667 36.1748 38.496C36.5481 38.3147 36.9161 38.08 37.2788 37.792V36.128C36.3401 36.192 35.6041 36.2987 35.0708 36.448C34.5374 36.5867 34.1641 36.768 33.9508 36.992C33.7374 37.216 33.6308 37.4667 33.6308 37.744C33.6308 37.9787 33.6948 38.1707 33.8228 38.32C33.9508 38.4693 34.1161 38.5813 34.3188 38.656C34.5321 38.72 34.7721 38.752 35.0388 38.752ZM41.0485 40V32.144H42.4725L42.6165 33.136H42.6645C42.8352 32.7947 43.0538 32.512 43.3205 32.288C43.5872 32.064 43.9498 31.952 44.4085 31.952C44.7712 31.952 45.0752 32.064 45.3205 32.288C45.5658 32.5013 45.7365 32.8267 45.8325 33.264C46.0138 32.88 46.2432 32.5653 46.5205 32.32C46.7978 32.0747 47.1658 31.952 47.6245 31.952C48.1792 31.952 48.6058 32.1707 48.9045 32.608C49.2138 33.0347 49.3685 33.6427 49.3685 34.432V40H47.5925V34.56C47.5925 33.8667 47.3845 33.52 46.9685 33.52C46.7552 33.52 46.5738 33.6 46.4245 33.76C46.2858 33.92 46.1365 34.1707 45.9765 34.512V40H44.4405V34.56C44.4405 34.2187 44.3925 33.9627 44.2965 33.792C44.2005 33.6107 44.0405 33.52 43.8165 33.52C43.6138 33.52 43.4378 33.6 43.2885 33.76C43.1392 33.92 42.9898 34.1707 42.8405 34.512V40H41.0485ZM51.2183 43.104V32.144H52.7383L52.8823 33.04H52.9303C53.2716 32.72 53.6609 32.4587 54.0983 32.256C54.5463 32.0533 54.9943 31.952 55.4423 31.952C56.1356 31.952 56.7169 32.1173 57.1863 32.448C57.6556 32.7787 58.0183 33.2427 58.2743 33.84C58.5303 34.4373 58.6583 35.1413 58.6583 35.952C58.6583 36.848 58.4929 37.6107 58.1623 38.24C57.8316 38.8693 57.3996 39.3547 56.8663 39.696C56.3436 40.0267 55.7783 40.192 55.1703 40.192C54.8183 40.192 54.4503 40.112 54.0663 39.952C53.6929 39.792 53.3463 39.5627 53.0263 39.264H52.9783L53.0743 40.64V43.104H51.2183ZM54.7863 38.672C55.1596 38.672 55.4956 38.5707 55.7943 38.368C56.0929 38.1653 56.3276 37.8667 56.4983 37.472C56.6689 37.0667 56.7543 36.5653 56.7543 35.968C56.7543 35.4453 56.6903 34.9973 56.5623 34.624C56.4343 34.2507 56.2369 33.968 55.9703 33.776C55.7143 33.5733 55.3676 33.472 54.9303 33.472C54.6316 33.472 54.3276 33.5467 54.0182 33.696C53.7089 33.8453 53.3943 34.0853 53.0743 34.416V37.952C53.3623 38.208 53.6609 38.3947 53.9703 38.512C54.2796 38.6187 54.5516 38.672 54.7863 38.672ZM63.26 40.192C62.748 40.192 62.2947 40.096 61.9 39.904C61.5053 39.7013 61.196 39.4293 60.972 39.088C60.748 38.7467 60.636 38.3467 60.636 37.888C60.636 37.0133 61.052 36.3467 61.884 35.888C62.7267 35.4187 64.1187 35.1147 66.06 34.976C66.0387 34.688 65.9587 34.4267 65.82 34.192C65.692 33.9573 65.4947 33.776 65.228 33.648C64.9613 33.5093 64.6147 33.44 64.188 33.44C63.8893 33.44 63.596 33.4773 63.308 33.552C63.02 33.6267 62.732 33.728 62.444 33.856C62.1667 33.984 61.8893 34.1227 61.612 34.272L60.94 33.04C61.26 32.848 61.612 32.672 61.996 32.512C62.38 32.3413 62.7853 32.208 63.212 32.112C63.6387 32.0053 64.076 31.952 64.524 31.952C65.26 31.952 65.8733 32.0853 66.364 32.352C66.8653 32.608 67.244 32.992 67.5 33.504C67.7667 34.0053 67.9 34.6187 67.9 35.344V40H66.396L66.252 39.024H66.204C65.788 39.344 65.324 39.6213 64.812 39.856C64.3107 40.08 63.7933 40.192 63.26 40.192ZM63.82 38.752C64.2147 38.752 64.5933 38.6667 64.956 38.496C65.3293 38.3147 65.6973 38.08 66.06 37.792V36.128C65.1213 36.192 64.3853 36.2987 63.852 36.448C63.3187 36.5867 62.9453 36.768 62.732 36.992C62.5187 37.216 62.412 37.4667 62.412 37.744C62.412 37.9787 62.476 38.1707 62.604 38.32C62.732 38.4693 62.8973 38.5813 63.1 38.656C63.3133 38.72 63.5533 38.752 63.82 38.752ZM73.8458 40V33.6H70.4378V32.144H75.6858V40H73.8458ZM74.6298 30.704C74.2564 30.704 73.9418 30.592 73.6858 30.368C73.4404 30.144 73.3177 29.8453 73.3177 29.472C73.3177 29.0987 73.4404 28.8 73.6858 28.576C73.9418 28.3413 74.2564 28.224 74.6298 28.224C75.0138 28.224 75.3284 28.3413 75.5738 28.576C75.8191 28.8 75.9418 29.0987 75.9418 29.472C75.9418 29.8453 75.8191 30.144 75.5738 30.368C75.3284 30.592 75.0138 30.704 74.6298 30.704ZM83.2635 43.472C82.5382 43.472 81.9088 43.392 81.3755 43.232C80.8422 43.0827 80.4262 42.8533 80.1275 42.544C79.8288 42.2347 79.6795 41.8453 79.6795 41.376C79.6795 41.0667 79.7862 40.768 79.9995 40.48C80.2128 40.192 80.5222 39.9413 80.9275 39.728V39.664C80.7248 39.536 80.5382 39.3707 80.3675 39.168C80.2075 38.9547 80.1275 38.6827 80.1275 38.352C80.1275 38.096 80.2128 37.8347 80.3835 37.568C80.5542 37.3013 80.7835 37.072 81.0715 36.88V36.816C80.7942 36.6133 80.5542 36.3413 80.3515 36C80.1595 35.648 80.0635 35.2427 80.0635 34.784C80.0635 34.176 80.2128 33.664 80.5115 33.248C80.8102 32.8213 81.2048 32.5013 81.6955 32.288C82.1862 32.064 82.7195 31.952 83.2955 31.952C83.7648 31.952 84.1755 32.016 84.5275 32.144H87.7435V33.552H85.9355C86.0742 33.7013 86.1915 33.8933 86.2875 34.128C86.3942 34.352 86.4475 34.592 86.4475 34.848C86.4475 35.424 86.3035 35.9147 86.0155 36.32C85.7382 36.7147 85.3648 37.0133 84.8955 37.216C84.4262 37.4187 83.8928 37.52 83.2955 37.52C83.1142 37.52 82.9168 37.504 82.7035 37.472C82.5008 37.4293 82.2982 37.3707 82.0955 37.296C81.9355 37.392 81.8128 37.4987 81.7275 37.616C81.6528 37.7333 81.6155 37.872 81.6155 38.032C81.6155 38.2773 81.7382 38.464 81.9835 38.592C82.2395 38.7093 82.6128 38.768 83.1035 38.768H84.7035C85.7275 38.768 86.4955 38.9173 87.0075 39.216C87.5302 39.504 87.7915 39.9947 87.7915 40.688C87.7915 41.2 87.6048 41.6693 87.2315 42.096C86.8688 42.5227 86.3462 42.8587 85.6635 43.104C84.9915 43.3493 84.1915 43.472 83.2635 43.472ZM83.2955 36.352C83.5728 36.352 83.8235 36.2933 84.0475 36.176C84.2715 36.048 84.4475 35.8667 84.5755 35.632C84.7142 35.3973 84.7835 35.1147 84.7835 34.784C84.7835 34.464 84.7142 34.192 84.5755 33.968C84.4475 33.7333 84.2715 33.552 84.0475 33.424C83.8235 33.296 83.5728 33.232 83.2955 33.232C83.0288 33.232 82.7835 33.296 82.5595 33.424C82.3355 33.552 82.1542 33.7333 82.0155 33.968C81.8768 34.192 81.8075 34.464 81.8075 34.784C81.8075 35.1147 81.8768 35.3973 82.0155 35.632C82.1542 35.8667 82.3355 36.048 82.5595 36.176C82.7835 36.2933 83.0288 36.352 83.2955 36.352ZM83.4875 42.256C83.9995 42.256 84.4422 42.1973 84.8155 42.08C85.1995 41.9627 85.4928 41.808 85.6955 41.616C85.9088 41.424 86.0155 41.216 86.0155 40.992C86.0155 40.6827 85.8822 40.4747 85.6155 40.368C85.3595 40.272 84.9648 40.224 84.4315 40.224H83.1835C82.9275 40.224 82.7035 40.2133 82.5115 40.192C82.3195 40.1707 82.1435 40.144 81.9835 40.112C81.7062 40.272 81.5088 40.4373 81.3915 40.608C81.2742 40.7787 81.2155 40.9547 81.2155 41.136C81.2155 41.488 81.4128 41.76 81.8075 41.952C82.2022 42.1547 82.7622 42.256 83.4875 42.256ZM89.5933 40V32.144H91.1133L91.2573 33.328H91.3213C91.6946 32.944 92.1053 32.6187 92.5533 32.352C93.0119 32.0853 93.5453 31.952 94.1533 31.952C95.0599 31.952 95.7266 32.2293 96.1533 32.784C96.5799 33.3387 96.7933 34.1227 96.7933 35.136V40H94.9373V35.376C94.9373 34.7467 94.8253 34.2827 94.6013 33.984C94.3773 33.6853 93.9986 33.536 93.4653 33.536C93.0813 33.536 92.7399 33.6267 92.4413 33.808C92.1426 33.9893 91.8119 34.2667 91.4493 34.64V40H89.5933Z" fill="#232A3D"/>
<path d="M370.021 57V49.152H371.485L373.561 53.556L374.269 55.236H374.305C374.281 54.836 374.241 54.4 374.185 53.928C374.137 53.456 374.113 53 374.113 52.56V49.152H375.445V57H373.981L371.905 52.584L371.197 50.916H371.161C371.185 51.332 371.221 51.772 371.269 52.236C371.325 52.692 371.353 53.136 371.353 53.568V57H370.021ZM379.928 57.144C379.408 57.144 378.924 57.024 378.476 56.784C378.028 56.536 377.664 56.184 377.384 55.728C377.104 55.264 376.964 54.708 376.964 54.06C376.964 53.404 377.104 52.848 377.384 52.392C377.664 51.928 378.028 51.576 378.476 51.336C378.924 51.088 379.408 50.964 379.928 50.964C380.448 50.964 380.932 51.088 381.38 51.336C381.828 51.576 382.192 51.928 382.472 52.392C382.752 52.848 382.892 53.404 382.892 54.06C382.892 54.708 382.752 55.264 382.472 55.728C382.192 56.184 381.828 56.536 381.38 56.784C380.932 57.024 380.448 57.144 379.928 57.144ZM379.928 56.016C380.248 56.016 380.524 55.936 380.756 55.776C380.988 55.616 381.164 55.388 381.284 55.092C381.404 54.796 381.464 54.452 381.464 54.06C381.464 53.668 381.404 53.324 381.284 53.028C381.164 52.732 380.988 52.504 380.756 52.344C380.524 52.176 380.248 52.092 379.928 52.092C379.608 52.092 379.332 52.176 379.1 52.344C378.876 52.504 378.7 52.732 378.572 53.028C378.452 53.324 378.392 53.668 378.392 54.06C378.392 54.452 378.452 54.796 378.572 55.092C378.7 55.388 378.876 55.616 379.1 55.776C379.332 55.936 379.608 56.016 379.928 56.016ZM388.215 57.144C387.615 57.144 387.139 57.04 386.787 56.832C386.435 56.616 386.183 56.32 386.031 55.944C385.879 55.568 385.803 55.132 385.803 54.636V52.2H384.231V51.168L385.863 51.108L386.043 49.26H387.183V51.108H389.871V52.2H387.183V54.624C387.183 54.944 387.227 55.212 387.315 55.428C387.403 55.636 387.547 55.792 387.747 55.896C387.947 55.992 388.211 56.04 388.539 56.04C388.795 56.04 389.027 56.02 389.235 55.98C389.443 55.94 389.643 55.884 389.835 55.812L390.099 56.808C389.835 56.896 389.551 56.972 389.247 57.036C388.943 57.108 388.599 57.144 388.215 57.144ZM401.538 57.144C400.986 57.144 400.458 57.044 399.954 56.844C399.45 56.644 399.002 56.36 398.61 55.992L399.426 55.044C399.722 55.308 400.058 55.524 400.434 55.692C400.81 55.852 401.206 55.932 401.622 55.932C402.078 55.932 402.426 55.844 402.666 55.668C402.906 55.484 403.026 55.256 403.026 54.984C403.026 54.752 402.97 54.568 402.858 54.432C402.746 54.288 402.59 54.168 402.39 54.072C402.198 53.976 401.97 53.876 401.706 53.772L400.638 53.304C400.366 53.192 400.098 53.048 399.834 52.872C399.578 52.696 399.366 52.472 399.198 52.2C399.038 51.928 398.958 51.6 398.958 51.216C398.958 50.8 399.074 50.428 399.306 50.1C399.538 49.764 399.858 49.5 400.266 49.308C400.682 49.108 401.154 49.008 401.682 49.008C402.162 49.008 402.618 49.1 403.05 49.284C403.49 49.46 403.874 49.7 404.202 50.004L403.482 50.892C403.218 50.676 402.938 50.512 402.642 50.4C402.354 50.28 402.01 50.22 401.61 50.22C401.242 50.22 400.942 50.3 400.71 50.46C400.478 50.62 400.362 50.848 400.362 51.144C400.362 51.344 400.426 51.508 400.554 51.636C400.682 51.764 400.846 51.876 401.046 51.972C401.254 52.068 401.474 52.16 401.706 52.248L402.738 52.692C403.074 52.82 403.37 52.976 403.626 53.16C403.882 53.344 404.082 53.572 404.226 53.844C404.37 54.108 404.442 54.432 404.442 54.816C404.442 55.24 404.326 55.628 404.094 55.98C403.862 56.332 403.53 56.616 403.098 56.832C402.666 57.04 402.146 57.144 401.538 57.144ZM407.917 57.144C407.229 57.144 406.729 56.936 406.417 56.52C406.105 56.104 405.949 55.516 405.949 54.756V51.108H407.329V54.576C407.329 55.048 407.409 55.396 407.569 55.62C407.737 55.844 408.025 55.956 408.433 55.956C408.705 55.956 408.953 55.892 409.177 55.764C409.409 55.628 409.653 55.4 409.909 55.08V51.108H411.289V57H410.161L410.053 56.064H410.005C409.725 56.384 409.417 56.644 409.081 56.844C408.745 57.044 408.357 57.144 407.917 57.144ZM416.253 57.144C415.973 57.144 415.681 57.076 415.377 56.94C415.081 56.804 414.801 56.608 414.537 56.352H414.501L414.381 57H413.289V48.528H414.681V50.712L414.621 51.744H414.657C414.905 51.504 415.185 51.316 415.497 51.18C415.817 51.036 416.137 50.964 416.457 50.964C416.969 50.964 417.401 51.088 417.753 51.336C418.113 51.584 418.389 51.932 418.581 52.38C418.773 52.82 418.869 53.344 418.869 53.952C418.869 54.624 418.745 55.2 418.497 55.68C418.249 56.152 417.925 56.516 417.525 56.772C417.133 57.02 416.709 57.144 416.253 57.144ZM415.977 56.004C416.249 56.004 416.497 55.928 416.721 55.776C416.945 55.624 417.121 55.4 417.249 55.104C417.377 54.8 417.441 54.424 417.441 53.976C417.441 53.584 417.393 53.248 417.297 52.968C417.201 52.688 417.053 52.476 416.853 52.332C416.661 52.18 416.401 52.104 416.073 52.104C415.849 52.104 415.621 52.16 415.389 52.272C415.157 52.384 414.921 52.564 414.681 52.812V55.464C414.897 55.656 415.121 55.796 415.353 55.884C415.585 55.964 415.793 56.004 415.977 56.004ZM423.136 57.144C422.584 57.144 422.056 57.056 421.552 56.88C421.048 56.696 420.612 56.48 420.244 56.232L420.844 55.356C421.196 55.588 421.576 55.772 421.984 55.908C422.392 56.036 422.836 56.1 423.316 56.1C423.724 56.1 424.024 56.032 424.216 55.896C424.416 55.752 424.516 55.584 424.516 55.392C424.516 55.296 424.492 55.208 424.444 55.128C424.404 55.048 424.328 54.976 424.216 54.912C424.104 54.84 423.94 54.772 423.724 54.708C423.508 54.644 423.228 54.576 422.884 54.504C422.1 54.336 421.524 54.108 421.156 53.82C420.788 53.532 420.604 53.168 420.604 52.728C420.604 52.208 420.828 51.784 421.276 51.456C421.732 51.128 422.372 50.964 423.196 50.964C423.684 50.964 424.14 51.044 424.564 51.204C424.996 51.364 425.36 51.544 425.656 51.744L425.02 52.596C424.74 52.404 424.432 52.26 424.096 52.164C423.76 52.06 423.42 52.008 423.076 52.008C422.812 52.008 422.6 52.036 422.44 52.092C422.288 52.148 422.172 52.228 422.092 52.332C422.02 52.428 421.984 52.536 421.984 52.656C421.984 52.864 422.104 53.02 422.344 53.124C422.584 53.228 422.976 53.34 423.52 53.46C424.152 53.596 424.64 53.752 424.984 53.928C425.328 54.096 425.564 54.292 425.692 54.516C425.828 54.732 425.896 55 425.896 55.32C425.896 55.656 425.788 55.964 425.572 56.244C425.364 56.516 425.056 56.736 424.648 56.904C424.24 57.064 423.736 57.144 423.136 57.144ZM430.823 57.144C430.207 57.144 429.651 57.024 429.155 56.784C428.667 56.536 428.279 56.184 427.991 55.728C427.711 55.264 427.571 54.708 427.571 54.06C427.571 53.404 427.723 52.848 428.027 52.392C428.339 51.928 428.751 51.576 429.263 51.336C429.775 51.088 430.327 50.964 430.919 50.964C431.399 50.964 431.823 51.044 432.191 51.204C432.559 51.356 432.863 51.552 433.103 51.792L432.443 52.656C432.211 52.472 431.975 52.332 431.735 52.236C431.503 52.14 431.255 52.092 430.991 52.092C430.599 52.092 430.251 52.176 429.947 52.344C429.651 52.504 429.419 52.732 429.251 53.028C429.083 53.324 428.999 53.668 428.999 54.06C428.999 54.452 429.079 54.796 429.239 55.092C429.407 55.388 429.635 55.616 429.923 55.776C430.219 55.936 430.563 56.016 430.955 56.016C431.291 56.016 431.599 55.952 431.879 55.824C432.159 55.696 432.411 55.544 432.635 55.368L433.211 56.256C432.875 56.544 432.499 56.764 432.083 56.916C431.667 57.068 431.247 57.144 430.823 57.144ZM435.451 57V51.108H436.591L436.711 52.44H436.747C437.043 51.96 437.407 51.596 437.839 51.348C438.279 51.092 438.751 50.964 439.255 50.964C439.495 50.964 439.703 50.984 439.879 51.024C440.055 51.064 440.227 51.124 440.395 51.204L440.107 52.368C439.915 52.304 439.743 52.26 439.591 52.236C439.447 52.204 439.263 52.188 439.039 52.188C438.639 52.188 438.247 52.304 437.863 52.536C437.487 52.768 437.147 53.172 436.843 53.748V57H435.451ZM444.65 57V52.2H442.094V51.108H446.03V57H444.65ZM445.238 50.028C444.958 50.028 444.722 49.944 444.53 49.776C444.346 49.608 444.254 49.384 444.254 49.104C444.254 48.824 444.346 48.6 444.53 48.432C444.722 48.256 444.958 48.168 445.238 48.168C445.526 48.168 445.762 48.256 445.946 48.432C446.13 48.6 446.222 48.824 446.222 49.104C446.222 49.384 446.13 49.608 445.946 49.776C445.762 49.944 445.526 50.028 445.238 50.028ZM452.229 57.144C451.949 57.144 451.657 57.076 451.353 56.94C451.057 56.804 450.777 56.608 450.513 56.352H450.477L450.357 57H449.265V48.528H450.657V50.712L450.597 51.744H450.633C450.881 51.504 451.161 51.316 451.473 51.18C451.793 51.036 452.113 50.964 452.433 50.964C452.945 50.964 453.377 51.088 453.729 51.336C454.089 51.584 454.365 51.932 454.557 52.38C454.749 52.82 454.845 53.344 454.845 53.952C454.845 54.624 454.721 55.2 454.473 55.68C454.225 56.152 453.901 56.516 453.501 56.772C453.109 57.02 452.685 57.144 452.229 57.144ZM451.953 56.004C452.225 56.004 452.473 55.928 452.697 55.776C452.921 55.624 453.097 55.4 453.225 55.104C453.353 54.8 453.417 54.424 453.417 53.976C453.417 53.584 453.369 53.248 453.273 52.968C453.177 52.688 453.029 52.476 452.829 52.332C452.637 52.18 452.377 52.104 452.049 52.104C451.825 52.104 451.597 52.16 451.365 52.272C451.133 52.384 450.897 52.564 450.657 52.812V55.464C450.873 55.656 451.097 55.796 451.329 55.884C451.561 55.964 451.769 56.004 451.953 56.004ZM459.437 57.144C458.837 57.144 458.293 57.024 457.805 56.784C457.317 56.536 456.929 56.184 456.641 55.728C456.353 55.264 456.209 54.704 456.209 54.048C456.209 53.408 456.353 52.86 456.641 52.404C456.929 51.94 457.305 51.584 457.769 51.336C458.233 51.088 458.729 50.964 459.257 50.964C459.841 50.964 460.333 51.084 460.733 51.324C461.141 51.564 461.449 51.896 461.657 52.32C461.873 52.736 461.981 53.216 461.981 53.76C461.981 53.896 461.973 54.028 461.957 54.156C461.949 54.276 461.937 54.376 461.921 54.456H457.205V53.472H461.033L460.769 53.784C460.769 53.2 460.637 52.764 460.373 52.476C460.117 52.18 459.757 52.032 459.293 52.032C458.965 52.032 458.669 52.108 458.405 52.26C458.149 52.412 457.945 52.64 457.793 52.944C457.641 53.24 457.565 53.608 457.565 54.048C457.565 54.504 457.649 54.88 457.817 55.176C457.993 55.472 458.233 55.696 458.537 55.848C458.849 56 459.209 56.076 459.617 56.076C459.929 56.076 460.217 56.032 460.481 55.944C460.745 55.856 461.009 55.736 461.273 55.584L461.741 56.448C461.429 56.648 461.077 56.816 460.685 56.952C460.293 57.08 459.877 57.144 459.437 57.144ZM465.828 57.144C465.076 57.144 464.468 56.872 464.004 56.328C463.54 55.784 463.308 55.028 463.308 54.06C463.308 53.42 463.432 52.868 463.68 52.404C463.928 51.94 464.252 51.584 464.652 51.336C465.052 51.088 465.472 50.964 465.912 50.964C466.248 50.964 466.544 51.024 466.8 51.144C467.064 51.264 467.308 51.436 467.532 51.66H467.568L467.496 50.664V48.528H468.888V57H467.748L467.64 56.316H467.604C467.38 56.54 467.112 56.736 466.8 56.904C466.488 57.064 466.164 57.144 465.828 57.144ZM466.164 56.004C466.404 56.004 466.636 55.948 466.86 55.836C467.084 55.716 467.296 55.536 467.496 55.296V52.644C467.288 52.444 467.08 52.304 466.872 52.224C466.664 52.144 466.452 52.104 466.236 52.104C465.964 52.104 465.712 52.18 465.48 52.332C465.256 52.484 465.076 52.704 464.94 52.992C464.804 53.28 464.736 53.632 464.736 54.048C464.736 54.68 464.86 55.164 465.108 55.5C465.364 55.836 465.716 56.004 466.164 56.004Z" fill="#1F69FF"/>
<path d="M372.842 82.144C372.41 82.144 372.022 82.08 371.678 81.952C371.342 81.824 371.054 81.632 370.814 81.376C370.582 81.12 370.402 80.796 370.274 80.404C370.154 80.004 370.094 79.536 370.094 79V74.152H371.486V79.108C371.486 79.532 371.538 79.88 371.642 80.152C371.754 80.416 371.914 80.612 372.122 80.74C372.33 80.868 372.57 80.932 372.842 80.932C373.13 80.932 373.374 80.868 373.574 80.74C373.782 80.612 373.942 80.416 374.054 80.152C374.174 79.88 374.234 79.532 374.234 79.108V74.152H375.566V79C375.566 79.536 375.506 80.004 375.386 80.404C375.266 80.796 375.086 81.12 374.846 81.376C374.614 81.632 374.33 81.824 373.994 81.952C373.658 82.08 373.274 82.144 372.842 82.144ZM377.41 82V76.108H378.55L378.658 76.996H378.706C378.986 76.708 379.294 76.464 379.63 76.264C379.974 76.064 380.374 75.964 380.83 75.964C381.51 75.964 382.01 76.172 382.33 76.588C382.65 77.004 382.81 77.592 382.81 78.352V82H381.418V78.532C381.418 78.06 381.334 77.712 381.166 77.488C380.998 77.264 380.714 77.152 380.314 77.152C380.026 77.152 379.77 77.22 379.546 77.356C379.322 77.492 379.074 77.7 378.802 77.98V82H377.41ZM387.749 82.144C387.133 82.144 386.577 82.024 386.081 81.784C385.593 81.536 385.205 81.184 384.917 80.728C384.637 80.264 384.497 79.708 384.497 79.06C384.497 78.404 384.649 77.848 384.953 77.392C385.265 76.928 385.677 76.576 386.189 76.336C386.701 76.088 387.253 75.964 387.845 75.964C388.325 75.964 388.749 76.044 389.117 76.204C389.485 76.356 389.789 76.552 390.029 76.792L389.369 77.656C389.137 77.472 388.901 77.332 388.661 77.236C388.429 77.14 388.181 77.092 387.917 77.092C387.525 77.092 387.177 77.176 386.873 77.344C386.577 77.504 386.345 77.732 386.177 78.028C386.009 78.324 385.925 78.668 385.925 79.06C385.925 79.452 386.005 79.796 386.165 80.092C386.333 80.388 386.561 80.616 386.849 80.776C387.145 80.936 387.489 81.016 387.881 81.016C388.217 81.016 388.525 80.952 388.805 80.824C389.085 80.696 389.337 80.544 389.561 80.368L390.137 81.256C389.801 81.544 389.425 81.764 389.009 81.916C388.593 82.068 388.173 82.144 387.749 82.144ZM393.636 82.144C393.252 82.144 392.912 82.072 392.616 81.928C392.32 81.776 392.088 81.572 391.92 81.316C391.752 81.06 391.668 80.76 391.668 80.416C391.668 79.76 391.98 79.26 392.604 78.916C393.236 78.564 394.28 78.336 395.736 78.232C395.72 78.016 395.66 77.82 395.556 77.644C395.46 77.468 395.312 77.332 395.112 77.236C394.912 77.132 394.652 77.08 394.332 77.08C394.108 77.08 393.888 77.108 393.672 77.164C393.456 77.22 393.24 77.296 393.024 77.392C392.816 77.488 392.608 77.592 392.4 77.704L391.896 76.78C392.136 76.636 392.4 76.504 392.688 76.384C392.976 76.256 393.28 76.156 393.6 76.084C393.92 76.004 394.248 75.964 394.584 75.964C395.136 75.964 395.596 76.064 395.964 76.264C396.34 76.456 396.624 76.744 396.816 77.128C397.016 77.504 397.116 77.964 397.116 78.508V82H395.988L395.88 81.268H395.844C395.532 81.508 395.184 81.716 394.8 81.892C394.424 82.06 394.036 82.144 393.636 82.144ZM394.056 81.064C394.352 81.064 394.636 81 394.908 80.872C395.188 80.736 395.464 80.56 395.736 80.344V79.096C395.032 79.144 394.48 79.224 394.08 79.336C393.68 79.44 393.4 79.576 393.24 79.744C393.08 79.912 393 80.1 393 80.308C393 80.484 393.048 80.628 393.144 80.74C393.24 80.852 393.364 80.936 393.516 80.992C393.676 81.04 393.856 81.064 394.056 81.064ZM402.704 82.144C402.104 82.144 401.628 82.04 401.276 81.832C400.924 81.616 400.672 81.32 400.52 80.944C400.368 80.568 400.292 80.132 400.292 79.636V77.2H398.72V76.168L400.352 76.108L400.532 74.26H401.672V76.108H404.36V77.2H401.672V79.624C401.672 79.944 401.716 80.212 401.804 80.428C401.892 80.636 402.036 80.792 402.236 80.896C402.436 80.992 402.7 81.04 403.028 81.04C403.284 81.04 403.516 81.02 403.724 80.98C403.932 80.94 404.132 80.884 404.324 80.812L404.588 81.808C404.324 81.896 404.04 81.972 403.736 82.036C403.432 82.108 403.088 82.144 402.704 82.144ZM409.167 82.144C408.567 82.144 408.023 82.024 407.535 81.784C407.047 81.536 406.659 81.184 406.371 80.728C406.083 80.264 405.939 79.704 405.939 79.048C405.939 78.408 406.083 77.86 406.371 77.404C406.659 76.94 407.035 76.584 407.499 76.336C407.963 76.088 408.459 75.964 408.987 75.964C409.571 75.964 410.063 76.084 410.463 76.324C410.871 76.564 411.179 76.896 411.387 77.32C411.603 77.736 411.711 78.216 411.711 78.76C411.711 78.896 411.703 79.028 411.687 79.156C411.679 79.276 411.667 79.376 411.651 79.456H406.935V78.472H410.763L410.499 78.784C410.499 78.2 410.367 77.764 410.103 77.476C409.847 77.18 409.487 77.032 409.023 77.032C408.695 77.032 408.399 77.108 408.135 77.26C407.879 77.412 407.675 77.64 407.523 77.944C407.371 78.24 407.295 78.608 407.295 79.048C407.295 79.504 407.379 79.88 407.547 80.176C407.723 80.472 407.963 80.696 408.267 80.848C408.579 81 408.939 81.076 409.347 81.076C409.659 81.076 409.947 81.032 410.211 80.944C410.475 80.856 410.739 80.736 411.003 80.584L411.471 81.448C411.159 81.648 410.807 81.816 410.415 81.952C410.023 82.08 409.607 82.144 409.167 82.144ZM415.834 84.604C415.29 84.604 414.818 84.544 414.418 84.424C414.018 84.312 413.706 84.14 413.482 83.908C413.258 83.676 413.146 83.384 413.146 83.032C413.146 82.8 413.226 82.576 413.386 82.36C413.546 82.144 413.778 81.956 414.082 81.796V81.748C413.93 81.652 413.79 81.528 413.662 81.376C413.542 81.216 413.482 81.012 413.482 80.764C413.482 80.572 413.546 80.376 413.674 80.176C413.802 79.976 413.974 79.804 414.19 79.66V79.612C413.982 79.46 413.802 79.256 413.65 79C413.506 78.736 413.434 78.432 413.434 78.088C413.434 77.632 413.546 77.248 413.77 76.936C413.994 76.616 414.29 76.376 414.658 76.216C415.026 76.048 415.426 75.964 415.858 75.964C416.21 75.964 416.518 76.012 416.782 76.108H419.194V77.164H417.838C417.942 77.276 418.03 77.42 418.102 77.596C418.182 77.764 418.222 77.944 418.222 78.136C418.222 78.568 418.114 78.936 417.898 79.24C417.69 79.536 417.41 79.76 417.058 79.912C416.706 80.064 416.306 80.14 415.858 80.14C415.722 80.14 415.574 80.128 415.414 80.104C415.262 80.072 415.11 80.028 414.958 79.972C414.838 80.044 414.746 80.124 414.682 80.212C414.626 80.3 414.598 80.404 414.598 80.524C414.598 80.708 414.69 80.848 414.874 80.944C415.066 81.032 415.346 81.076 415.714 81.076H416.914C417.682 81.076 418.258 81.188 418.642 81.412C419.034 81.628 419.23 81.996 419.23 82.516C419.23 82.9 419.09 83.252 418.81 83.572C418.538 83.892 418.146 84.144 417.634 84.328C417.13 84.512 416.53 84.604 415.834 84.604ZM415.858 79.264C416.066 79.264 416.254 79.22 416.422 79.132C416.59 79.036 416.722 78.9 416.818 78.724C416.922 78.548 416.974 78.336 416.974 78.088C416.974 77.848 416.922 77.644 416.818 77.476C416.722 77.3 416.59 77.164 416.422 77.068C416.254 76.972 416.066 76.924 415.858 76.924C415.658 76.924 415.474 76.972 415.306 77.068C415.138 77.164 415.002 77.3 414.898 77.476C414.794 77.644 414.742 77.848 414.742 78.088C414.742 78.336 414.794 78.548 414.898 78.724C415.002 78.9 415.138 79.036 415.306 79.132C415.474 79.22 415.658 79.264 415.858 79.264ZM416.002 83.692C416.386 83.692 416.718 83.648 416.998 83.56C417.286 83.472 417.506 83.356 417.658 83.212C417.818 83.068 417.898 82.912 417.898 82.744C417.898 82.512 417.798 82.356 417.598 82.276C417.406 82.204 417.11 82.168 416.71 82.168H415.774C415.582 82.168 415.414 82.16 415.27 82.144C415.126 82.128 414.994 82.108 414.874 82.084C414.666 82.204 414.518 82.328 414.43 82.456C414.342 82.584 414.298 82.716 414.298 82.852C414.298 83.116 414.446 83.32 414.742 83.464C415.038 83.616 415.458 83.692 416.002 83.692ZM423.198 82.144C422.678 82.144 422.194 82.024 421.746 81.784C421.298 81.536 420.934 81.184 420.654 80.728C420.374 80.264 420.234 79.708 420.234 79.06C420.234 78.404 420.374 77.848 420.654 77.392C420.934 76.928 421.298 76.576 421.746 76.336C422.194 76.088 422.678 75.964 423.198 75.964C423.718 75.964 424.202 76.088 424.65 76.336C425.098 76.576 425.462 76.928 425.742 77.392C426.022 77.848 426.162 78.404 426.162 79.06C426.162 79.708 426.022 80.264 425.742 80.728C425.462 81.184 425.098 81.536 424.65 81.784C424.202 82.024 423.718 82.144 423.198 82.144ZM423.198 81.016C423.518 81.016 423.794 80.936 424.026 80.776C424.258 80.616 424.434 80.388 424.554 80.092C424.674 79.796 424.734 79.452 424.734 79.06C424.734 78.668 424.674 78.324 424.554 78.028C424.434 77.732 424.258 77.504 424.026 77.344C423.794 77.176 423.518 77.092 423.198 77.092C422.878 77.092 422.602 77.176 422.37 77.344C422.146 77.504 421.97 77.732 421.842 78.028C421.722 78.324 421.662 78.668 421.662 79.06C421.662 79.452 421.722 79.796 421.842 80.092C421.97 80.388 422.146 80.616 422.37 80.776C422.602 80.936 422.878 81.016 423.198 81.016ZM428.353 82V76.108H429.493L429.613 77.44H429.649C429.945 76.96 430.309 76.596 430.741 76.348C431.181 76.092 431.653 75.964 432.157 75.964C432.397 75.964 432.605 75.984 432.781 76.024C432.957 76.064 433.129 76.124 433.297 76.204L433.009 77.368C432.817 77.304 432.645 77.26 432.493 77.236C432.349 77.204 432.165 77.188 431.941 77.188C431.541 77.188 431.149 77.304 430.765 77.536C430.389 77.768 430.049 78.172 429.745 78.748V82H428.353ZM437.552 82V77.2H434.996V76.108H438.932V82H437.552ZM438.14 75.028C437.86 75.028 437.624 74.944 437.432 74.776C437.248 74.608 437.156 74.384 437.156 74.104C437.156 73.824 437.248 73.6 437.432 73.432C437.624 73.256 437.86 73.168 438.14 73.168C438.428 73.168 438.664 73.256 438.848 73.432C439.032 73.6 439.124 73.824 439.124 74.104C439.124 74.384 439.032 74.608 438.848 74.776C438.664 74.944 438.428 75.028 438.14 75.028ZM442.036 82V81.256L445.576 77.2H442.432V76.108H447.52V76.84L443.968 80.896H447.616V82H442.036ZM452.339 82.144C451.739 82.144 451.195 82.024 450.707 81.784C450.219 81.536 449.831 81.184 449.543 80.728C449.255 80.264 449.111 79.704 449.111 79.048C449.111 78.408 449.255 77.86 449.543 77.404C449.831 76.94 450.207 76.584 450.671 76.336C451.135 76.088 451.631 75.964 452.159 75.964C452.743 75.964 453.235 76.084 453.635 76.324C454.043 76.564 454.351 76.896 454.559 77.32C454.775 77.736 454.883 78.216 454.883 78.76C454.883 78.896 454.875 79.028 454.859 79.156C454.851 79.276 454.839 79.376 454.823 79.456H450.107V78.472H453.935L453.671 78.784C453.671 78.2 453.539 77.764 453.275 77.476C453.019 77.18 452.659 77.032 452.195 77.032C451.867 77.032 451.571 77.108 451.307 77.26C451.051 77.412 450.847 77.64 450.695 77.944C450.543 78.24 450.467 78.608 450.467 79.048C450.467 79.504 450.551 79.88 450.719 80.176C450.895 80.472 451.135 80.696 451.439 80.848C451.751 81 452.111 81.076 452.519 81.076C452.831 81.076 453.119 81.032 453.383 80.944C453.647 80.856 453.911 80.736 454.175 80.584L454.643 81.448C454.331 81.648 453.979 81.816 453.587 81.952C453.195 82.08 452.779 82.144 452.339 82.144ZM458.73 82.144C457.978 82.144 457.37 81.872 456.906 81.328C456.442 80.784 456.21 80.028 456.21 79.06C456.21 78.42 456.334 77.868 456.582 77.404C456.83 76.94 457.154 76.584 457.554 76.336C457.954 76.088 458.374 75.964 458.814 75.964C459.15 75.964 459.446 76.024 459.702 76.144C459.966 76.264 460.21 76.436 460.434 76.66H460.47L460.398 75.664V73.528H461.79V82H460.65L460.542 81.316H460.506C460.282 81.54 460.014 81.736 459.702 81.904C459.39 82.064 459.066 82.144 458.73 82.144ZM459.066 81.004C459.306 81.004 459.538 80.948 459.762 80.836C459.986 80.716 460.198 80.536 460.398 80.296V77.644C460.19 77.444 459.982 77.304 459.774 77.224C459.566 77.144 459.354 77.104 459.138 77.104C458.866 77.104 458.614 77.18 458.382 77.332C458.158 77.484 457.978 77.704 457.842 77.992C457.706 78.28 457.638 78.632 457.638 79.048C457.638 79.68 457.762 80.164 458.01 80.5C458.266 80.836 458.618 81.004 459.066 81.004Z" fill="#C74E4E"/>
<path d="M179.319 97.6148C179.106 97.4387 178.791 97.4685 178.615 97.6812L175.746 101.148C175.57 101.361 175.599 101.676 175.812 101.852C176.025 102.028 176.34 101.998 176.516 101.786L179.066 98.704L182.148 101.254C182.361 101.43 182.676 101.401 182.852 101.188C183.028 100.975 182.998 100.66 182.786 100.484L179.319 97.6148ZM178.502 98.047L183.502 151.047L184.498 150.953L179.498 97.953L178.502 98.047Z" fill="#9CA9BC"/>
<path d="M157.962 135.501C157.686 135.523 157.48 135.763 157.501 136.038L157.847 140.525C157.868 140.8 158.108 141.006 158.383 140.985C158.659 140.964 158.865 140.724 158.844 140.448L158.537 136.46L162.525 136.153C162.8 136.132 163.006 135.892 162.985 135.617C162.964 135.341 162.724 135.135 162.448 135.156L157.962 135.501ZM179.038 154.499C179.314 154.477 179.52 154.237 179.499 153.962L179.153 149.475C179.132 149.2 178.892 148.994 178.617 149.015C178.341 149.036 178.135 149.276 178.156 149.552L178.463 153.54L174.475 153.847C174.2 153.868 173.994 154.108 174.015 154.383C174.036 154.659 174.276 154.865 174.552 154.844L179.038 154.499ZM157.675 136.38L178.675 154.38L179.325 153.62L158.325 135.62L157.675 136.38Z" fill="#9CA9BC"/>
<path d="M114.109 168.188C113.937 168.404 113.972 168.718 114.188 168.891L117.704 171.699C117.92 171.871 118.235 171.836 118.407 171.62C118.579 171.404 118.544 171.09 118.328 170.917L115.203 168.421L117.699 165.296C117.871 165.08 117.836 164.765 117.62 164.593C117.404 164.421 117.09 164.456 116.917 164.672L114.109 168.188ZM177.391 161.812C177.563 161.596 177.528 161.282 177.312 161.109L173.796 158.301C173.58 158.129 173.265 158.164 173.093 158.38C172.921 158.596 172.956 158.91 173.172 159.083L176.297 161.579L173.801 164.704C173.629 164.92 173.664 165.235 173.88 165.407C174.096 165.579 174.41 165.544 174.583 165.328L177.391 161.812ZM114.556 168.997L177.056 161.997L176.944 161.003L114.444 168.003L114.556 168.997Z" fill="#9CA9BC"/>
<path d="M186.631 214.338C186.817 214.541 187.134 214.555 187.338 214.369L190.658 211.331C190.861 211.145 190.875 210.829 190.689 210.625C190.503 210.421 190.186 210.407 189.983 210.594L187.031 213.294L184.331 210.342C184.145 210.139 183.829 210.125 183.625 210.311C183.421 210.497 183.407 210.814 183.594 211.017L186.631 214.338ZM189.369 168.662C189.183 168.459 188.866 168.445 188.662 168.631L185.342 171.669C185.139 171.855 185.125 172.171 185.311 172.375C185.497 172.579 185.814 172.593 186.017 172.406L188.969 169.706L191.669 172.658C191.855 172.861 192.171 172.875 192.375 172.689C192.579 172.503 192.593 172.186 192.406 171.983L189.369 168.662ZM187.5 214.022L189.5 169.022L188.5 168.978L186.5 213.978L187.5 214.022Z" fill="#9CA9BC"/>
<path d="M147.503 214.055C147.534 214.33 147.781 214.527 148.055 214.497L152.528 214C152.802 213.97 153 213.722 152.969 213.448C152.939 213.173 152.692 212.976 152.417 213.006L148.442 213.448L148 209.472C147.97 209.198 147.722 209 147.448 209.031C147.173 209.061 146.976 209.308 147.006 209.583L147.503 214.055ZM184.497 168.945C184.466 168.67 184.219 168.473 183.945 168.503L179.472 169C179.198 169.03 179 169.278 179.031 169.552C179.061 169.827 179.308 170.024 179.583 169.994L183.558 169.552L184 173.528C184.03 173.802 184.278 174 184.552 173.969C184.827 173.939 185.024 173.692 184.994 173.417L184.497 168.945ZM148.39 214.312L184.39 169.312L183.61 168.688L147.61 213.688L148.39 214.312Z" fill="#9CA9BC"/>
<path d="M224.543 193.498C224.818 193.474 225.022 193.232 224.998 192.957L224.612 188.474C224.588 188.199 224.346 187.995 224.071 188.018C223.795 188.042 223.592 188.284 223.615 188.56L223.959 192.545L219.974 192.888C219.699 192.912 219.495 193.154 219.518 193.429C219.542 193.705 219.784 193.908 220.06 193.885L224.543 193.498ZM224.822 192.617L193.322 166.117L192.678 166.883L224.178 193.383L224.822 192.617Z" fill="#9CA9BC"/>
<path d="M216.999 120.465C216.979 120.19 216.74 119.982 216.465 120.001L211.976 120.316C211.701 120.336 211.493 120.575 211.512 120.85C211.532 121.125 211.771 121.333 212.046 121.314L216.036 121.034L216.316 125.024C216.336 125.299 216.575 125.507 216.85 125.488C217.125 125.468 217.333 125.229 217.314 124.954L216.999 120.465ZM189.501 151.035C189.521 151.31 189.76 151.518 190.035 151.499L194.524 151.184C194.799 151.164 195.007 150.925 194.988 150.65C194.968 150.375 194.729 150.167 194.454 150.186L190.464 150.466L190.184 146.476C190.164 146.201 189.925 145.993 189.65 146.012C189.375 146.032 189.167 146.271 189.186 146.546L189.501 151.035ZM216.123 120.172L189.623 150.672L190.377 151.328L216.877 120.828L216.123 120.172Z" fill="#9CA9BC"/>
<path d="M214.896 156.306C215.064 156.087 215.024 155.773 214.806 155.604L211.245 152.853C211.026 152.684 210.712 152.724 210.544 152.943C210.375 153.161 210.415 153.475 210.633 153.644L213.799 156.09L211.353 159.255C211.184 159.474 211.224 159.788 211.443 159.956C211.661 160.125 211.975 160.085 212.144 159.867L214.896 156.306ZM194.604 158.194C194.436 158.413 194.476 158.727 194.694 158.896L198.255 161.647C198.474 161.816 198.788 161.776 198.956 161.557C199.125 161.339 199.085 161.025 198.867 160.856L195.701 158.41L198.147 155.245C198.316 155.026 198.276 154.712 198.057 154.544C197.839 154.375 197.525 154.415 197.356 154.633L194.604 158.194ZM214.436 155.504L194.936 158.004L195.064 158.996L214.564 156.496L214.436 155.504Z" fill="#9CA9BC"/>
<path d="M179.883 167.123C179.92 166.85 179.728 166.598 179.454 166.561L174.995 165.955C174.722 165.917 174.47 166.109 174.433 166.383C174.395 166.656 174.587 166.908 174.861 166.945L178.824 167.484L178.286 171.448C178.248 171.721 178.44 171.973 178.714 172.011C178.987 172.048 179.239 171.856 179.276 171.582L179.883 167.123ZM164.505 177.933C164.467 178.206 164.659 178.458 164.933 178.495L169.392 179.102C169.665 179.139 169.917 178.947 169.954 178.673C169.992 178.4 169.8 178.148 169.526 178.111L165.563 177.572L166.102 173.608C166.139 173.335 165.947 173.083 165.673 173.046C165.4 173.008 165.148 173.2 165.111 173.474L164.505 177.933ZM179.084 166.658L164.697 177.602L165.303 178.398L179.69 167.454L179.084 166.658Z" fill="#9CA9BC"/>
<path d="M254.561 154.489C254.755 156.356 254.886 158.246 254.951 160.156L253.452 160.208C253.484 161.134 253.5 162.065 253.5 163C253.5 163.935 253.484 164.866 253.452 165.792L254.951 165.844C254.886 167.754 254.755 169.644 254.561 171.511L253.069 171.356C252.875 173.22 252.618 175.06 252.299 176.873L253.777 177.133C253.446 179.015 253.05 180.869 252.593 182.692L251.138 182.327C250.683 184.143 250.165 185.928 249.587 187.677L251.012 188.147C250.414 189.959 249.753 191.734 249.033 193.469L247.648 192.894C246.931 194.621 246.154 196.308 245.32 197.951L246.657 198.63C245.793 200.331 244.869 201.986 243.889 203.59L242.609 202.808C241.635 204.401 240.605 205.943 239.522 207.43L240.734 208.313C239.612 209.854 238.433 211.337 237.202 212.758L236.068 211.776C234.848 213.184 233.576 214.53 232.257 215.808L233.3 216.885C231.932 218.211 230.512 219.467 229.045 220.648L228.104 219.48C226.658 220.644 225.166 221.734 223.632 222.744L224.458 223.997C222.871 225.042 221.239 226.006 219.567 226.882L218.87 225.554C217.236 226.411 215.562 227.182 213.853 227.863L214.409 229.257C212.651 229.957 210.857 230.565 209.03 231.076L208.626 229.631C206.861 230.125 205.065 230.524 203.242 230.825L203.486 232.305C201.63 232.612 199.747 232.819 197.841 232.923L197.759 231.425C196.845 231.475 195.925 231.5 195 231.5C194.075 231.5 193.155 231.475 192.241 231.425L192.159 232.923C190.253 232.819 188.37 232.612 186.514 232.305L186.758 230.825C184.935 230.524 183.139 230.125 181.374 229.631L180.97 231.076C179.143 230.565 177.349 229.957 175.591 229.257L176.147 227.863C174.438 227.182 172.764 226.411 171.13 225.554L170.433 226.882C168.761 226.006 167.129 225.042 165.542 223.997L166.368 222.744C164.834 221.734 163.342 220.644 161.896 219.48L160.955 220.648C159.488 219.467 158.068 218.211 156.7 216.885L157.743 215.808C156.423 214.53 155.152 213.184 153.932 211.776L152.798 212.758C151.567 211.337 150.388 209.854 149.266 208.313L150.478 207.43C149.395 205.943 148.365 204.401 147.391 202.808L146.111 203.59C145.131 201.986 144.207 200.331 143.343 198.63L144.68 197.951C143.846 196.308 143.069 194.621 142.352 192.894L140.967 193.469C140.247 191.734 139.586 189.959 138.988 188.147L140.413 187.677C139.835 185.928 139.317 184.143 138.862 182.327L137.407 182.692C136.949 180.869 136.554 179.015 136.223 177.133L137.701 176.873C137.382 175.06 137.125 173.22 136.931 171.356L135.439 171.511C135.245 169.644 135.114 167.754 135.049 165.844L136.548 165.792C136.516 164.866 136.5 163.935 136.5 163C136.5 162.065 136.516 161.134 136.548 160.208L135.049 160.156C135.114 158.246 135.245 156.356 135.439 154.489L136.931 154.644C137.125 152.78 137.382 150.94 137.701 149.127L136.223 148.867C136.554 146.985 136.95 145.131 137.407 143.308L138.862 143.673C139.317 141.857 139.835 140.072 140.413 138.323L138.988 137.853C139.586 136.041 140.247 134.266 140.967 132.531L142.352 133.106C143.069 131.379 143.846 129.692 144.68 128.049L143.343 127.37C144.207 125.669 145.131 124.014 146.111 122.41L147.391 123.192C148.365 121.599 149.395 120.057 150.478 118.57L149.266 117.687C150.388 116.146 151.567 114.663 152.798 113.242L153.932 114.224C155.152 112.816 156.424 111.47 157.743 110.192L156.7 109.115C158.068 107.789 159.488 106.533 160.955 105.352L161.896 106.52C163.342 105.356 164.834 104.266 166.368 103.256L165.542 102.003C167.129 100.958 168.761 99.9943 170.433 99.1176L171.13 100.446C172.764 99.5891 174.438 98.8178 176.147 98.1367L175.591 96.7434C177.349 96.0428 179.143 95.4347 180.97 94.9241L181.374 96.3688C183.139 95.8754 184.935 95.4758 186.758 95.1747L186.514 93.6948C188.37 93.3882 190.253 93.1807 192.159 93.0771L192.241 94.5749C193.155 94.5251 194.075 94.5 195 94.5C195.925 94.5 196.845 94.5251 197.759 94.5749L197.841 93.0771C199.747 93.1807 201.63 93.3882 203.486 93.6948L203.242 95.1747C205.065 95.4758 206.861 95.8754 208.626 96.3688L209.03 94.9241C210.857 95.4347 212.651 96.0428 214.409 96.7434L213.853 98.1367C215.562 98.8178 217.236 99.5891 218.87 100.446L219.567 99.1176C221.239 99.9943 222.871 100.958 224.458 102.003L223.632 103.256C225.166 104.266 226.658 105.356 228.104 106.52L229.045 105.352C230.512 106.533 231.932 107.789 233.3 109.115L232.257 110.192C233.576 111.47 234.848 112.816 236.068 114.224L237.202 113.242C238.433 114.663 239.612 116.146 240.734 117.687L239.522 118.57C240.605 120.057 241.635 121.599 242.609 123.192L243.889 122.41C244.869 124.014 245.793 125.669 246.657 127.37L245.32 128.049C246.154 129.692 246.931 131.379 247.648 133.106L249.033 132.531C249.753 134.266 250.414 136.041 251.012 137.853L249.587 138.323C250.165 140.072 250.683 141.857 251.138 143.673L252.593 143.308C253.051 145.131 253.446 146.985 253.777 148.867L252.299 149.127C252.618 150.94 252.875 152.78 253.069 154.644L254.561 154.489Z" stroke="#C74E4E" stroke-width="3" stroke-dasharray="6 6"/>
<rect opacity="0.15" x="292" y="153" width="58" height="36" rx="4" fill="#C74E4E"/>
<path d="M305.232 177V166.568H307.584V170.84H307.648L310.752 166.568H313.344L310.192 170.728L313.92 177H311.344L308.8 172.6L307.584 174.2V177H305.232ZM317.575 170.696V169.032H324.935V170.696H317.575ZM317.575 174.408V172.744H324.935V174.408H317.575ZM333.088 172.312C332.821 172.312 332.549 172.392 332.272 172.552C332.005 172.701 331.765 172.957 331.552 173.32C331.658 174.12 331.861 174.675 332.16 174.984C332.458 175.283 332.784 175.432 333.136 175.432C333.488 175.432 333.786 175.304 334.032 175.048C334.288 174.781 334.416 174.36 334.416 173.784C334.416 173.251 334.288 172.872 334.032 172.648C333.786 172.424 333.472 172.312 333.088 172.312ZM333.184 177.192C332.533 177.192 331.914 177.021 331.328 176.68C330.741 176.328 330.261 175.784 329.888 175.048C329.525 174.301 329.344 173.336 329.344 172.152C329.344 170.883 329.536 169.843 329.92 169.032C330.314 168.221 330.821 167.624 331.44 167.24C332.069 166.845 332.741 166.648 333.456 166.648C334.128 166.648 334.709 166.771 335.2 167.016C335.69 167.251 336.096 167.533 336.416 167.864L335.184 169.272C335.013 169.08 334.778 168.915 334.48 168.776C334.192 168.627 333.898 168.552 333.6 168.552C333.226 168.552 332.885 168.653 332.576 168.856C332.266 169.048 332.016 169.379 331.824 169.848C331.642 170.307 331.536 170.931 331.504 171.72C331.77 171.379 332.096 171.117 332.48 170.936C332.874 170.744 333.226 170.648 333.536 170.648C334.41 170.648 335.13 170.904 335.696 171.416C336.272 171.917 336.56 172.707 336.56 173.784C336.56 174.488 336.405 175.096 336.096 175.608C335.786 176.109 335.376 176.499 334.864 176.776C334.362 177.053 333.802 177.192 333.184 177.192Z" fill="#C74E4E"/>
</svg>
