<svg width="454" height="310" viewBox="0 0 454 310" fill="none" xmlns="http://www.w3.org/2000/svg">
<rect width="454" height="310" fill="white"/>
<path d="M56 46V283H306" stroke="#232A3D" stroke-width="2"/>
<path d="M156 123.982C156 120.678 153.314 118 150 118C146.686 118 144 120.678 144 123.982C144 127.285 146.686 129.963 150 129.963C153.314 129.963 156 127.285 156 123.982Z" fill="#1F69FF"/>
<path d="M161.184 176.165C160.277 172.987 156.958 171.144 153.771 172.048C150.584 172.952 148.735 176.261 149.642 179.439C150.549 182.616 153.868 184.459 157.055 183.555C160.242 182.651 162.091 179.342 161.184 176.165Z" fill="#1F69FF"/>
<path d="M236.184 192.128C235.277 188.951 231.958 187.108 228.771 188.012C225.584 188.916 223.735 192.225 224.642 195.402C225.549 198.58 228.868 200.423 232.055 199.519C235.242 198.615 237.091 195.306 236.184 192.128Z" fill="#1F69FF"/>
<path d="M225.184 104.753C224.277 101.576 220.958 99.7329 217.771 100.637C214.584 101.541 212.735 104.85 213.642 108.027C214.549 111.205 217.868 113.048 221.055 112.144C224.242 111.24 226.091 107.931 225.184 104.753Z" fill="#1F69FF"/>
<path d="M268.184 222.753C267.277 219.576 263.958 217.733 260.771 218.637C257.584 219.541 255.735 222.85 256.642 226.027C257.549 229.205 260.868 231.048 264.055 230.144C267.242 229.24 269.091 225.931 268.184 222.753Z" fill="#1F69FF"/>
<path d="M93.416 206.33C91.9122 203.386 88.2993 202.215 85.3465 203.715C82.3937 205.214 81.2191 208.816 82.723 211.76C84.2269 214.703 87.8397 215.874 90.7925 214.375C93.7453 212.876 94.9199 209.274 93.416 206.33Z" fill="#1F69FF"/>
<path d="M282.184 115.753C281.277 112.576 277.958 110.733 274.771 111.637C271.584 112.541 269.735 115.85 270.642 119.027C271.549 122.205 274.868 124.048 278.055 123.144C281.242 122.24 283.091 118.931 282.184 115.753Z" fill="#1F69FF"/>
<path d="M91.1838 132.753C90.2771 129.576 86.9582 127.733 83.771 128.637C80.5838 129.541 78.7351 132.85 79.6419 136.027C80.5487 139.205 83.8675 141.048 87.0547 140.144C90.242 139.24 92.0906 135.931 91.1838 132.753Z" fill="#1F69FF"/>
<path d="M189.184 213.753C188.277 210.576 184.958 208.733 181.771 209.637C178.584 210.541 176.735 213.85 177.642 217.027C178.549 220.205 181.868 222.048 185.055 221.144C188.242 220.24 190.091 216.931 189.184 213.753Z" fill="#9B51E0"/>
<path d="M128 64.9817C128 61.6781 125.314 59 122 59C118.686 59 116 61.6781 116 64.9817C116 68.2853 118.686 70.9634 122 70.9634C125.314 70.9634 128 68.2853 128 64.9817Z" fill="#9B51E0"/>
<path d="M145 214.982C145 211.678 142.314 209 139 209C135.686 209 133 211.678 133 214.982C133 218.285 135.686 220.963 139 220.963C142.314 220.963 145 218.285 145 214.982Z" fill="#9B51E0"/>
<path d="M226 64.9817C226 61.6781 223.314 59 220 59C216.686 59 214 61.6781 214 64.9817C214 68.2853 216.686 70.9634 220 70.9634C223.314 70.9634 226 68.2853 226 64.9817Z" fill="#9B51E0"/>
<path d="M109 160.982C109 157.678 106.314 155 103 155C99.6863 155 97 157.678 97 160.982C97 164.285 99.6863 166.963 103 166.963C106.314 166.963 109 164.285 109 160.982Z" fill="#9B51E0"/>
<path d="M250 237.982C250 234.678 247.314 232 244 232C240.686 232 238 234.678 238 237.982C238 241.285 240.686 243.963 244 243.963C247.314 243.963 250 241.285 250 237.982Z" fill="#9B51E0"/>
<path d="M111 105.982C111 102.678 108.314 100 105 100C101.686 100 99 102.678 99 105.982C99 109.285 101.686 111.963 105 111.963C108.314 111.963 111 109.285 111 105.982Z" fill="#9B51E0"/>
<path d="M252 93.9817C252 90.6781 249.314 88 246 88C242.686 88 240 90.6781 240 93.9817C240 97.2853 242.686 99.9634 246 99.9634C249.314 99.9634 252 97.2853 252 93.9817Z" fill="#9B51E0"/>
<path d="M275 143.982C275 140.678 272.314 138 269 138C265.686 138 263 140.678 263 143.982C263 147.285 265.686 149.963 269 149.963C272.314 149.963 275 147.285 275 143.982Z" fill="#9B51E0"/>
<path d="M285 194.982C285 191.678 282.314 189 279 189C275.686 189 273 191.678 273 194.982C273 198.285 275.686 200.963 279 200.963C282.314 200.963 285 198.285 285 194.982Z" fill="#9B51E0"/>
<path d="M225 147.982C225 144.678 222.314 142 219 142C215.686 142 213 144.678 213 147.982C213 151.285 215.686 153.963 219 153.963C222.314 153.963 225 151.285 225 147.982Z" fill="#9B51E0"/>
<path d="M189 153.982C189 150.678 186.314 148 183 148C179.686 148 177 150.678 177 153.982C177 157.285 179.686 159.963 183 159.963C186.314 159.963 189 157.285 189 153.982Z" fill="#C74E4E"/>
<path d="M182 80.9817C182 77.6781 179.314 75 176 75C172.686 75 170 77.6781 170 80.9817C170 84.2853 172.686 86.9634 176 86.9634C179.314 86.9634 182 84.2853 182 80.9817Z" fill="#9B51E0"/>
<path d="M88 243.982C88 240.678 85.3137 238 82 238C78.6863 238 76 240.678 76 243.982C76 247.285 78.6863 249.963 82 249.963C85.3137 249.963 88 247.285 88 243.982Z" fill="#9B51E0"/>
<path d="M157 259.982C157 256.678 154.314 254 151 254C147.686 254 145 256.678 145 259.982C145 263.285 147.686 265.963 151 265.963C154.314 265.963 157 263.285 157 259.982Z" fill="#9B51E0"/>
<path d="M203 265.982C203 262.678 200.314 260 197 260C193.686 260 191 262.678 191 265.982C191 269.285 193.686 271.963 197 271.963C200.314 271.963 203 269.285 203 265.982Z" fill="#9B51E0"/>
<rect x="314.5" y="43.5" width="19" height="19" fill="#1F69FF" stroke="#232A3D"/>
<rect x="314.5" y="70.5" width="19" height="19" fill="#C74E4E" stroke="#232A3D"/>
<rect x="314.5" y="16.5" width="19" height="19" fill="#9B51E0" stroke="#232A3D"/>
<path d="M345.647 30.144C345.095 30.144 344.567 30.044 344.063 29.844C343.559 29.644 343.111 29.36 342.719 28.992L343.535 28.044C343.831 28.308 344.167 28.524 344.543 28.692C344.919 28.852 345.315 28.932 345.731 28.932C346.187 28.932 346.535 28.844 346.775 28.668C347.015 28.484 347.135 28.256 347.135 27.984C347.135 27.752 347.079 27.568 346.967 27.432C346.855 27.288 346.699 27.168 346.499 27.072C346.307 26.976 346.079 26.876 345.815 26.772L344.747 26.304C344.475 26.192 344.207 26.048 343.943 25.872C343.687 25.696 343.475 25.472 343.307 25.2C343.147 24.928 343.067 24.6 343.067 24.216C343.067 23.8 343.183 23.428 343.415 23.1C343.647 22.764 343.967 22.5 344.375 22.308C344.791 22.108 345.263 22.008 345.791 22.008C346.271 22.008 346.727 22.1 347.159 22.284C347.599 22.46 347.983 22.7 348.311 23.004L347.591 23.892C347.327 23.676 347.047 23.512 346.751 23.4C346.463 23.28 346.119 23.22 345.719 23.22C345.351 23.22 345.051 23.3 344.819 23.46C344.587 23.62 344.471 23.848 344.471 24.144C344.471 24.344 344.535 24.508 344.663 24.636C344.791 24.764 344.955 24.876 345.155 24.972C345.363 25.068 345.583 25.16 345.815 25.248L346.847 25.692C347.183 25.82 347.479 25.976 347.735 26.16C347.991 26.344 348.191 26.572 348.335 26.844C348.479 27.108 348.551 27.432 348.551 27.816C348.551 28.24 348.435 28.628 348.203 28.98C347.971 29.332 347.639 29.616 347.207 29.832C346.775 30.04 346.255 30.144 345.647 30.144ZM352.027 30.144C351.339 30.144 350.839 29.936 350.527 29.52C350.215 29.104 350.059 28.516 350.059 27.756V24.108H351.439V27.576C351.439 28.048 351.519 28.396 351.679 28.62C351.847 28.844 352.135 28.956 352.543 28.956C352.815 28.956 353.063 28.892 353.287 28.764C353.519 28.628 353.763 28.4 354.019 28.08V24.108H355.399V30H354.271L354.163 29.064H354.115C353.835 29.384 353.527 29.644 353.191 29.844C352.855 30.044 352.467 30.144 352.027 30.144ZM360.362 30.144C360.082 30.144 359.79 30.076 359.486 29.94C359.19 29.804 358.91 29.608 358.646 29.352H358.61L358.49 30H357.398V21.528H358.79V23.712L358.73 24.744H358.766C359.014 24.504 359.294 24.316 359.606 24.18C359.926 24.036 360.246 23.964 360.566 23.964C361.078 23.964 361.51 24.088 361.862 24.336C362.222 24.584 362.498 24.932 362.69 25.38C362.882 25.82 362.978 26.344 362.978 26.952C362.978 27.624 362.854 28.2 362.606 28.68C362.358 29.152 362.034 29.516 361.634 29.772C361.242 30.02 360.818 30.144 360.362 30.144ZM360.086 29.004C360.358 29.004 360.606 28.928 360.83 28.776C361.054 28.624 361.23 28.4 361.358 28.104C361.486 27.8 361.55 27.424 361.55 26.976C361.55 26.584 361.502 26.248 361.406 25.968C361.31 25.688 361.162 25.476 360.962 25.332C360.77 25.18 360.51 25.104 360.182 25.104C359.958 25.104 359.73 25.16 359.498 25.272C359.266 25.384 359.03 25.564 358.79 25.812V28.464C359.006 28.656 359.23 28.796 359.462 28.884C359.694 28.964 359.902 29.004 360.086 29.004ZM367.245 30.144C366.693 30.144 366.165 30.056 365.661 29.88C365.157 29.696 364.721 29.48 364.353 29.232L364.953 28.356C365.305 28.588 365.685 28.772 366.093 28.908C366.501 29.036 366.945 29.1 367.425 29.1C367.833 29.1 368.133 29.032 368.325 28.896C368.525 28.752 368.625 28.584 368.625 28.392C368.625 28.296 368.601 28.208 368.553 28.128C368.513 28.048 368.437 27.976 368.325 27.912C368.213 27.84 368.049 27.772 367.833 27.708C367.617 27.644 367.337 27.576 366.993 27.504C366.209 27.336 365.633 27.108 365.265 26.82C364.897 26.532 364.713 26.168 364.713 25.728C364.713 25.208 364.937 24.784 365.385 24.456C365.841 24.128 366.481 23.964 367.305 23.964C367.793 23.964 368.249 24.044 368.673 24.204C369.105 24.364 369.469 24.544 369.765 24.744L369.129 25.596C368.849 25.404 368.541 25.26 368.205 25.164C367.869 25.06 367.529 25.008 367.185 25.008C366.921 25.008 366.709 25.036 366.549 25.092C366.397 25.148 366.281 25.228 366.201 25.332C366.129 25.428 366.093 25.536 366.093 25.656C366.093 25.864 366.213 26.02 366.453 26.124C366.693 26.228 367.085 26.34 367.629 26.46C368.261 26.596 368.749 26.752 369.093 26.928C369.437 27.096 369.673 27.292 369.801 27.516C369.937 27.732 370.005 28 370.005 28.32C370.005 28.656 369.897 28.964 369.681 29.244C369.473 29.516 369.165 29.736 368.757 29.904C368.349 30.064 367.845 30.144 367.245 30.144ZM374.933 30.144C374.317 30.144 373.761 30.024 373.265 29.784C372.777 29.536 372.389 29.184 372.101 28.728C371.821 28.264 371.681 27.708 371.681 27.06C371.681 26.404 371.833 25.848 372.137 25.392C372.449 24.928 372.861 24.576 373.373 24.336C373.885 24.088 374.437 23.964 375.029 23.964C375.509 23.964 375.933 24.044 376.301 24.204C376.669 24.356 376.973 24.552 377.213 24.792L376.553 25.656C376.321 25.472 376.085 25.332 375.845 25.236C375.613 25.14 375.365 25.092 375.101 25.092C374.709 25.092 374.361 25.176 374.057 25.344C373.761 25.504 373.529 25.732 373.361 26.028C373.193 26.324 373.109 26.668 373.109 27.06C373.109 27.452 373.189 27.796 373.349 28.092C373.517 28.388 373.745 28.616 374.033 28.776C374.329 28.936 374.673 29.016 375.065 29.016C375.401 29.016 375.709 28.952 375.989 28.824C376.269 28.696 376.521 28.544 376.745 28.368L377.321 29.256C376.985 29.544 376.609 29.764 376.193 29.916C375.777 30.068 375.357 30.144 374.933 30.144ZM379.56 30V24.108H380.7L380.82 25.44H380.856C381.152 24.96 381.516 24.596 381.948 24.348C382.388 24.092 382.86 23.964 383.364 23.964C383.604 23.964 383.812 23.984 383.988 24.024C384.164 24.064 384.336 24.124 384.504 24.204L384.216 25.368C384.024 25.304 383.852 25.26 383.7 25.236C383.556 25.204 383.372 25.188 383.148 25.188C382.748 25.188 382.356 25.304 381.972 25.536C381.596 25.768 381.256 26.172 380.952 26.748V30H379.56ZM388.759 30V25.2H386.203V24.108H390.139V30H388.759ZM389.347 23.028C389.067 23.028 388.831 22.944 388.639 22.776C388.455 22.608 388.363 22.384 388.363 22.104C388.363 21.824 388.455 21.6 388.639 21.432C388.831 21.256 389.067 21.168 389.347 21.168C389.635 21.168 389.871 21.256 390.055 21.432C390.239 21.6 390.331 21.824 390.331 22.104C390.331 22.384 390.239 22.608 390.055 22.776C389.871 22.944 389.635 23.028 389.347 23.028ZM396.339 30.144C396.059 30.144 395.767 30.076 395.463 29.94C395.167 29.804 394.887 29.608 394.623 29.352H394.587L394.467 30H393.375V21.528H394.767V23.712L394.707 24.744H394.743C394.991 24.504 395.271 24.316 395.583 24.18C395.903 24.036 396.223 23.964 396.543 23.964C397.055 23.964 397.487 24.088 397.839 24.336C398.199 24.584 398.475 24.932 398.667 25.38C398.859 25.82 398.955 26.344 398.955 26.952C398.955 27.624 398.831 28.2 398.583 28.68C398.335 29.152 398.011 29.516 397.611 29.772C397.219 30.02 396.795 30.144 396.339 30.144ZM396.063 29.004C396.335 29.004 396.583 28.928 396.807 28.776C397.031 28.624 397.207 28.4 397.335 28.104C397.463 27.8 397.527 27.424 397.527 26.976C397.527 26.584 397.479 26.248 397.383 25.968C397.287 25.688 397.139 25.476 396.939 25.332C396.747 25.18 396.487 25.104 396.159 25.104C395.935 25.104 395.707 25.16 395.475 25.272C395.243 25.384 395.007 25.564 394.767 25.812V28.464C394.983 28.656 395.207 28.796 395.439 28.884C395.671 28.964 395.879 29.004 396.063 29.004ZM403.546 30.144C402.946 30.144 402.402 30.024 401.914 29.784C401.426 29.536 401.038 29.184 400.75 28.728C400.462 28.264 400.318 27.704 400.318 27.048C400.318 26.408 400.462 25.86 400.75 25.404C401.038 24.94 401.414 24.584 401.878 24.336C402.342 24.088 402.838 23.964 403.366 23.964C403.95 23.964 404.442 24.084 404.842 24.324C405.25 24.564 405.558 24.896 405.766 25.32C405.982 25.736 406.09 26.216 406.09 26.76C406.09 26.896 406.082 27.028 406.066 27.156C406.058 27.276 406.046 27.376 406.03 27.456H401.314V26.472H405.142L404.878 26.784C404.878 26.2 404.746 25.764 404.482 25.476C404.226 25.18 403.866 25.032 403.402 25.032C403.074 25.032 402.778 25.108 402.514 25.26C402.258 25.412 402.054 25.64 401.902 25.944C401.75 26.24 401.674 26.608 401.674 27.048C401.674 27.504 401.758 27.88 401.926 28.176C402.102 28.472 402.342 28.696 402.646 28.848C402.958 29 403.318 29.076 403.726 29.076C404.038 29.076 404.326 29.032 404.59 28.944C404.854 28.856 405.118 28.736 405.382 28.584L405.85 29.448C405.538 29.648 405.186 29.816 404.794 29.952C404.402 30.08 403.986 30.144 403.546 30.144ZM409.937 30.144C409.185 30.144 408.577 29.872 408.113 29.328C407.649 28.784 407.417 28.028 407.417 27.06C407.417 26.42 407.541 25.868 407.789 25.404C408.037 24.94 408.361 24.584 408.761 24.336C409.161 24.088 409.581 23.964 410.021 23.964C410.357 23.964 410.653 24.024 410.909 24.144C411.173 24.264 411.417 24.436 411.641 24.66H411.677L411.605 23.664V21.528H412.997V30H411.857L411.749 29.316H411.713C411.489 29.54 411.221 29.736 410.909 29.904C410.597 30.064 410.273 30.144 409.937 30.144ZM410.273 29.004C410.513 29.004 410.745 28.948 410.969 28.836C411.193 28.716 411.405 28.536 411.605 28.296V25.644C411.397 25.444 411.189 25.304 410.981 25.224C410.773 25.144 410.561 25.104 410.345 25.104C410.073 25.104 409.821 25.18 409.589 25.332C409.365 25.484 409.185 25.704 409.049 25.992C408.913 26.28 408.845 26.632 408.845 27.048C408.845 27.68 408.969 28.164 409.217 28.5C409.473 28.836 409.825 29.004 410.273 29.004Z" fill="#9B51E0"/>
<path d="M318.429 287L321.821 276.536H323.997L327.389 287H325.421L323.837 281.432C323.688 280.877 323.528 280.307 323.357 279.72C323.197 279.133 323.048 278.552 322.909 277.976H322.845C322.696 278.552 322.541 279.133 322.381 279.72C322.232 280.307 322.077 280.877 321.917 281.432L320.317 287H318.429ZM320.429 284.168V282.712H325.341V284.168H320.429ZM332.279 290.472C331.554 290.472 330.924 290.392 330.391 290.232C329.858 290.083 329.442 289.853 329.143 289.544C328.844 289.235 328.695 288.845 328.695 288.376C328.695 288.067 328.802 287.768 329.015 287.48C329.228 287.192 329.538 286.941 329.943 286.728V286.664C329.74 286.536 329.554 286.371 329.383 286.168C329.223 285.955 329.143 285.683 329.143 285.352C329.143 285.096 329.228 284.835 329.399 284.568C329.57 284.301 329.799 284.072 330.087 283.88V283.816C329.81 283.613 329.57 283.341 329.367 283C329.175 282.648 329.079 282.243 329.079 281.784C329.079 281.176 329.228 280.664 329.527 280.248C329.826 279.821 330.22 279.501 330.711 279.288C331.202 279.064 331.735 278.952 332.311 278.952C332.78 278.952 333.191 279.016 333.543 279.144H336.759V280.552H334.951C335.09 280.701 335.207 280.893 335.303 281.128C335.41 281.352 335.463 281.592 335.463 281.848C335.463 282.424 335.319 282.915 335.031 283.32C334.754 283.715 334.38 284.013 333.911 284.216C333.442 284.419 332.908 284.52 332.311 284.52C332.13 284.52 331.932 284.504 331.719 284.472C331.516 284.429 331.314 284.371 331.111 284.296C330.951 284.392 330.828 284.499 330.743 284.616C330.668 284.733 330.631 284.872 330.631 285.032C330.631 285.277 330.754 285.464 330.999 285.592C331.255 285.709 331.628 285.768 332.119 285.768H333.719C334.743 285.768 335.511 285.917 336.023 286.216C336.546 286.504 336.807 286.995 336.807 287.688C336.807 288.2 336.62 288.669 336.247 289.096C335.884 289.523 335.362 289.859 334.679 290.104C334.007 290.349 333.207 290.472 332.279 290.472ZM332.311 283.352C332.588 283.352 332.839 283.293 333.063 283.176C333.287 283.048 333.463 282.867 333.591 282.632C333.73 282.397 333.799 282.115 333.799 281.784C333.799 281.464 333.73 281.192 333.591 280.968C333.463 280.733 333.287 280.552 333.063 280.424C332.839 280.296 332.588 280.232 332.311 280.232C332.044 280.232 331.799 280.296 331.575 280.424C331.351 280.552 331.17 280.733 331.031 280.968C330.892 281.192 330.823 281.464 330.823 281.784C330.823 282.115 330.892 282.397 331.031 282.632C331.17 282.867 331.351 283.048 331.575 283.176C331.799 283.293 332.044 283.352 332.311 283.352ZM332.503 289.256C333.015 289.256 333.458 289.197 333.831 289.08C334.215 288.963 334.508 288.808 334.711 288.616C334.924 288.424 335.031 288.216 335.031 287.992C335.031 287.683 334.898 287.475 334.631 287.368C334.375 287.272 333.98 287.224 333.447 287.224H332.199C331.943 287.224 331.719 287.213 331.527 287.192C331.335 287.171 331.159 287.144 330.999 287.112C330.722 287.272 330.524 287.437 330.407 287.608C330.29 287.779 330.231 287.955 330.231 288.136C330.231 288.488 330.428 288.76 330.823 288.952C331.218 289.155 331.778 289.256 332.503 289.256ZM342.577 287.192C341.777 287.192 341.052 287.032 340.401 286.712C339.75 286.381 339.233 285.912 338.849 285.304C338.465 284.685 338.273 283.939 338.273 283.064C338.273 282.211 338.465 281.48 338.849 280.872C339.233 280.253 339.734 279.779 340.353 279.448C340.972 279.117 341.633 278.952 342.337 278.952C343.116 278.952 343.772 279.112 344.305 279.432C344.849 279.752 345.26 280.195 345.537 280.76C345.825 281.315 345.969 281.955 345.969 282.68C345.969 282.861 345.958 283.037 345.937 283.208C345.926 283.368 345.91 283.501 345.889 283.608H339.601V282.296H344.705L344.353 282.712C344.353 281.933 344.177 281.352 343.825 280.968C343.484 280.573 343.004 280.376 342.385 280.376C341.948 280.376 341.553 280.477 341.201 280.68C340.86 280.883 340.588 281.187 340.385 281.592C340.182 281.987 340.081 282.477 340.081 283.064C340.081 283.672 340.193 284.173 340.417 284.568C340.652 284.963 340.972 285.261 341.377 285.464C341.793 285.667 342.273 285.768 342.817 285.768C343.233 285.768 343.617 285.709 343.969 285.592C344.321 285.475 344.673 285.315 345.025 285.112L345.649 286.264C345.233 286.531 344.764 286.755 344.241 286.936C343.718 287.107 343.164 287.192 342.577 287.192Z" fill="#232A3D"/>
<path d="M23.789 34.192C23.1383 34.192 22.525 34.0747 21.949 33.84C21.3837 33.6053 20.8823 33.2587 20.445 32.8C20.0183 32.3413 19.6823 31.776 19.437 31.104C19.2023 30.432 19.085 29.664 19.085 28.8C19.085 27.6587 19.293 26.6827 19.709 25.872C20.1357 25.0507 20.7117 24.4267 21.437 24C22.173 23.5627 22.9997 23.344 23.917 23.344C24.5677 23.344 25.149 23.4773 25.661 23.744C26.173 24.0107 26.589 24.3147 26.909 24.656L25.885 25.808C25.629 25.5413 25.341 25.3333 25.021 25.184C24.701 25.0347 24.333 24.96 23.917 24.96C23.341 24.96 22.829 25.1147 22.381 25.424C21.9437 25.7227 21.6023 26.1547 21.357 26.72C21.1117 27.2853 20.989 27.9627 20.989 28.752C20.989 29.5413 21.1117 30.224 21.357 30.8C21.6023 31.376 21.949 31.8187 22.397 32.128C22.845 32.4267 23.3677 32.576 23.965 32.576C24.4023 32.576 24.7917 32.4853 25.133 32.304C25.4743 32.112 25.7943 31.856 26.093 31.536L27.117 32.672C26.701 33.1627 26.2157 33.5413 25.661 33.808C25.1063 34.064 24.4823 34.192 23.789 34.192ZM31.4788 34.192C30.9668 34.192 30.5134 34.096 30.1188 33.904C29.7241 33.7013 29.4148 33.4293 29.1908 33.088C28.9668 32.7467 28.8548 32.3467 28.8548 31.888C28.8548 31.0133 29.2708 30.3467 30.1028 29.888C30.9454 29.4187 32.3374 29.1147 34.2788 28.976C34.2574 28.688 34.1774 28.4267 34.0388 28.192C33.9108 27.9573 33.7134 27.776 33.4468 27.648C33.1801 27.5093 32.8334 27.44 32.4068 27.44C32.1081 27.44 31.8148 27.4773 31.5268 27.552C31.2388 27.6267 30.9508 27.728 30.6628 27.856C30.3854 27.984 30.1081 28.1227 29.8307 28.272L29.1588 27.04C29.4788 26.848 29.8308 26.672 30.2148 26.512C30.5988 26.3413 31.0041 26.208 31.4308 26.112C31.8574 26.0053 32.2948 25.952 32.7428 25.952C33.4788 25.952 34.0921 26.0853 34.5828 26.352C35.0841 26.608 35.4628 26.992 35.7188 27.504C35.9854 28.0053 36.1188 28.6187 36.1188 29.344V34H34.6148L34.4708 33.024H34.4228C34.0068 33.344 33.5428 33.6213 33.0308 33.856C32.5294 34.08 32.0121 34.192 31.4788 34.192ZM32.0388 32.752C32.4334 32.752 32.8121 32.6667 33.1748 32.496C33.5481 32.3147 33.9161 32.08 34.2788 31.792V30.128C33.3401 30.192 32.6041 30.2987 32.0708 30.448C31.5374 30.5867 31.1641 30.768 30.9508 30.992C30.7374 31.216 30.6308 31.4667 30.6308 31.744C30.6308 31.9787 30.6948 32.1707 30.8228 32.32C30.9508 32.4693 31.1161 32.5813 31.3188 32.656C31.5321 32.72 31.7721 32.752 32.0388 32.752ZM38.0485 34V26.144H39.4725L39.6165 27.136H39.6645C39.8352 26.7947 40.0538 26.512 40.3205 26.288C40.5872 26.064 40.9498 25.952 41.4085 25.952C41.7712 25.952 42.0752 26.064 42.3205 26.288C42.5658 26.5013 42.7365 26.8267 42.8325 27.264C43.0138 26.88 43.2432 26.5653 43.5205 26.32C43.7978 26.0747 44.1658 25.952 44.6245 25.952C45.1792 25.952 45.6058 26.1707 45.9045 26.608C46.2138 27.0347 46.3685 27.6427 46.3685 28.432V34H44.5925V28.56C44.5925 27.8667 44.3845 27.52 43.9685 27.52C43.7552 27.52 43.5738 27.6 43.4245 27.76C43.2858 27.92 43.1365 28.1707 42.9765 28.512V34H41.4405V28.56C41.4405 28.2187 41.3925 27.9627 41.2965 27.792C41.2005 27.6107 41.0405 27.52 40.8165 27.52C40.6138 27.52 40.4378 27.6 40.2885 27.76C40.1392 27.92 39.9898 28.1707 39.8405 28.512V34H38.0485ZM48.2183 37.104V26.144H49.7383L49.8823 27.04H49.9303C50.2716 26.72 50.6609 26.4587 51.0983 26.256C51.5463 26.0533 51.9943 25.952 52.4423 25.952C53.1356 25.952 53.7169 26.1173 54.1863 26.448C54.6556 26.7787 55.0183 27.2427 55.2743 27.84C55.5303 28.4373 55.6583 29.1413 55.6583 29.952C55.6583 30.848 55.4929 31.6107 55.1623 32.24C54.8316 32.8693 54.3996 33.3547 53.8663 33.696C53.3436 34.0267 52.7783 34.192 52.1703 34.192C51.8183 34.192 51.4503 34.112 51.0663 33.952C50.6929 33.792 50.3463 33.5627 50.0263 33.264H49.9783L50.0743 34.64V37.104H48.2183ZM51.7863 32.672C52.1596 32.672 52.4956 32.5707 52.7943 32.368C53.0929 32.1653 53.3276 31.8667 53.4983 31.472C53.6689 31.0667 53.7543 30.5653 53.7543 29.968C53.7543 29.4453 53.6903 28.9973 53.5623 28.624C53.4343 28.2507 53.2369 27.968 52.9703 27.776C52.7143 27.5733 52.3676 27.472 51.9303 27.472C51.6316 27.472 51.3276 27.5467 51.0182 27.696C50.7089 27.8453 50.3943 28.0853 50.0743 28.416V31.952C50.3623 32.208 50.6609 32.3947 50.9703 32.512C51.2796 32.6187 51.5516 32.672 51.7863 32.672ZM60.26 34.192C59.748 34.192 59.2947 34.096 58.9 33.904C58.5053 33.7013 58.196 33.4293 57.972 33.088C57.748 32.7467 57.636 32.3467 57.636 31.888C57.636 31.0133 58.052 30.3467 58.884 29.888C59.7267 29.4187 61.1187 29.1147 63.06 28.976C63.0387 28.688 62.9587 28.4267 62.82 28.192C62.692 27.9573 62.4947 27.776 62.228 27.648C61.9613 27.5093 61.6147 27.44 61.188 27.44C60.8893 27.44 60.596 27.4773 60.308 27.552C60.02 27.6267 59.732 27.728 59.444 27.856C59.1667 27.984 58.8893 28.1227 58.612 28.272L57.94 27.04C58.26 26.848 58.612 26.672 58.996 26.512C59.38 26.3413 59.7853 26.208 60.212 26.112C60.6387 26.0053 61.076 25.952 61.524 25.952C62.26 25.952 62.8733 26.0853 63.364 26.352C63.8653 26.608 64.244 26.992 64.5 27.504C64.7667 28.0053 64.9 28.6187 64.9 29.344V34H63.396L63.252 33.024H63.204C62.788 33.344 62.324 33.6213 61.812 33.856C61.3107 34.08 60.7933 34.192 60.26 34.192ZM60.82 32.752C61.2147 32.752 61.5933 32.6667 61.956 32.496C62.3293 32.3147 62.6973 32.08 63.06 31.792V30.128C62.1213 30.192 61.3853 30.2987 60.852 30.448C60.3187 30.5867 59.9453 30.768 59.732 30.992C59.5187 31.216 59.412 31.4667 59.412 31.744C59.412 31.9787 59.476 32.1707 59.604 32.32C59.732 32.4693 59.8973 32.5813 60.1 32.656C60.3133 32.72 60.5533 32.752 60.82 32.752ZM70.8458 34V27.6H67.4378V26.144H72.6858V34H70.8458ZM71.6298 24.704C71.2564 24.704 70.9418 24.592 70.6858 24.368C70.4404 24.144 70.3177 23.8453 70.3177 23.472C70.3177 23.0987 70.4404 22.8 70.6858 22.576C70.9418 22.3413 71.2564 22.224 71.6298 22.224C72.0138 22.224 72.3284 22.3413 72.5738 22.576C72.8191 22.8 72.9418 23.0987 72.9418 23.472C72.9418 23.8453 72.8191 24.144 72.5738 24.368C72.3284 24.592 72.0138 24.704 71.6298 24.704ZM80.2635 37.472C79.5382 37.472 78.9088 37.392 78.3755 37.232C77.8422 37.0827 77.4262 36.8533 77.1275 36.544C76.8288 36.2347 76.6795 35.8453 76.6795 35.376C76.6795 35.0667 76.7862 34.768 76.9995 34.48C77.2128 34.192 77.5222 33.9413 77.9275 33.728V33.664C77.7248 33.536 77.5382 33.3707 77.3675 33.168C77.2075 32.9547 77.1275 32.6827 77.1275 32.352C77.1275 32.096 77.2128 31.8347 77.3835 31.568C77.5542 31.3013 77.7835 31.072 78.0715 30.88V30.816C77.7942 30.6133 77.5542 30.3413 77.3515 30C77.1595 29.648 77.0635 29.2427 77.0635 28.784C77.0635 28.176 77.2128 27.664 77.5115 27.248C77.8102 26.8213 78.2048 26.5013 78.6955 26.288C79.1862 26.064 79.7195 25.952 80.2955 25.952C80.7648 25.952 81.1755 26.016 81.5275 26.144H84.7435V27.552H82.9355C83.0742 27.7013 83.1915 27.8933 83.2875 28.128C83.3942 28.352 83.4475 28.592 83.4475 28.848C83.4475 29.424 83.3035 29.9147 83.0155 30.32C82.7382 30.7147 82.3648 31.0133 81.8955 31.216C81.4262 31.4187 80.8928 31.52 80.2955 31.52C80.1142 31.52 79.9168 31.504 79.7035 31.472C79.5008 31.4293 79.2982 31.3707 79.0955 31.296C78.9355 31.392 78.8128 31.4987 78.7275 31.616C78.6528 31.7333 78.6155 31.872 78.6155 32.032C78.6155 32.2773 78.7382 32.464 78.9835 32.592C79.2395 32.7093 79.6128 32.768 80.1035 32.768H81.7035C82.7275 32.768 83.4955 32.9173 84.0075 33.216C84.5302 33.504 84.7915 33.9947 84.7915 34.688C84.7915 35.2 84.6048 35.6693 84.2315 36.096C83.8688 36.5227 83.3462 36.8587 82.6635 37.104C81.9915 37.3493 81.1915 37.472 80.2635 37.472ZM80.2955 30.352C80.5728 30.352 80.8235 30.2933 81.0475 30.176C81.2715 30.048 81.4475 29.8667 81.5755 29.632C81.7142 29.3973 81.7835 29.1147 81.7835 28.784C81.7835 28.464 81.7142 28.192 81.5755 27.968C81.4475 27.7333 81.2715 27.552 81.0475 27.424C80.8235 27.296 80.5728 27.232 80.2955 27.232C80.0288 27.232 79.7835 27.296 79.5595 27.424C79.3355 27.552 79.1542 27.7333 79.0155 27.968C78.8768 28.192 78.8075 28.464 78.8075 28.784C78.8075 29.1147 78.8768 29.3973 79.0155 29.632C79.1542 29.8667 79.3355 30.048 79.5595 30.176C79.7835 30.2933 80.0288 30.352 80.2955 30.352ZM80.4875 36.256C80.9995 36.256 81.4422 36.1973 81.8155 36.08C82.1995 35.9627 82.4928 35.808 82.6955 35.616C82.9088 35.424 83.0155 35.216 83.0155 34.992C83.0155 34.6827 82.8822 34.4747 82.6155 34.368C82.3595 34.272 81.9648 34.224 81.4315 34.224H80.1835C79.9275 34.224 79.7035 34.2133 79.5115 34.192C79.3195 34.1707 79.1435 34.144 78.9835 34.112C78.7062 34.272 78.5088 34.4373 78.3915 34.608C78.2742 34.7787 78.2155 34.9547 78.2155 35.136C78.2155 35.488 78.4128 35.76 78.8075 35.952C79.2022 36.1547 79.7622 36.256 80.4875 36.256ZM86.5933 34V26.144H88.1133L88.2573 27.328H88.3213C88.6946 26.944 89.1053 26.6187 89.5533 26.352C90.0119 26.0853 90.5453 25.952 91.1533 25.952C92.0599 25.952 92.7266 26.2293 93.1533 26.784C93.5799 27.3387 93.7933 28.1227 93.7933 29.136V34H91.9373V29.376C91.9373 28.7467 91.8253 28.2827 91.6013 27.984C91.3773 27.6853 90.9986 27.536 90.4653 27.536C90.0813 27.536 89.7399 27.6267 89.4413 27.808C89.1426 27.9893 88.8119 28.2667 88.4493 28.64V34H86.5933Z" fill="#232A3D"/>
<path d="M343.021 58V50.152H344.485L346.561 54.556L347.269 56.236H347.305C347.281 55.836 347.241 55.4 347.185 54.928C347.137 54.456 347.113 54 347.113 53.56V50.152H348.445V58H346.981L344.905 53.584L344.197 51.916H344.161C344.185 52.332 344.221 52.772 344.269 53.236C344.325 53.692 344.353 54.136 344.353 54.568V58H343.021ZM352.928 58.144C352.408 58.144 351.924 58.024 351.476 57.784C351.028 57.536 350.664 57.184 350.384 56.728C350.104 56.264 349.964 55.708 349.964 55.06C349.964 54.404 350.104 53.848 350.384 53.392C350.664 52.928 351.028 52.576 351.476 52.336C351.924 52.088 352.408 51.964 352.928 51.964C353.448 51.964 353.932 52.088 354.38 52.336C354.828 52.576 355.192 52.928 355.472 53.392C355.752 53.848 355.892 54.404 355.892 55.06C355.892 55.708 355.752 56.264 355.472 56.728C355.192 57.184 354.828 57.536 354.38 57.784C353.932 58.024 353.448 58.144 352.928 58.144ZM352.928 57.016C353.248 57.016 353.524 56.936 353.756 56.776C353.988 56.616 354.164 56.388 354.284 56.092C354.404 55.796 354.464 55.452 354.464 55.06C354.464 54.668 354.404 54.324 354.284 54.028C354.164 53.732 353.988 53.504 353.756 53.344C353.524 53.176 353.248 53.092 352.928 53.092C352.608 53.092 352.332 53.176 352.1 53.344C351.876 53.504 351.7 53.732 351.572 54.028C351.452 54.324 351.392 54.668 351.392 55.06C351.392 55.452 351.452 55.796 351.572 56.092C351.7 56.388 351.876 56.616 352.1 56.776C352.332 56.936 352.608 57.016 352.928 57.016ZM361.215 58.144C360.615 58.144 360.139 58.04 359.787 57.832C359.435 57.616 359.183 57.32 359.031 56.944C358.879 56.568 358.803 56.132 358.803 55.636V53.2H357.231V52.168L358.863 52.108L359.043 50.26H360.183V52.108H362.871V53.2H360.183V55.624C360.183 55.944 360.227 56.212 360.315 56.428C360.403 56.636 360.547 56.792 360.747 56.896C360.947 56.992 361.211 57.04 361.539 57.04C361.795 57.04 362.027 57.02 362.235 56.98C362.443 56.94 362.643 56.884 362.835 56.812L363.099 57.808C362.835 57.896 362.551 57.972 362.247 58.036C361.943 58.108 361.599 58.144 361.215 58.144ZM374.538 58.144C373.986 58.144 373.458 58.044 372.954 57.844C372.45 57.644 372.002 57.36 371.61 56.992L372.426 56.044C372.722 56.308 373.058 56.524 373.434 56.692C373.81 56.852 374.206 56.932 374.622 56.932C375.078 56.932 375.426 56.844 375.666 56.668C375.906 56.484 376.026 56.256 376.026 55.984C376.026 55.752 375.97 55.568 375.858 55.432C375.746 55.288 375.59 55.168 375.39 55.072C375.198 54.976 374.97 54.876 374.706 54.772L373.638 54.304C373.366 54.192 373.098 54.048 372.834 53.872C372.578 53.696 372.366 53.472 372.198 53.2C372.038 52.928 371.958 52.6 371.958 52.216C371.958 51.8 372.074 51.428 372.306 51.1C372.538 50.764 372.858 50.5 373.266 50.308C373.682 50.108 374.154 50.008 374.682 50.008C375.162 50.008 375.618 50.1 376.05 50.284C376.49 50.46 376.874 50.7 377.202 51.004L376.482 51.892C376.218 51.676 375.938 51.512 375.642 51.4C375.354 51.28 375.01 51.22 374.61 51.22C374.242 51.22 373.942 51.3 373.71 51.46C373.478 51.62 373.362 51.848 373.362 52.144C373.362 52.344 373.426 52.508 373.554 52.636C373.682 52.764 373.846 52.876 374.046 52.972C374.254 53.068 374.474 53.16 374.706 53.248L375.738 53.692C376.074 53.82 376.37 53.976 376.626 54.16C376.882 54.344 377.082 54.572 377.226 54.844C377.37 55.108 377.442 55.432 377.442 55.816C377.442 56.24 377.326 56.628 377.094 56.98C376.862 57.332 376.53 57.616 376.098 57.832C375.666 58.04 375.146 58.144 374.538 58.144ZM380.917 58.144C380.229 58.144 379.729 57.936 379.417 57.52C379.105 57.104 378.949 56.516 378.949 55.756V52.108H380.329V55.576C380.329 56.048 380.409 56.396 380.569 56.62C380.737 56.844 381.025 56.956 381.433 56.956C381.705 56.956 381.953 56.892 382.177 56.764C382.409 56.628 382.653 56.4 382.909 56.08V52.108H384.289V58H383.161L383.053 57.064H383.005C382.725 57.384 382.417 57.644 382.081 57.844C381.745 58.044 381.357 58.144 380.917 58.144ZM389.253 58.144C388.973 58.144 388.681 58.076 388.377 57.94C388.081 57.804 387.801 57.608 387.537 57.352H387.501L387.381 58H386.289V49.528H387.681V51.712L387.621 52.744H387.657C387.905 52.504 388.185 52.316 388.497 52.18C388.817 52.036 389.137 51.964 389.457 51.964C389.969 51.964 390.401 52.088 390.753 52.336C391.113 52.584 391.389 52.932 391.581 53.38C391.773 53.82 391.869 54.344 391.869 54.952C391.869 55.624 391.745 56.2 391.497 56.68C391.249 57.152 390.925 57.516 390.525 57.772C390.133 58.02 389.709 58.144 389.253 58.144ZM388.977 57.004C389.249 57.004 389.497 56.928 389.721 56.776C389.945 56.624 390.121 56.4 390.249 56.104C390.377 55.8 390.441 55.424 390.441 54.976C390.441 54.584 390.393 54.248 390.297 53.968C390.201 53.688 390.053 53.476 389.853 53.332C389.661 53.18 389.401 53.104 389.073 53.104C388.849 53.104 388.621 53.16 388.389 53.272C388.157 53.384 387.921 53.564 387.681 53.812V56.464C387.897 56.656 388.121 56.796 388.353 56.884C388.585 56.964 388.793 57.004 388.977 57.004ZM396.136 58.144C395.584 58.144 395.056 58.056 394.552 57.88C394.048 57.696 393.612 57.48 393.244 57.232L393.844 56.356C394.196 56.588 394.576 56.772 394.984 56.908C395.392 57.036 395.836 57.1 396.316 57.1C396.724 57.1 397.024 57.032 397.216 56.896C397.416 56.752 397.516 56.584 397.516 56.392C397.516 56.296 397.492 56.208 397.444 56.128C397.404 56.048 397.328 55.976 397.216 55.912C397.104 55.84 396.94 55.772 396.724 55.708C396.508 55.644 396.228 55.576 395.884 55.504C395.1 55.336 394.524 55.108 394.156 54.82C393.788 54.532 393.604 54.168 393.604 53.728C393.604 53.208 393.828 52.784 394.276 52.456C394.732 52.128 395.372 51.964 396.196 51.964C396.684 51.964 397.14 52.044 397.564 52.204C397.996 52.364 398.36 52.544 398.656 52.744L398.02 53.596C397.74 53.404 397.432 53.26 397.096 53.164C396.76 53.06 396.42 53.008 396.076 53.008C395.812 53.008 395.6 53.036 395.44 53.092C395.288 53.148 395.172 53.228 395.092 53.332C395.02 53.428 394.984 53.536 394.984 53.656C394.984 53.864 395.104 54.02 395.344 54.124C395.584 54.228 395.976 54.34 396.52 54.46C397.152 54.596 397.64 54.752 397.984 54.928C398.328 55.096 398.564 55.292 398.692 55.516C398.828 55.732 398.896 56 398.896 56.32C398.896 56.656 398.788 56.964 398.572 57.244C398.364 57.516 398.056 57.736 397.648 57.904C397.24 58.064 396.736 58.144 396.136 58.144ZM403.823 58.144C403.207 58.144 402.651 58.024 402.155 57.784C401.667 57.536 401.279 57.184 400.991 56.728C400.711 56.264 400.571 55.708 400.571 55.06C400.571 54.404 400.723 53.848 401.027 53.392C401.339 52.928 401.751 52.576 402.263 52.336C402.775 52.088 403.327 51.964 403.919 51.964C404.399 51.964 404.823 52.044 405.191 52.204C405.559 52.356 405.863 52.552 406.103 52.792L405.443 53.656C405.211 53.472 404.975 53.332 404.735 53.236C404.503 53.14 404.255 53.092 403.991 53.092C403.599 53.092 403.251 53.176 402.947 53.344C402.651 53.504 402.419 53.732 402.251 54.028C402.083 54.324 401.999 54.668 401.999 55.06C401.999 55.452 402.079 55.796 402.239 56.092C402.407 56.388 402.635 56.616 402.923 56.776C403.219 56.936 403.563 57.016 403.955 57.016C404.291 57.016 404.599 56.952 404.879 56.824C405.159 56.696 405.411 56.544 405.635 56.368L406.211 57.256C405.875 57.544 405.499 57.764 405.083 57.916C404.667 58.068 404.247 58.144 403.823 58.144ZM408.451 58V52.108H409.591L409.711 53.44H409.747C410.043 52.96 410.407 52.596 410.839 52.348C411.279 52.092 411.751 51.964 412.255 51.964C412.495 51.964 412.703 51.984 412.879 52.024C413.055 52.064 413.227 52.124 413.395 52.204L413.107 53.368C412.915 53.304 412.743 53.26 412.591 53.236C412.447 53.204 412.263 53.188 412.039 53.188C411.639 53.188 411.247 53.304 410.863 53.536C410.487 53.768 410.147 54.172 409.843 54.748V58H408.451ZM417.65 58V53.2H415.094V52.108H419.03V58H417.65ZM418.238 51.028C417.958 51.028 417.722 50.944 417.53 50.776C417.346 50.608 417.254 50.384 417.254 50.104C417.254 49.824 417.346 49.6 417.53 49.432C417.722 49.256 417.958 49.168 418.238 49.168C418.526 49.168 418.762 49.256 418.946 49.432C419.13 49.6 419.222 49.824 419.222 50.104C419.222 50.384 419.13 50.608 418.946 50.776C418.762 50.944 418.526 51.028 418.238 51.028ZM425.229 58.144C424.949 58.144 424.657 58.076 424.353 57.94C424.057 57.804 423.777 57.608 423.513 57.352H423.477L423.357 58H422.265V49.528H423.657V51.712L423.597 52.744H423.633C423.881 52.504 424.161 52.316 424.473 52.18C424.793 52.036 425.113 51.964 425.433 51.964C425.945 51.964 426.377 52.088 426.729 52.336C427.089 52.584 427.365 52.932 427.557 53.38C427.749 53.82 427.845 54.344 427.845 54.952C427.845 55.624 427.721 56.2 427.473 56.68C427.225 57.152 426.901 57.516 426.501 57.772C426.109 58.02 425.685 58.144 425.229 58.144ZM424.953 57.004C425.225 57.004 425.473 56.928 425.697 56.776C425.921 56.624 426.097 56.4 426.225 56.104C426.353 55.8 426.417 55.424 426.417 54.976C426.417 54.584 426.369 54.248 426.273 53.968C426.177 53.688 426.029 53.476 425.829 53.332C425.637 53.18 425.377 53.104 425.049 53.104C424.825 53.104 424.597 53.16 424.365 53.272C424.133 53.384 423.897 53.564 423.657 53.812V56.464C423.873 56.656 424.097 56.796 424.329 56.884C424.561 56.964 424.769 57.004 424.953 57.004ZM432.437 58.144C431.837 58.144 431.293 58.024 430.805 57.784C430.317 57.536 429.929 57.184 429.641 56.728C429.353 56.264 429.209 55.704 429.209 55.048C429.209 54.408 429.353 53.86 429.641 53.404C429.929 52.94 430.305 52.584 430.769 52.336C431.233 52.088 431.729 51.964 432.257 51.964C432.841 51.964 433.333 52.084 433.733 52.324C434.141 52.564 434.449 52.896 434.657 53.32C434.873 53.736 434.981 54.216 434.981 54.76C434.981 54.896 434.973 55.028 434.957 55.156C434.949 55.276 434.937 55.376 434.921 55.456H430.205V54.472H434.033L433.769 54.784C433.769 54.2 433.637 53.764 433.373 53.476C433.117 53.18 432.757 53.032 432.293 53.032C431.965 53.032 431.669 53.108 431.405 53.26C431.149 53.412 430.945 53.64 430.793 53.944C430.641 54.24 430.565 54.608 430.565 55.048C430.565 55.504 430.649 55.88 430.817 56.176C430.993 56.472 431.233 56.696 431.537 56.848C431.849 57 432.209 57.076 432.617 57.076C432.929 57.076 433.217 57.032 433.481 56.944C433.745 56.856 434.009 56.736 434.273 56.584L434.741 57.448C434.429 57.648 434.077 57.816 433.685 57.952C433.293 58.08 432.877 58.144 432.437 58.144ZM438.828 58.144C438.076 58.144 437.468 57.872 437.004 57.328C436.54 56.784 436.308 56.028 436.308 55.06C436.308 54.42 436.432 53.868 436.68 53.404C436.928 52.94 437.252 52.584 437.652 52.336C438.052 52.088 438.472 51.964 438.912 51.964C439.248 51.964 439.544 52.024 439.8 52.144C440.064 52.264 440.308 52.436 440.532 52.66H440.568L440.496 51.664V49.528H441.888V58H440.748L440.64 57.316H440.604C440.38 57.54 440.112 57.736 439.8 57.904C439.488 58.064 439.164 58.144 438.828 58.144ZM439.164 57.004C439.404 57.004 439.636 56.948 439.86 56.836C440.084 56.716 440.296 56.536 440.496 56.296V53.644C440.288 53.444 440.08 53.304 439.872 53.224C439.664 53.144 439.452 53.104 439.236 53.104C438.964 53.104 438.712 53.18 438.48 53.332C438.256 53.484 438.076 53.704 437.94 53.992C437.804 54.28 437.736 54.632 437.736 55.048C437.736 55.68 437.86 56.164 438.108 56.5C438.364 56.836 438.716 57.004 439.164 57.004Z" fill="#1F69FF"/>
<path d="M345.842 84.144C345.41 84.144 345.022 84.08 344.678 83.952C344.342 83.824 344.054 83.632 343.814 83.376C343.582 83.12 343.402 82.796 343.274 82.404C343.154 82.004 343.094 81.536 343.094 81V76.152H344.486V81.108C344.486 81.532 344.538 81.88 344.642 82.152C344.754 82.416 344.914 82.612 345.122 82.74C345.33 82.868 345.57 82.932 345.842 82.932C346.13 82.932 346.374 82.868 346.574 82.74C346.782 82.612 346.942 82.416 347.054 82.152C347.174 81.88 347.234 81.532 347.234 81.108V76.152H348.566V81C348.566 81.536 348.506 82.004 348.386 82.404C348.266 82.796 348.086 83.12 347.846 83.376C347.614 83.632 347.33 83.824 346.994 83.952C346.658 84.08 346.274 84.144 345.842 84.144ZM350.41 84V78.108H351.55L351.658 78.996H351.706C351.986 78.708 352.294 78.464 352.63 78.264C352.974 78.064 353.374 77.964 353.83 77.964C354.51 77.964 355.01 78.172 355.33 78.588C355.65 79.004 355.81 79.592 355.81 80.352V84H354.418V80.532C354.418 80.06 354.334 79.712 354.166 79.488C353.998 79.264 353.714 79.152 353.314 79.152C353.026 79.152 352.77 79.22 352.546 79.356C352.322 79.492 352.074 79.7 351.802 79.98V84H350.41ZM360.749 84.144C360.133 84.144 359.577 84.024 359.081 83.784C358.593 83.536 358.205 83.184 357.917 82.728C357.637 82.264 357.497 81.708 357.497 81.06C357.497 80.404 357.649 79.848 357.953 79.392C358.265 78.928 358.677 78.576 359.189 78.336C359.701 78.088 360.253 77.964 360.845 77.964C361.325 77.964 361.749 78.044 362.117 78.204C362.485 78.356 362.789 78.552 363.029 78.792L362.369 79.656C362.137 79.472 361.901 79.332 361.661 79.236C361.429 79.14 361.181 79.092 360.917 79.092C360.525 79.092 360.177 79.176 359.873 79.344C359.577 79.504 359.345 79.732 359.177 80.028C359.009 80.324 358.925 80.668 358.925 81.06C358.925 81.452 359.005 81.796 359.165 82.092C359.333 82.388 359.561 82.616 359.849 82.776C360.145 82.936 360.489 83.016 360.881 83.016C361.217 83.016 361.525 82.952 361.805 82.824C362.085 82.696 362.337 82.544 362.561 82.368L363.137 83.256C362.801 83.544 362.425 83.764 362.009 83.916C361.593 84.068 361.173 84.144 360.749 84.144ZM366.636 84.144C366.252 84.144 365.912 84.072 365.616 83.928C365.32 83.776 365.088 83.572 364.92 83.316C364.752 83.06 364.668 82.76 364.668 82.416C364.668 81.76 364.98 81.26 365.604 80.916C366.236 80.564 367.28 80.336 368.736 80.232C368.72 80.016 368.66 79.82 368.556 79.644C368.46 79.468 368.312 79.332 368.112 79.236C367.912 79.132 367.652 79.08 367.332 79.08C367.108 79.08 366.888 79.108 366.672 79.164C366.456 79.22 366.24 79.296 366.024 79.392C365.816 79.488 365.608 79.592 365.4 79.704L364.896 78.78C365.136 78.636 365.4 78.504 365.688 78.384C365.976 78.256 366.28 78.156 366.6 78.084C366.92 78.004 367.248 77.964 367.584 77.964C368.136 77.964 368.596 78.064 368.964 78.264C369.34 78.456 369.624 78.744 369.816 79.128C370.016 79.504 370.116 79.964 370.116 80.508V84H368.988L368.88 83.268H368.844C368.532 83.508 368.184 83.716 367.8 83.892C367.424 84.06 367.036 84.144 366.636 84.144ZM367.056 83.064C367.352 83.064 367.636 83 367.908 82.872C368.188 82.736 368.464 82.56 368.736 82.344V81.096C368.032 81.144 367.48 81.224 367.08 81.336C366.68 81.44 366.4 81.576 366.24 81.744C366.08 81.912 366 82.1 366 82.308C366 82.484 366.048 82.628 366.144 82.74C366.24 82.852 366.364 82.936 366.516 82.992C366.676 83.04 366.856 83.064 367.056 83.064ZM375.704 84.144C375.104 84.144 374.628 84.04 374.276 83.832C373.924 83.616 373.672 83.32 373.52 82.944C373.368 82.568 373.292 82.132 373.292 81.636V79.2H371.72V78.168L373.352 78.108L373.532 76.26H374.672V78.108H377.36V79.2H374.672V81.624C374.672 81.944 374.716 82.212 374.804 82.428C374.892 82.636 375.036 82.792 375.236 82.896C375.436 82.992 375.7 83.04 376.028 83.04C376.284 83.04 376.516 83.02 376.724 82.98C376.932 82.94 377.132 82.884 377.324 82.812L377.588 83.808C377.324 83.896 377.04 83.972 376.736 84.036C376.432 84.108 376.088 84.144 375.704 84.144ZM382.167 84.144C381.567 84.144 381.023 84.024 380.535 83.784C380.047 83.536 379.659 83.184 379.371 82.728C379.083 82.264 378.939 81.704 378.939 81.048C378.939 80.408 379.083 79.86 379.371 79.404C379.659 78.94 380.035 78.584 380.499 78.336C380.963 78.088 381.459 77.964 381.987 77.964C382.571 77.964 383.063 78.084 383.463 78.324C383.871 78.564 384.179 78.896 384.387 79.32C384.603 79.736 384.711 80.216 384.711 80.76C384.711 80.896 384.703 81.028 384.687 81.156C384.679 81.276 384.667 81.376 384.651 81.456H379.935V80.472H383.763L383.499 80.784C383.499 80.2 383.367 79.764 383.103 79.476C382.847 79.18 382.487 79.032 382.023 79.032C381.695 79.032 381.399 79.108 381.135 79.26C380.879 79.412 380.675 79.64 380.523 79.944C380.371 80.24 380.295 80.608 380.295 81.048C380.295 81.504 380.379 81.88 380.547 82.176C380.723 82.472 380.963 82.696 381.267 82.848C381.579 83 381.939 83.076 382.347 83.076C382.659 83.076 382.947 83.032 383.211 82.944C383.475 82.856 383.739 82.736 384.003 82.584L384.471 83.448C384.159 83.648 383.807 83.816 383.415 83.952C383.023 84.08 382.607 84.144 382.167 84.144ZM388.834 86.604C388.29 86.604 387.818 86.544 387.418 86.424C387.018 86.312 386.706 86.14 386.482 85.908C386.258 85.676 386.146 85.384 386.146 85.032C386.146 84.8 386.226 84.576 386.386 84.36C386.546 84.144 386.778 83.956 387.082 83.796V83.748C386.93 83.652 386.79 83.528 386.662 83.376C386.542 83.216 386.482 83.012 386.482 82.764C386.482 82.572 386.546 82.376 386.674 82.176C386.802 81.976 386.974 81.804 387.19 81.66V81.612C386.982 81.46 386.802 81.256 386.65 81C386.506 80.736 386.434 80.432 386.434 80.088C386.434 79.632 386.546 79.248 386.77 78.936C386.994 78.616 387.29 78.376 387.658 78.216C388.026 78.048 388.426 77.964 388.858 77.964C389.21 77.964 389.518 78.012 389.782 78.108H392.194V79.164H390.838C390.942 79.276 391.03 79.42 391.102 79.596C391.182 79.764 391.222 79.944 391.222 80.136C391.222 80.568 391.114 80.936 390.898 81.24C390.69 81.536 390.41 81.76 390.058 81.912C389.706 82.064 389.306 82.14 388.858 82.14C388.722 82.14 388.574 82.128 388.414 82.104C388.262 82.072 388.11 82.028 387.958 81.972C387.838 82.044 387.746 82.124 387.682 82.212C387.626 82.3 387.598 82.404 387.598 82.524C387.598 82.708 387.69 82.848 387.874 82.944C388.066 83.032 388.346 83.076 388.714 83.076H389.914C390.682 83.076 391.258 83.188 391.642 83.412C392.034 83.628 392.23 83.996 392.23 84.516C392.23 84.9 392.09 85.252 391.81 85.572C391.538 85.892 391.146 86.144 390.634 86.328C390.13 86.512 389.53 86.604 388.834 86.604ZM388.858 81.264C389.066 81.264 389.254 81.22 389.422 81.132C389.59 81.036 389.722 80.9 389.818 80.724C389.922 80.548 389.974 80.336 389.974 80.088C389.974 79.848 389.922 79.644 389.818 79.476C389.722 79.3 389.59 79.164 389.422 79.068C389.254 78.972 389.066 78.924 388.858 78.924C388.658 78.924 388.474 78.972 388.306 79.068C388.138 79.164 388.002 79.3 387.898 79.476C387.794 79.644 387.742 79.848 387.742 80.088C387.742 80.336 387.794 80.548 387.898 80.724C388.002 80.9 388.138 81.036 388.306 81.132C388.474 81.22 388.658 81.264 388.858 81.264ZM389.002 85.692C389.386 85.692 389.718 85.648 389.998 85.56C390.286 85.472 390.506 85.356 390.658 85.212C390.818 85.068 390.898 84.912 390.898 84.744C390.898 84.512 390.798 84.356 390.598 84.276C390.406 84.204 390.11 84.168 389.71 84.168H388.774C388.582 84.168 388.414 84.16 388.27 84.144C388.126 84.128 387.994 84.108 387.874 84.084C387.666 84.204 387.518 84.328 387.43 84.456C387.342 84.584 387.298 84.716 387.298 84.852C387.298 85.116 387.446 85.32 387.742 85.464C388.038 85.616 388.458 85.692 389.002 85.692ZM396.198 84.144C395.678 84.144 395.194 84.024 394.746 83.784C394.298 83.536 393.934 83.184 393.654 82.728C393.374 82.264 393.234 81.708 393.234 81.06C393.234 80.404 393.374 79.848 393.654 79.392C393.934 78.928 394.298 78.576 394.746 78.336C395.194 78.088 395.678 77.964 396.198 77.964C396.718 77.964 397.202 78.088 397.65 78.336C398.098 78.576 398.462 78.928 398.742 79.392C399.022 79.848 399.162 80.404 399.162 81.06C399.162 81.708 399.022 82.264 398.742 82.728C398.462 83.184 398.098 83.536 397.65 83.784C397.202 84.024 396.718 84.144 396.198 84.144ZM396.198 83.016C396.518 83.016 396.794 82.936 397.026 82.776C397.258 82.616 397.434 82.388 397.554 82.092C397.674 81.796 397.734 81.452 397.734 81.06C397.734 80.668 397.674 80.324 397.554 80.028C397.434 79.732 397.258 79.504 397.026 79.344C396.794 79.176 396.518 79.092 396.198 79.092C395.878 79.092 395.602 79.176 395.37 79.344C395.146 79.504 394.97 79.732 394.842 80.028C394.722 80.324 394.662 80.668 394.662 81.06C394.662 81.452 394.722 81.796 394.842 82.092C394.97 82.388 395.146 82.616 395.37 82.776C395.602 82.936 395.878 83.016 396.198 83.016ZM401.353 84V78.108H402.493L402.613 79.44H402.649C402.945 78.96 403.309 78.596 403.741 78.348C404.181 78.092 404.653 77.964 405.157 77.964C405.397 77.964 405.605 77.984 405.781 78.024C405.957 78.064 406.129 78.124 406.297 78.204L406.009 79.368C405.817 79.304 405.645 79.26 405.493 79.236C405.349 79.204 405.165 79.188 404.941 79.188C404.541 79.188 404.149 79.304 403.765 79.536C403.389 79.768 403.049 80.172 402.745 80.748V84H401.353ZM410.552 84V79.2H407.996V78.108H411.932V84H410.552ZM411.14 77.028C410.86 77.028 410.624 76.944 410.432 76.776C410.248 76.608 410.156 76.384 410.156 76.104C410.156 75.824 410.248 75.6 410.432 75.432C410.624 75.256 410.86 75.168 411.14 75.168C411.428 75.168 411.664 75.256 411.848 75.432C412.032 75.6 412.124 75.824 412.124 76.104C412.124 76.384 412.032 76.608 411.848 76.776C411.664 76.944 411.428 77.028 411.14 77.028ZM415.036 84V83.256L418.576 79.2H415.432V78.108H420.52V78.84L416.968 82.896H420.616V84H415.036ZM425.339 84.144C424.739 84.144 424.195 84.024 423.707 83.784C423.219 83.536 422.831 83.184 422.543 82.728C422.255 82.264 422.111 81.704 422.111 81.048C422.111 80.408 422.255 79.86 422.543 79.404C422.831 78.94 423.207 78.584 423.671 78.336C424.135 78.088 424.631 77.964 425.159 77.964C425.743 77.964 426.235 78.084 426.635 78.324C427.043 78.564 427.351 78.896 427.559 79.32C427.775 79.736 427.883 80.216 427.883 80.76C427.883 80.896 427.875 81.028 427.859 81.156C427.851 81.276 427.839 81.376 427.823 81.456H423.107V80.472H426.935L426.671 80.784C426.671 80.2 426.539 79.764 426.275 79.476C426.019 79.18 425.659 79.032 425.195 79.032C424.867 79.032 424.571 79.108 424.307 79.26C424.051 79.412 423.847 79.64 423.695 79.944C423.543 80.24 423.467 80.608 423.467 81.048C423.467 81.504 423.551 81.88 423.719 82.176C423.895 82.472 424.135 82.696 424.439 82.848C424.751 83 425.111 83.076 425.519 83.076C425.831 83.076 426.119 83.032 426.383 82.944C426.647 82.856 426.911 82.736 427.175 82.584L427.643 83.448C427.331 83.648 426.979 83.816 426.587 83.952C426.195 84.08 425.779 84.144 425.339 84.144ZM431.73 84.144C430.978 84.144 430.37 83.872 429.906 83.328C429.442 82.784 429.21 82.028 429.21 81.06C429.21 80.42 429.334 79.868 429.582 79.404C429.83 78.94 430.154 78.584 430.554 78.336C430.954 78.088 431.374 77.964 431.814 77.964C432.15 77.964 432.446 78.024 432.702 78.144C432.966 78.264 433.21 78.436 433.434 78.66H433.47L433.398 77.664V75.528H434.79V84H433.65L433.542 83.316H433.506C433.282 83.54 433.014 83.736 432.702 83.904C432.39 84.064 432.066 84.144 431.73 84.144ZM432.066 83.004C432.306 83.004 432.538 82.948 432.762 82.836C432.986 82.716 433.198 82.536 433.398 82.296V79.644C433.19 79.444 432.982 79.304 432.774 79.224C432.566 79.144 432.354 79.104 432.138 79.104C431.866 79.104 431.614 79.18 431.382 79.332C431.158 79.484 430.978 79.704 430.842 79.992C430.706 80.28 430.638 80.632 430.638 81.048C430.638 81.68 430.762 82.164 431.01 82.5C431.266 82.836 431.618 83.004 432.066 83.004Z" fill="#C74E4E"/>
</svg>
